<mxfile host="app.diagrams.net" modified="2022-05-20T13:14:05.802Z" agent="5.0 (Windows)" etag="c2v1X8NGHhbHgS7vXiSR" version="18.0.7" type="github">
  <diagram id="WI50szJbFoqZZLuz2bQb" name="Page-1">
    <mxGraphModel dx="1040" dy="1512" grid="1" gridSize="10" guides="1" tooltips="1" connect="1" arrows="1" fold="1" page="1" pageScale="1" pageWidth="1100" pageHeight="850" math="0" shadow="0">
      <root>
        <mxCell id="0" />
        <mxCell id="1" parent="0" />
        <mxCell id="hZKEGMEajTzcgUapLtRP-13" value="" style="rounded=1;whiteSpace=wrap;html=1;fillColor=none;" vertex="1" parent="1">
          <mxGeometry x="260" y="-80" width="730" height="340" as="geometry" />
        </mxCell>
        <mxCell id="hZKEGMEajTzcgUapLtRP-3" value="" style="fontColor=#0066CC;verticalAlign=top;verticalLabelPosition=bottom;labelPosition=center;align=center;html=1;outlineConnect=0;fillColor=#CCCCCC;strokeColor=#6881B3;gradientColor=none;gradientDirection=north;strokeWidth=2;shape=mxgraph.networks.pc;" vertex="1" parent="1">
          <mxGeometry x="50" y="290" width="450" height="330" as="geometry" />
        </mxCell>
        <mxCell id="hZKEGMEajTzcgUapLtRP-2" value="" style="rounded=1;whiteSpace=wrap;html=1;fillColor=none;" vertex="1" parent="1">
          <mxGeometry x="280" y="330" width="200" height="160" as="geometry" />
        </mxCell>
        <mxCell id="hZKEGMEajTzcgUapLtRP-1" value="" style="shape=image;html=1;verticalAlign=top;verticalLabelPosition=bottom;labelBackgroundColor=#ffffff;imageAspect=0;aspect=fixed;image=https://cdn1.iconfinder.com/data/icons/DarkGlass_Reworked/128x128/apps/virtualbox.png" vertex="1" parent="1">
          <mxGeometry x="273" y="320" width="40" height="40" as="geometry" />
        </mxCell>
        <mxCell id="hZKEGMEajTzcgUapLtRP-5" value="" style="shape=image;verticalLabelPosition=bottom;labelBackgroundColor=default;verticalAlign=top;aspect=fixed;imageAspect=0;image=data:image/png,iVBORw0KGgoAAAANSUhEUgAAATUAAAB6CAYAAADeZsQJAAAaT0lEQVR4Xu2deZAUxbbGzzAMzM7ggogEKhcCAZHLokSIiEgIAldkUVnFp6K4oiGhhs9rqP+4ayhIKIqyCDLwBIbNy+IIl01FkIuIoCIiIYsgOtPMPgzz6ite9qupzqqu6qrqqu4+FUGIdFUuX2X+KvPkyZNpoVConvhiBVgBViBJFEhjqCXJm+RqsAKsgKoAQ40bAivACiSVAmGoLfooRFd0b0qXdW6aVBXkyrACrEBqKRCG2lsv/kmbP6+kkeNz6fqBOdSiZePUUoJrywqwAkmhQAOo/Wd7FZ2pIyo4J52Gjc6l3n2zqUnTtKSoKFeCFWAFUkOBCKg1zkij+jNEVZX11KZtBo2akEtde2SlhhpcS1aAFUh4BaRQE7U6XVtP6elp1KVbU7r19jxq1Toj4SvMFWAFWIHkVsAUaqg6Rm21NfXUKJ1o0LBcunFoLuU3a5TcqnDtWAFWIGEViAo1UTMBtxYXNqbBw3PY3pawr5wLzgoktwKWoaaFG+xtlytT0kE3Z7O9LbnbB9eOFUg4BWxDje1tCfeOucCsQEopEDPUtPa2JplpigtIHvXpl832tpRqPlxZViB4CjiCmszeNnxsHvW8KpP924L3rrlErEBKKOAK1PT2tiuvzqSBQ3N4y1VKNCGuJCsQLAVchZre3nbVNVk07LZc3nIVrHfOpWEFkloBT6CmtbflFaTTkBE51F/ZT8pbrpK6LXHlWIFAKOAZ1GT2tvET86jj5WxvC8Sb50KwAkmqgOdQ08Ote69M3nKVpI2Jq8UKBEGBuEFNTEnr6s7uJ+19fRaNHJPPLiBBaAVcBlYgiRSIK9T0q6QXtj675arfgJwkkpSrwgqwAn4q4AvUtHAr/esMzV/ZihcR/GwFnDcrkEQK+Ao16FhykqGWRO2Jq8IK+K5A4KD2r+VlqiiIuptqIY5qqutpydL9av1Hj27ve+PgArACiahA4KC2qqiMZk8vpU5dm9CYO/NTZlfC1q1Hadmyg7Rq1e/0z392ZqglYm/iMgdCgUBCbdHskBqUEucldLyiKU24Nz9po+4e+a2W3v9gF61ffyzcIO67rwNDLRDdgwuRiAoEFmqI/CECU2JXwrX9seUqL2kWFMRU86OP9lN5eR3l5CgUVy78naGWiF2JyxwUBQINNSGSFm4jxyb2KVeA2abNh+mNN3Y3gJmoK0MtKF2Dy5GoCiQE1LRwQ9TdRI0CgqnmW9O201dfnQyPzPQNh6GWqF2Jyx0UBRIKakI0nHJVFqqnG27KoX8om+WDfsrV8WOn6Z0Z/6G1a49ShnIEoZhqyhoBQy0oXYPLkagKJCTUhNg1VfUU9CgghYU/Kauah+jo0UpTmPH0M1G7EJc7aAokNNQgpjh4OSsnjR56vCAQUUCE3Wzq1D1UWlprCWYMtaB1DS5PoiqQ8FDTLyb4HQVE66JhNs00ajA8/UzUrsTlDooCSQM1MWpDFJDaGqJrb8im0XfELwoI7GbzPt5DhYW/UnZ2I1ujM21jYKgFpWtwORJVgaSCmn7UhoOXrx+UTYOUU+W9vJYv/4UWLDhg2W5mVhaGmpdvitNOBQWSEmpauMEFBCGOEHW3a48s194p7GbbdxyjadO+p0OHKqigoLEraTPUXJGRE0lhBZIaauK9wgUEW656X5/tiguIcNHA1qZY7GY8UkvhHsdV91yBlICasLfV1tRTRXk93Tohj65TbG4tWtobXYVKz9DMD3Y7tpsx1Dxv15xBCisQhtp7U0to47oKymhC1FhxEI3XpY+nhigd2NCOvZ9eXGLLFextOHj56j7WpqSwmxUVHaQDB8pdH53xQoEXb5rTTFUFwlCDALt2VNLCuWV0+NdaBW5plNbIe1niDTWZve2/7mtGnbs2lVZ2584Tit3sO/rhhzLX7GY8UvO+XXEOqatAA6hBBkyxNq2voAUfhJQDUshzuPkFNa29TXYQjJhqFhcfiWvr4IWCuModl8x+//13Onz4MFVUVCjuPtnUvHlzatmyJWVlWZslxKWQSZRJBNRE3WAMx1Rww+oKNbaZV1NSv6Gmtbc99kzz8AopRmiTJn1B55+fEdfXzVCLq9yeZfbLL7/QkiVL6PnnnzfNo1+/fjR79mwVdHy5o4Ah1ETye3ZV06KPQnRwf60ncAsK1FDfh58saAC1hx76Mi5TTu2rtAK1Y8eO0V9//eVOCzBJBaMJ7mz2Zd68eTPde++99Ntvv1l6+Mcff1RHbny5o0BUqIls1q8tp3WrKujQgVrKzHLP3sZQa/girUDtgQceoHnz5rnTAkxSefbZZ2nKlCme55NMGezevZv69+9PVVVVlqrVoUMHJXrLWv54WFLL2k2WoYbkYGdavCBEWz6vVLYi1btib2Oo2Yfak08+Se+88461N+zgrldeeUWJwnufgxRS71G7H5yhQ4fS+++/z/Y1F5uKLaiJfLFpe+WScgVuzu1tDDWGmovt2fek8vPzTcvQo0cPKisrI5gQSktL6f7776eXX37Z93InUwFigpoQAC4g82aeouNHT8c8amOoMdSSpUNh6tm7d29pdcaPH0+PP/64YqMtoJqaGqqvr6fKykr13ksvvTRZJAhEPRxBTdQA9raiwjIq+bPONtwYasGFGtvU7PVR2MZuueUW6UNbtmyhLl262EuQ745JAVeghpyFCwh2JeCy6gLCULMPtTlz5ijnHHxFeXl5hi/91KlTtGHDBukKXOvWremmm24ybTB4fvjw4XTDDTfE1LBS8aFFixbRxIkTpVX/9ddfeTEgTo3CNaiJ8u7bU00biyvVLVdWVkkZavahZrVt3Hzzzcp5ousjbodxOh6rp1bLmSz3GUEtMzOTADV2to3Pm3Ydaig2wvLs/a7Kkr2NoeYN1GCvGT16NEMtPv1IzYWhFkexTbLyBGoiP8CteE05rVJWSk+VyO1tDLXgQw3e8XD2xTYf7XXRRRd5tt0HecKoHovzL4C+f/9+QxsWfsfqI1YhsQKpvbCNKSMjg9q1a2d7ZOUV1KA9HHn1ZW3WrJmy4+V8zxx3sfARiw5CT5QbOp88eTK8KHLuuedS9+7do9JPPIt3Jdod3k3Hjh2jvhdPoSZKDntb0aIy2rb5rH+bNgIHQy2YUENjQiddt26dspn/h7ALgra07du3pwsuuID69OmjjgrNVvHgZf/CCy9Qbm7DKMRwZ9A+h4709ttv06ZNm+itt94K2/RefPFF2rlzZwOxOnXqRPDZE9M6lHnFihU0f/58qq2tpcWLF4d/Q7ow5MN7Hx3tyJEjymHS5RE2R0wVzzvvPLrkkktUWKBeqJ9s6gh9PvnkE2rSpIn6ByDesWOHtMPeeOONEf9eXV1NDz74IA0YMCDiN1GX1atXq+li/6h+hwJso9Af+vXt25duu+020w4PWyy2bjVt+v/BGwD2Tz/9tEH+0KmwsJC+/PJLWrVqVfj9YAUXK7faa+rUqWGoio8F8tizZ4+q88GDBxuUG/ped911qhuL9r3jWUC7qKiItm3bFn72jz/+CDsyA+Ko52OPPWYKxrhATYgAe9uy/ymn3TuqwvY2hlrwoIZGfffdd0eMDKJ9XqdNm2bYsYxWBsWq4DfffKOcWv8GLV++PJzNzJkz1fRwTZo0SQmZvqBBEeCNv3HjRvXfALPnnnsu3IEAXAAHHQdpoyPFegEeCxcujBj5vfvuu/TEE0/Emqz6nLaOIiFo9eijj1reZiWeQ6d//fXXw5rpC4bfZHtRQ6GQeivyffPNNwkfIHFhQQqjI1wyHzx8OLCqu2bNGgLgfvrpJ0t6oKx4dxiN48OJ/a/afKMlYraaHFeooaBqGOxtVbT047P+bQjaOH9lK2rS9Gz8NK/jqcnEQow1XImy9zPaC8fvsdrU8DV/+OGHrWQhveepp54i/NFfRlADCL///nuaNWtWxNYi/HbHHXeoSck89fHVx4LH9OnTI2yH6DTLli1Tv+gY5WDjuNW9mLKKadMTv7sBNYBXO1JzI02jd2AENYC1uLg44qOBemIFXUwXW7RoEfGO8GHBhdG83QuOyLiMRrdm6ZntxIg71ERBRYij2dNLGWqat2dl76eVxhML1PClHDx4sJXkTe/BdOaaa65pcI+ZD5dRYlo/Obvbj5CmthyAWiydR1s2jP60abgBIIx0hNtMLBoZaSfb4mYENbOXqYWuDGqOG4uDBLTA1SbjG9REITAlbdtOsUnwSE2VxE+oGbmAiHeFrzJsYtptPrI2CQdUjJ60dqhYOixsOOiISCcWqGk7JKaxsE+JC6M82Jbg66e1yUUbzWk7kh2oYaQnu8RoEobxESNGRAWvSEe/aCBLW+8bFwvUtB+WoEFNNnWHDr5DTf8yePpZp2wi76AYqNs7+IbZn36ajdIwTcCU5sorryTAABcMwLCDGG2s19s8YoEa8oRtKVaoaQEEoz6muVhcgB0HiwFY5QSkBdQAFiwoYKFB5t+Hems7OQz4WGUVz3/22WeqXVB/QTMtULW/i9W8aPog3169epEWaj///LNqcDcCsX60FgvUtCYAu1ATCxmxjJCtPIsFA9hR9VfgoLZ1UyXNml5CNVUNV0kd9fAoDwfFpoZRWrNmGTR5cmclfE1rR1W2O/00s6Xt2rVLurIJCMCAL+uweltRtE6rrSxGaLDrCQM1frM6UsMU8Z577qFRo0bF5A6CvKDdxRdfLA0fZLYB3cyl4/jx46bv0yzyimw6LxLbu3evapOTjdwwYv7www/D+VqFGoCCke0jjzzSQMNoUIP2PXv2pJEjR9IVV1yhjoQBdHww77rrLtOFJ+QJ2x1sZddee234WdQPMwhZ/caMGUMzZswIPtRQQkQBWbOynIqV+G3xOAgmCFAD0Pr1a0n3T/q77VOuZL3FDtRwL754slFXtCgSRlMw/VfUCtTQCdH49fY4q1DDaGbcuHGu+G3JVltRDnQkrBAauXjItklF21EA/dGRZcZ2o9GI9p3j3clGiBhhY8VYBKC0AjW8b4SbkrnnGEENMJs8eTINHDjQUHv99F+UHzATzxq5BBkB32hnTOBGatqXhai7KxaX0d5vq21vlLczzPETaoBZ27Y5ysjkcurW7Xw7xTa91y7UMLrRulOIxLXTD1mGRqMTfYMzgxo6BRqucN+Q5WM2UkNeTz/9dIORnVMh4ReHP/oLeUETmVNwrM63eFfwN5NdRnYj7b1GLisABhYixIjXDGqwl2LUY+YYawQ1K3H3jKAW7aOJehpBOyGhhgqJXQmri8pjigJipXH7ATXtVLPPNReFF0qslNfKPXahhimDzE8oWqcy6sgYbWmdOs2gZrSKpa2nEdQwGjGyf1nRyegeIwDAiRadP15Q00/jZeWFba9r164RPwlbngCVUZ0ANLzHaCGQjKAW7cOHghlBzclINGGghqlnbl465TdreD4f4DZ/Vint+LJa3XLl5rmg8YSagNmQIa1p9KiOEfV00hG1z9qBGmxjmLbJoIYGj604RteJEyek0yY9bMygpnXwNMrHCGpw1cAKottXKkENHyD4CRqNFoW2XkAtJUZq6glWaypo8PAc6jcgJ6KtAnofKYEptbsSnDboeEHtxIlaGjKklWIMvdjVqaas/m5BLVZtgww1TNew/aakpMSwepiKy6bjyThSA9SwoBDt8BeGWoy9AVATZ452+nsm3XxrDl3WOfKgYdjbZr9b6ijqriii11DD6KxLl3zFyNyerr76whiVsfcYQ62hXmIv5auvvqqGAbJ6MIpedYZa5IEyTqafKTNSWzQ7pC4M1NXVKxvgif5xSw5dPzAnYlUQuxJ2fFVJc2eU0pm62A9e9gpqYqo5ZkxbGjG8net2MzPMMdQaqmNkbLb3qSBiqDHU7LaZiL2fAI6I7DFibB717psdYYdCFJDPlRBHxf+qiMm/zW2oCZj17duSJt7dxTO7WZChBlvc119/HS6inzY1bJjGQogbF0ONoWa7HRntKAB4qirrqU3bDBp3Vz517iqfkn72aTltVo7wy81PsxxS3E2olZScVvyszlN2BLTz3G4WD6hheoBzLO1eiH2l9TfzE2puHimYSFDDO9OuLBstfrBNzW7rtnl/tG1Sp2vr1RTbXJpBkx4toFatMyJywK6ENcvK1FPlMY1Na7iQGnG/G1AT/mYTJ14WN7tZPKBmxV5i5RX7BTWs7MLjXubYCmffZ555JsJADsfaZFj9xJYquNWIA18YalZaqgf3RIMasgSEYG/D4S79B2XT4GF5EVM82NtWLy+jtSvKox687ARqgBku7NccPOhvvkw1Za/Bjk0N9yLEj2y7kxXHSivNwC+oIewQnHtll5l/XFCgFs1PEPUy2rdr1fmWR2pWWrCDe6xATSQv7G0F56TTjcNyqL+ymCCifYh7ALfCOSH6emslYZQnO+UqFqgBZjk56crUrJVvdjO3RmqA2pQpU6SHsbh1SEvQoKbv8Hot4w01hHySbfy2sjpoNL3Ww4pHag7A5ORRO1DTwg32ti49MqlP/yy6uk9WRBEQ4mjueyE6dKA24pQru1CDv1mvXgXKPsWOvtrN3IIa0jELo2PFOVaUBYCEu4Te4z5oUNN72+u1NNom5YVNDXmb2f20Mdf05TSL6mt1QzuP1JwQy8KzsUBNJIuRGFw7uvfKpFtvzzO0t4mou8LeZhVqwm42blx7x1E0LEjh6BY7009kZAYdjGrQ6bDpWruRW5wwfvjwYfUcUkRPxVRINmX1C2qwqeHUdFl4HoQ2wgZ6nC+AC2cGIJQQAC9zvMU9XkEt2oZ/bKS//fbbCYfd4ILmCGFuFPoJ9+inrjxSc9SlYn/YCdSQq9YFZNjoPOrTT+4CskE5l3S5chhMevpZ/zZcRuG8hd1s7NhLPd3aFLtqkU/ahRruxy6AaEESYXxGYEUcdmwUqFA2ZfILaqgXDjfBHkrZBdcT7HnEdi8cFhLNKdcrqFkNEmmnjcCeqP0IMdTsqOfivU6hJoqihdudDxZQz6syI+xt2HK1Ujm+74t/nz367dH/bk5de5yduu7ceUKJFfaFsu8xg6666nzXQgK5KJVpUnahhsTMThi3U25Zx/cLam7WC2l5BTWk7aY/nWyBgaFmpxW7eK9bUNPDzWzL1a4dlbRwbhmNmpAbhtrWrUeVqKLfKmFPugfWbmYmeyxQQ3pueN5jNAeIaYM8+gk1symo3abrJdRQFjshwo3Kro3Oq72HoWb3bbt0v9tQE8XS2tvG3JkfseUKUUCqlGi7IjoI/h+XfjXVpWp6ngygZhROCB0TozKjC1Fw7Rx3pk8H6eMoNjehZhS0UR/iyKhOMKgjom606TWexzQcU2isRuptVogKgjDmdkIPIU39VNCsAYgzUu0cGYf0oAXCn8vOEcXvRlDTB5M0KpvsiDzca8WX0ej8Cyuru0YfWqN2HLggkV5BDeJrXUAGDM2hIcMaHqzrOWnimIGIZrtv374Gh9fCGN6tWzdpbHdt8RCjC9ucrJzHiJEZXBIAUcT+l52iDai89NJLEYcZ43Dc1157LWqECIxg0MmFUV+UtU2bNlHrIu5FnbChHcfqyS64r8BfD6GoEYYH00EAXuSJsnbu3Dl8boI+DdQR54PKouLKYumbNQeMLrdv305Lly41LK94HqucOHQZMdXMwgfhQ4YFEJmG+tDdsrIh/JPe5ghNJkyYYAhSkQ7qj0UYbd54FidpiWMQzT6yeBf6Z9GO4Yqkv1IKaqLyWriNUkZtMntbHPmTEFmhk+HEbbHiiY6LUDWyEUvQK4Q64OCYkydPqgeZIF5ctLA7ftdJlPn06dNqURo3bqyeIi8DqN9l9Tv/lISaHm5wARmojNxkIY78fkGcPyvACthTIKWhBqnEliv4tz3x/LnSjfL2JOW7WQFWwE8FUh5qAmz4r9ZPzc+XwnmzAqxA7Aow1P5vtMZQi70R8ZOsQJAUYKgx1ILUHrksrIBjBRhqDDXHjYgTYAWCpABDjaEWpPbIZWEFHCvAUGOoOW5EnAArECQFGGoMtSC1Ry4LK+BYAYYaQ81xI+IEWIEgKcBQY6gFqT1yWVgBxwow1BhqjhsRJ8AKBEkBhhpDLUjtkcvCCjhWgKHGUHPciDgBViBICjDUGGpBao9cFlbAsQIMNYaa40bECbACQVKAocZQC1J75LKwAo4VYKgx1Bw3Ik6AFQiSAoGE2oIPQhGnqHspmuwwYy/z47RZAVbAOwUCB7VQ6RlavCBEWzdUEk6ASk9Po7RG3gmAlBlq3urLqbMC8VQgcFATlcdBwzPeLKGD+2upkXKKeuOMs6eoe3Ex1LxQldNkBfxRILBQE3KIg4YPHaj1bErKUPOn8XGurIAXCgQeaqg0pqRb/l1Bi+edotqaespo4u6UlKHmRdPiNFkBfxRICKhpp6Qbiyto5SflCtjcm5Iy1PxpfJwrK+CFAgkFNSHAvj3VVLSwjPZ+W+2KvY2h5kXT4jRZAX8USEioCanWry2ndasqyKm9jaHmT+PjXFkBLxRIaKhBkJrqelpSGKLN66voVEldTPY2hpoXTYvTZAX8USDhoSZkO37sNBUtKqMtn1eoU1I7/m0MNX8aH+fKCnihQNJATWtvm/teiI4qfm5WwcZQ86JpcZqsgD8KJB3UxJRUdQH5uIxKTtZF9W9jqPnT+DhXVsALBZISakIo+LetXl6mLCaUq1uujHYlMNS8aFqcJivgjwJJDTXtlHRjcSVtXFch9W9jqPnT+DhXVsALBVICakI4bLlasqBM3U+q3ZXAUPOiaXGarIA/CqQU1IS9rXhNOa0uKqeSP8+6gIjr4ScLqGuPLH/eBOfKCrACriiQclDT2tsK54To22+qw/5tDDVX2hQnwgr4qkDKQk1rb8OWq+92VtPjzzXnkZqvzZEzZwWcK5DyUBNT0u3bquiccxrRZZ2bOleVU2AFWAHfFGCo+SY9Z8wKsAJeKMBQ80JVTpMVYAV8U4Ch5pv0nDErwAp4oQBDzQtVOU1WgBXwTQGGmm/Sc8asACvghQIMNS9U5TRZAVbANwX+F+lGaylqFw/cAAAAAElFTkSuQmCC;" vertex="1" parent="1">
          <mxGeometry x="283" y="390" width="101.31" height="40" as="geometry" />
        </mxCell>
        <mxCell id="hZKEGMEajTzcgUapLtRP-6" value="" style="shape=image;verticalLabelPosition=bottom;labelBackgroundColor=default;verticalAlign=top;aspect=fixed;imageAspect=0;image=data:image/png,iVBORw0KGgoAAAANSUhEUgAAAGsAAAB3CAYAAAAEq77sAAAToElEQVR4Xu1dCXCV1RU+SAImQgIhICIhCZVAZAmERSOEgIPSEZHQGWUKBoKgQ0RALTpqwdE6yhRRgVZlS1kUK4TFDQFBagGNQgiguBELFlQCIZAESCAQ7P9detLHy/3X9y/v0fwzDAPvX+493z337Oc2qKio+JXqr5CgQIN6sEICJzHIkAfr3LlzVFVVJSZz5swZatCgwWXUj4yMpEaNGlF4eLj4E8pXSIH1yy+/UHFxMRUVFdG3335LP/10mMrLK+jY0WI6XnqCqipPX4ZFw4YNqVmzGIqKjqaYmBhq27YtJSTEU6dOyZSYmCj+DTBD5QpqsCorK2nfvn2Un/8Zbd/+KX315R765chRQdtGYURhCqdERjYR/wYwsqumpkb8d+V/gaysOl/7fOcuKZTSvQf17duXevToQUlJSUGNW1CCtWPHDvrwww9p/fp1Cgd9LwgY26K5AOSqq66yhaAXf/2Vai5cECACwMiIcErvfytlZg6jgQNvpTZt2tjyHTtfEjRggYvWrl1DCxbOp92Fe2sBckvOXLx4kU6dKhfA4crOzqZx4+6jlJTudtI7oHd5DhZAWrx4MT355JOuA6RGOV/gBg8eTI899hj16dMnIELb8bBnYFVXV1Ne3krKyXlQzOPaa1uKv6/y0+bsmKSVd2CbbKhsuWVlJwS3ZWZm0rRp0zyVa56ABZn02NQ/0O49e+naVrG2ySEroBh9prz8pAANO0BOTo6iZTYz+qht97kKVllZGc2ePZtefvlloTC4JY/soBbst18VbjtSfIzi4uLo1VdfpQEDBtjxasPvcA2svXv30ORJkwQ3Xde6leEBBuON58+fV+y6k4LLHn30UWrcuLErw3QFrBUrVtD9999PUVHRdE2kOxNzmnqQaUePlhAUEOwW119/vdOfdN7dNGPGDMKfUJFNZiiOrREKSFxcIs1fsIBSU1PNPG76Xsc4Cz47qLxLliwJ+W1Pj6rYFqvPX6Tc3EWC05y6HAELQGHbe+edd65IjpKBwdtiXl6eY4DZDpYvUKGuSJjlEKcBsxUsbAc5ORNo5cq8K37r0/J+HD12nN577z3bVXtbwXrmmWeEDfX/xlG+wEHpgKcfgBUUFNjq8bANrOXL3xSuI7iNvHQZsQ0EAsLwRuARxqzbF8aBKMHOgkLbvB22gAX30aBBgzwHCt6FtLQ0sf1ERkYoYZb1tGtnPrWI9cYIh4sKYRcoHXZcAYMFFxKCd4jSeuk+AmHuHJqpuIFeq/UowKM/efIk+uD9dyg6urkd9DL1DmyJCJY+99yfaMqUh009K7s5YLAmT54cFLYUuAqhfn9Pwv79++mWm3t5wl2+8uuTTz4J2GgOCCwM4K677vJcoQBX3TNiFM2dO1e6esePH+cZd2FAZyrPKUHMbrRmzZqA/IiWwcIWk9ojhRCX8nL7AzHAVZs3b1YNEAbDosIYX3nlFSX6PM7ydmgZrDlzZtP06U97zlXQuhLb30AbNmxQXTQw1O+44w46eOAHzxYWos9Q6bdt/8yy09cSWD///DMlJyd77kpiAb5w4UIaMWKE5orNzc2lRx55xNPFBe5CSAX2qJXLEljBYvxiteIyYssg57Bf3zRbM6SsEByAWTWWTYMFruqZ2s0TVdifOJg4AoCcbKNHvMcff5yWLc31dOyBcJdpsIJFVrFiYWaVIlqdnt7f060Qu8HJE8dp71d1zQy9xWYKLBjAgwffRiXHjnkmqDEhDvrdPngILVu2rM4cMU5oq7JETcSbivZ/5+n4wV0IyE6cOFEPn8t+NwXWu+++S1lZWZ6uTB49JqwWO4Kf8vjx41KvAacYeOlshgbbslUr2rp1uym7yxRYXhuXDBQmGxfXjtZv2CgtLMjony5u/WjT5jrEgF0YGxsbFH5MLdswIHcTtKnUHl2padNoz/P8wFVq/jaWS5isWkyJ80K85K7S48foocnm1HjDnBUsWyCnNu8q/FJqXMKW+vtbl+SYmguK7UQvwRJmh+Lo/eYb4/LTMFhMBC+8175bAnvXFy3KrbNTQKlo3bq1kKkgRsWpUios/EYK6ujRo+mjjes8U+M5BWDbtq2Gix8MgQUiZPTvT6WlJZ5qUTxBtb2eA6DMMVpaVyj6Cw2BhTBDr169PNcChWIR3442b9oiXTRQLA4fPlT7m5YiAkUjPb2vp2YIxtcvPUNqflhWMIJFXoFTXn/9NRo16t46cyksLBQRYl85xJyopmgEi79QKcI3ZG8Z4ixoTy+9OMOTAB7Pgi3/Hw4ckuY0wJX0t0Xz6oxRK9YFDbdbl07UPMa7Sha1oKllzhozZgxt3PCBZ8IYAwfRR48ZRzNnzpR6LHr37klKZozUrNBynqqBbGip23ATxmY0bU2XsxAL6qfkWHitXGgRXM8roaVoyLZPGzAw/Aqtrd3/Jbpgwc/Wrl07T2NXEMQdkjrRxo0bpUS4++67aVfBDlVNFc9HKFX9O3furOPxwG8jR47UfN4w5S3caCZyoAtWMBiQmNAbb7xBw4YNq0MO9ljo5StqbTd6nGkBA8OPlJWXKIHTMar5I74v0gWL1fY2113rSbIkeywOHT4iEjb9L8icefPm6fr6kLRy660DVb30XqXTVZ8/q5hFaYZyC3XB8joGpOUHBHBYTJOUisr8/HyhtnM5qT+oAB0pzbJ0Ndzrlb8QYLVv35E+/vhjXW7UBctrS9+Iagsl6IknnlDqo3I1DXct+cD5hW6r8QArtkVrJTWhILTB0ssH9J8dG7lqxeXMXaWlpVJlhP2F6PfkVn78FQOWXj6gbCki737s2LFUerxYahdqBS2hbUKz1FNWdFnAxA22guWVHcLqOgxGs9Xw8ExMmTJFqPr+YRC8N/nGLrRu3bo6JPXCprRVZnnlxNUyFmH7LV26RDPZH4RHrZis+FzLwEZ/C2RLuRXrslUb9MLO4uzV7Z/mS5Ne2LF8zz1306xZL2nWP/G9vnJMS9EAV3bq1Mk1J4CtdhZ7MNxaaZxlO2HCBKkfEHvXkCFD6Ntv9onGIcnJHRWDeblmhSHMj5EjR9HRI4eFoxeLAYVun3+xUwq0m7kmtnowsJ2gv4Ob9VeYgFoE1ddjAeDQMxCg6VXJY9GhgwDLMS2vCBcHuuEIsNU3CIK4GQKHpyEt7WZVix6p23+d+zI1b3GpHBYxK1zo9mKkaI2NX3S70frOTTf1diUwaavX3de6d2ulqfkBOcdCTbXGxCHH5s79i2bvW1bRMTc1DnbLX2jE6Ge1VdeDgRvdihRDrW6hcMwmpdZK1iLOCAEx+d69eysR5dc15Ri03KysUZSRMVA1RuZ0tIGNdFsjxW6p73rC1j/HQs32hOejaVQzWrgwV7MXBeTYCy+8IGwyWaMsp6tlzBaIG+IsN7KbOGz/2efy3hFmHMrQKJEQA8VDr9qQ+8LLOJkXqVNNwrA49cZnKkTCNzudN4hVNvi3dyrG7lIpw7BiYaZNAm8zMAPwvJUe7lCutmz5hyOt97S0XhkRDHGWG3JLSysCZ7dPjLOcuo13p6en0wKlzZzZvoCsjNhtZ0I+oxb7y6++NuxOMwwWPBmpqTdSVNMWtue6s2KhFiZgBSeQ7QicGxYeqVTMrzbVSdopEeBorju4yynLXm/vZo9FoF0BuFWQWu6hmsJit7+QvTSOVZE4uRUCrEOH5PmAtR4LpUs1XER2xJnwPcix559/3lA6uN0F767UZzlR+Yjt6fcjRwutSHY5pT4DMFRBzpkzx9BRFnYqWHo7iRqHG5ZZ/AK7a4q1NCIn+0KZ7W9rV3qDXsmSVtzSNFjYEtL73WJLiwK9fEAjHgsTQVnprRhDhcLduYvlqW78kF2hIixOq70wTIOFwdu1NWl5vjn5ctvWLY6nbbM9hqDj1KlTpXKMPfGBqPDMVVu35VtqGmkJLKyylK7JASX0Y+CNGkfQnj17pMRxy8XFnMMVJ8OHDxdyzNejAfUdCkmgxXeBcBXGaQksPMiyy2pyCcBq0+Z6uunmNOn2dPDgQaUTSz41Cr860J3O8PPs8kpsn0RTlTbnHTp0UOq9Dgtj+ov8bQFV0XjWuwmzx2pLSupIEVeHWzaSeVuQURMnzgVqVxlGye9G39at+CnQc1OYa834AQNyN8keDtQVo5Y9a5XIwfocAqq/uSFB2UbrtnowM2bL2yB/BJ0833pzSUBbhJkBh+K9kFWed/IE4WAL3ayEwBGSaBgW5mnn6WAEUi9X38yYA+YsfMy3+zT+7WWrcDOTd/pes8FFvfHYAhY+wnnmVrVDvYGG2u9B29edCWmXsRxqwPiPl41sMw1JjMzZNs7CxxAinzjxQXEWiRuZUEYm6PY9DJTRom4z47MVLHyYrX0cxxSIa8bMJILlXgZKL+HU6nhtB4sBE+0YJFUcVgca7M85DRTm7whYeDEE7Pjx45VTvdde8RzGHg+nOIoXqmNg+SsdwXZodKCcymnbpyrKRI7iqlWrDXc3s/ptx8HCwLhbWaA+NquTdOI59vchawp95WX9eO3+ritgYdBXyjnFvgmkCCI+9dRT0pYPdgPlqMySDdb3BPBQPLOYualjUhK9OGuW7ccE6gHsGmf5DgTuqWeffVap4NgWcPhBb4J2/M6hnMqq86KENScnx7bT5syMzxOwMEAY0KtW5SmFATNEgC+QBE4zEzZ7L/x7AAmlRGiOkpLS3ewrbLvfM7B4Btgaly9fTi/NmikKCYJFCWGQMjMz6aGHHjKVxWsbOn4v8hwsHg88H2vXrqEF8+fT7j17KSKiQW2qtlNBSt/3Qh5xySvGhHOusrPHeMpJ/qAHDVi+A0Pvjbfffls00OLLCY7zlUX4Dorw7rtvrFJgfqcnMkmPI4MSLH/g4L1es3q14Di+wHmRkU0vm19YWONL/1a45EJNdZ25V1VWCfnDF+RkxoCBdNttt4sqEzdsJT1AtH4PerB8Bw/5duDAASoqKhLdzb7++ms6VlJMlaerqExRBLCN+V9oCtmkSaRypEUruu661tS1a1elz0UyJSYmij9eJeVYAS2kwFKbIOQd0grwt++F4jn0KERBg9mWQlaI6fQzVwRYThMpWN5fD1awIGFgHPVgGSBSsNxSD1awIGFgHPVgGSBSsNxSD1awIGFgHPVgGSBSsNxSD1awIGFgHKbBgvH5448/Gq7cQ+yqS5cu0u4uKJjDlaQE87QuFO/Ba1FeXq5UQUZT8+bNKD4+ga655hpVDwT8i02aNNFtGllTc+kUcVy4v5VyyqmsNZDv+DDuqqpK005eGO1FRfupuPgonT17VswlKipK6eveXveb+L5psLjO18hhzohZtWzZkhBmkJ0njL4a5eUVqr0Fffu1R0aEU3xCeyo7eZKQ7I9LrTLjUhOUFpq1u1xZKVskemcIo0XQv388SP/cus0AP1y6hbtiI3YXFxcnXGAnTpwQfRIRK5Mdi+j/clNggQggPCK8Ro5J5/6A+KiMACgXAreo9WviCnn0H8zIyFDCJhFUU1MjKleKi4tFL1tZPyaMs3v37nTvvfeqHuXO/TWQOevL2Xl5K2n69KdJq6EIFtmRI8XSDtYy9LidEQ7BnjZtGrVt21a4wKqqqujMmTPilAcjTmRTYHG1CDpmYkIlJSWaPjfmrLS0NHH8hH9KMcAC4WVch0lzsZ7akRRqy9oMWP47BC8wLe4yCxZX+geaUm0KLDTuOHWqQnTKxKmlah03mYgMFlK1du3aRavyVpBvR2k9sNAJOiMjnZpFNzeVoBIIWLwg7eYs0EurSbOR/dQwWNxCm1cHKkbWr19HXygdnNUuX7CGDh0qgns9e/YU5UEITeiBhfdiVT788MOCy9ARBufR42xHrcsMWNnZ2RQTEyNehy0ZY9MjqlnOYpk1aNAgQYPOnTsrEYIzStbyBTGfPn36GMHKuILB9Vc8ERbQWooGg8WNrVhOcONhI2DxLLDiISdxYBm21Zkz/6yqjZkBC8I9JqZFLbHQJQALQysV2gpYmOuSJUuEMsHfwzizsrJEd28jlyHO4mNib7mlHxXuLqCzVWeVCW0SrbcRwJOdw4iP+4OF/2NtEtvMqlWrFG3oqKqCIZsAQJs0aaISfPxeUxs0qmDIFhvXmak1/zILFstes13QLGmDrJVhYvHx8fTAAw+IggNwGfIk1CYlAwsDwAFlOAskISFBieDGmgILz0MJ6NI5me5/YIJU2zPDWbKCN9/5ymxAs2BhV/rjU4/Td9//y5A9pcZlhjgLg6uuPn+Z1sZNS/BiKBAjRoyo8w01sKAB4n5oiFo2BuQVLhiqvuF33k7V+koEAhZ2EbQEwpYF80BmGviChW/xhfZ6UMP9UwVYacF4YaP5/o7nkbhjJJKtCxbLJpnmxx02e3RPkRqIrAbLiMrvVTOYQQDejnCERdeu3cReDwKiUA/KBhaJzNtgxChmwCH/4EXga8/uXeIEOy01G2ChuhPzPnvubO2zp09XKrnvT0oPvebm/3gmtWcvAdiJE6VUpHhDOigeHFuMYhB1584dNHz476SrDJP+7rvvpZyFVQqQe/XqKVUGsOIAqJp2x+6Zffv2KW6aHwRRsAIhkJGNpNWgGLIR8lRN08K733//fbpw4X+cgfc3adJUaGxaRirmjDGFhYXXeR6uNbWsXTxXULBLZCDzXNq1ixPuOCOZvrqcZURLqb/HHQrUg+UOnW35Sj1YtpDRnZfUg+UOnW35Sj1YtpDRnZfUg+UOnW35yn8AKplVPgzaVoIAAAAASUVORK5CYII=;" vertex="1" parent="1">
          <mxGeometry x="387.07000000000005" y="370" width="71.93" height="80" as="geometry" />
        </mxCell>
        <mxCell id="hZKEGMEajTzcgUapLtRP-7" value="" style="shape=image;verticalLabelPosition=bottom;labelBackgroundColor=default;verticalAlign=top;aspect=fixed;imageAspect=0;image=data:image/png,iVBORw0KGgoAAAANSUhEUgAAAW4AAABkCAYAAACmTtpdAAAgAElEQVR4Xu2dB5yl0/nHn+m97cz2zmItIhGCv14jSJQlRBdhlURNCIIQEdFJghBdlEQiRRISJYi+iN6y7GJZ2+vs9Pk/3/POc+fsdd9yp+zOcl+fMbP3vuWc5z3nd57ze1re4sWLOyXt6OzslLy8PPdpe0eH+12Qny9NzW3y4AvzpLO9VXbaZJiUlhRKh57b2dEp+QX5ksffeq5dm37f1f3fJhf63N7eKUWF+dqlTnnrw+Xy3CuzZbuNh8jIweWum23tHSqzPCcLruMYKHLx3+9LL70kzz77rNTX18sOO+wgNTU12rd2KSgokPnz58vDDz8sCxYskO22204mTJjg+tKTfnBdh44l7vvqq6/KAw88IEOHDpXJkydLWVmZ+y5fxxjn8cPfn3zyiTz00EPuu69+9avS0NDgnr18+XJ544035K233nJt5bPy8nIZPXq0TJw4USorK1P3W93HXK79OQlkkkCeD9w+wPB3WwqcRF56e65c8Yd35Q///kjyCvNk8pbD5YTJE2TDtQe5+7a2dUhhQTdQ9WRyD9RX5MsFQKZvgPKcBcvlnoffl/PveVeWzGmSMaMr5Af7rSV7bjFCaqpKFDwCECrQRY2jp6DX13Lx23HppZfKueeeKxtuuKHceeedMmrUKGlpaZHi4mIHjvvuu6+8//77csMNN7i/AVHri7ULkPUPW6wMhO07ri0qKpL7779fDj74YGlubpbXX39dRo4cmQJgOxeAf+SRR2SPPfZwH/35z392i8fHH38sp556qvt3puO+++6TrbbaStra2qSwUBWLrvZyLu20tvlt5O/0BdbeuT3DX1AG4mLc12Mkd7+BLYEVgNua2g44KTDl64Ce+ckyueWfM+Ta+96ThUvbpL6mRNqlQxYuaJXamiI5aOcxcuyu42XUsAqnhaKBDjSg6s0rMJBbcSHrlPuf/EiuuOcdefL1BVKhIF1WkicLl7VLW1Ob7LBRg0z5xnjZZdORA3JR84H7mmuukR/+8Iey+eaby0033STDhw+X1tZWB7DvvPOOHHjggU6zvfHGG512bIDoyxRwDBaoghSoowkDnD7wsSCUlJQ4QP72t7/tNPlXXnnFad48zxZ7ewbPveKKK9wtTjrpJFlrrbXkRz/6kfziF79wGvbWW28tw4YNc23ih3ufeOKJsuaaa7o+cD+/Dent9NtmAG994H6m+duCw/l8zgKQvlj1Zozlrs1JIFsJOOD2tQu0RAe8Ohmv/9t7cusD78tL0xZJWWWRlBfnq2YdbPuLVLte1topTYtbVOuukWO/sYZ8a6fR6DUDmiZIIiBfHkx+Jq5pZa/8b75c8odpcv8zn8jy5napry3WBQtKSakTlYl2X+YvapGK0gLZf+tRcsyea8jaY6q7NL9gMQwIpe5jZe9OfOD+1a9+JaeffrpsttlmcvPNN38KuA844AB5++23HXDvs88+rtFLly6VmTNnOnAEQMeOHetA25cT5y1cuNDRHYAcWjXnckC/HH744Q64p0+fLoMGDZK5c+fK7NmzZciQIY4SsYMFgPYCwIDmxhtv7K7Zaaed5LbbbpPS0tLUuSwMBtYm0w8//FB0jDtQHz9+vGuLUUFNTU2ybNkyR63wPceiRYscXZR+LFmyxPUHOoYjfYwkGVe5c3IS6CsJ5OlAdSjig8fTr8yRH93yhrzwzkLVrkXqFLQ7dYcMONl5TsNSnCpUkJ+3tEWK9O9tN2iQ0761tmw8KZh46YN7oFAFYcJLp4qcXALh6La+Tc6//U2555EPZeaCZimr0IVMO+0WMj1JN9up/hYrldTY0imNy5tlTH2lTNl9jBy1x5pSUlwYgHYXbq9swLZ+++/h6quvTmncACHAad+/++67st9++zmNG1Dfe++95cILL5R7771XADKAG8ADeI8//ngH7FwLIJ9wwgnuOoCQftbW1jrt/Xvf+57jrQ877DD3HVQN95szZ47jrgH3yy+/XLbYYgt54YUXZMqUKe763/zmN7L++us7Lh7gZbHhB/Bl0QCQbfHg79dee81p3ywGUDJ8x4JAu+gHx+9//3u5+OKL5Wtf+5qjV37605/KKaecIrvvvrt85zvfcRTRMcccI7/73e9k2rRp7j6DBw92Gj9cumnkfTUZc/fJSSCpBPIWLlzUma+0CMeHs5fJhbe/Jff+52NZ0tIqVRXFTouE606Bu8OdAMAN6OC2W1T7XqrgVq0TZL/tRsipB68rQ+sCbQjA5xEDmRv0KRFtbqq90EZ/e+IjOffWt+SdWUuluChfqsuKpE21cM5z4OvJxBYs11/939Lluo1X2aw3vELOO3KSbL/xMAUZ5K3GugDzu2Wb9K318rxMGvdGG20k0CYAE1podXW1/O9//5MjjzxSAHDTuC+44AIH3uuuu65UVVU5wyYHFMtdd90lX/rSl9xCwIKAbL74xS86oH355ZflnHPOccAIcB9yyCEO/DMdRx11lFxyySXy9NNPy8477+xOgV758pe/7LRh2v+DH/xAzjzzzJT2bDsjM2oCxoBt+oF2fffddzugZjE4+eSTXTuhatDYAfaf/OQnssEGG8iMGTOc4ZQFxfhydhWA9jPPPJMygK6qBbiXwyB3+WosAUeVzF3UJL/953S58u53ZW5Ti5QrMJWox4QzrmnnfC07/W8H6XgBdFEAaKCNLe1Srv++5Nj15RtbjpRqXQA4Ak8LDEQDy1BnixL9xWOEXQTA+tK0pXLO9S/JIy/MkbzyQqkqLdS24x3RDbbpuwh/AQjoleD8Zu17y8JW+ermw+TH315HJo1To67KwbwpVuYY8tt81VVXOd447kg3ThrHC40CuOKBwjlo3QAsdMZxxx3nQNAO484BYYAbjfv//u//nFY7btw4p2n/6U9/crQNBswXX3xRdt11V6fZA/Zf+MIXpK6uzsns+9//vpx99tnuO0AVWdv9MbKiqaPl/+Uvf3HXoS0D5mjx/Aa8b7nlFreQANhw5WjZtIu/AXb4d9rGcwBwdgacA8hPnTrV0T85rTtu5OS+7w8J5N35jzc6L/r92/LiGwulXA2PxaoNAl6+FhFGcbjPA54gtb12A1n/rU4mslS53i02GCSn7r+2bPOlweoyWOC8T/DIQOtc1dRJN8gGi4p5xUz/aIn89l/T5eJ731VZ5EttmVIcuPS5XYb75Y5IuaR2JIB3cC79XrCszWnop+0zVqbsOVHqq4vcvVam1ua3m20/mit0h8/fQi1AQ7z33nvutxknrZ0AIYDZ2NjoqAVA9sorr3Tc9S677CJPPvmkrLHGGnLWWWc5bhktNRPH/cEHH6Q4ZTRywBseGx6ce3IvgBWwR3sHjH3ghvemrbSL8wDVa6+9Vk477TS3GKDpm5cMdA6UD7sFNGaMsdApyAPvFjxqbCGFqgG4zZuFd4QLI3QPvPrjjz/u+mV8eX9Mztw9cxIIk0Be8Xa3d7Yp8tZVFqYMjz6lkQRU0rVM+zdeYguWtLrFYP/tR8rRu4+X9descxMF+iTQbFeN9m1tdFo2bdEdRnNzq9z14Ifyyz9Nk7c+WCIV1cFC1m5+2E4P7+Kzu+iiMMH6MuEcQLuptV1UaZfCklJRUkkuOHRtOXD72q5FY0WXuv4cspk47j333NMBL26AAB3ghFcJXDSUiVElUCNwvrNmzXKUCkD33HPPOYMlHiB4i6Ad47LH9Rxoq/iIw0lDQfC9eZXARaO5MuYAeXYAm2yyiTvHtGM0aYAbl0UDbjRlNGGA07w8DKB//etfOyplzJgxDnzt82OPPVZ++9vfOq6chQXghhrhejh28yNnQTLghgc3uoZdwEEHHeRk85///MctDDmNuz9Hau7eocBdvetdnYUKKq3KY0N39BZI0wGLIJUm1bKXLWmRsUMr5MCdx8qJe43Xwa88cVeQSpdK2q+ap/HxJgifE+WzR1+cJZfdM00efXmectNqkK3S9qlynL77iBpKYQsYnze1tklNWYGMGD5C8ovqpDWvQo7eqUwO3rZC5aBeOmrQXFmHD9zw2min+GjDS2NsNC0S4MWrBCMjhssdd9zRGSsfe+wxGTFihANSQBUuGuD2PU/QYKETuMftt98u8+bNcwB4zz33OG2aBQEvDdN06TvAzeJhGrcBt69xw71zwKOfccYZDpRN46YtLDzXXXedA268XdC42R3wORr3rbfeKuutt5489dRTTvsGuDlYiFhgzBVxyy23dNcC3HiwMF7M/xzgfuKJJ9zCkAPulTVqc8/xJZBXu+vdGvjYbWzsiy27DwwBnSJSrAC+sLFNJ3qbbDK+Rk7efy3ZbYtRqYWCP0zT74s2hL1mA3B7xqy5jXLBne/In9UAuUAXl+pqNcjCl+qiYt4i6cbHTPfOBNqch2w7Otpk3JAaKa0eKR0FldLSrtF/LW1yyu41csj2Vc74C02zso5MwA03jWsgwG3gBeiiYQLc8MZwxUQw4qkBkMMVQ5VAZ/z3v/915+y2226f6gYcOgsEhkUMnT5wE+SDxu0Dt2ncRpX4Gvc666zjgnB4DsBrbnz+Q03jhvpBo7cD/hoOHQ4eDd6oEsYCbov+omUaNxz5tttu625hVAka+b/+9S+3e8hRJStr1OaeswJwV3/trs7+AsxMdAG0xOKmdilRsNrhSw3y46M2kHVGV6UAvL9Auxuw3RIhzQqcN2lQ0aXqk/3JEnXvU1e98uICtwtIGWTTvEWiAJvv/P6SKqBDfSgH11RqgMkoae4sl8489UUmuEmf0KzgfeLXquXQHSpXKXCbHzfADbj6wI3hcf/993dUyR133CFf+cpXnNYM+KKpopUChNAPHBj79tprL/nZz37mZAHIoiFfdNFFjlPm/L///e+OBiFyEi3d17jRoH/5y18KHi7//ve/HVXC89Cq+Tef47L385//3D0PjRfaAyAF5HkWGjV+2ywwXAcl841vfMNRJrSLhYZ74JZoVAn3YjGi7xaWj3GSdAAYSuHwMVjSNhYo7AHsMggcymncOUBdFRLIq1GNe2U92IANTwu0zGXN6rWiNMopk8fJsXuvLQ1qHHWwata/PmyYBYe0tHbIE2qIveDGl+XZ1xZKsQbQlHflHME9z56fxHC6opYdLAj0Sxl8zeNSIkMH1Uv1oGGyrEWDU1yofLCzwbuyWb1vTt4VjXvlA7fvyYJxkpB3gBuOGhrAvDPQho844ggH3GixgDJ0BlQELnLQD/hVcz4gzOdw5QAsPtAApx14g2B4xIf6n//8p/PWwB0QcMYoyIEHCu3BCMk5gDGgyw6AUHY0Za4hihLwh2pB4+UAvHFlxMUP0D3vvPMcdYNPuS3auAJybxYb2s5CA00E1cJi5GvcBtwYOznoIwcukPDruBGuCo+gPpwSuVutxhJYKcAd0CXdEYOBhm+ucO2qgZfKt3acIL/+3hrqD97hfKX7+rBJ9uJb82Wb4x9Vi1mReosUuARZKTeRhA9Np4KwDWBsbVMQKStRL5SaehmiWnZjW5FOeDWeOR92+gtwayIlNG7lz0/atXqVALfffsAZLRIPCQAXQLPtP7y0GR7xzyaUHL74H//4h6NPCEGH98bfmfugUcN9o6nzPZQGgA5gcm+4aw6iGeGP+Q5t1rxN0L75IVAGegLQxYhIe3EbRNO1AwqEczmHNqMRo3HDX1vkI8BPQiv6QRtoP/lO7ACsuQ+gj2aPcTJd48b9D9oE7xr6TmqA7bffPrUY9IeSkXAY5k77HEsgrz+pEuSazv3C5LbixZHXrgE+lVJVPUjaCmtlownVct0UPCz6x1BnWtfU1+fJrmc8pYaogiAwCNcXMtJpu2xxiZqM6fQPoN2su4YSTdNRXl6mGuhwKS2v08VI+5iPlh0AtR8tCe+9KoG7p+M93T6Q7X36QkOlDXH0BN8bAKe30bxQMr1jP5eJGSfZJbDr8A//Hkl2ZtnKKXd+TgJxEnAadzq4xl0U932YdwWA1abIXF+l9ETlYM1/oqHxhaUyf2mrbDOpRK4+qsH5eQfpUvv2sDYB3Dv98EkpLw0yxXHEaU1h/QH4W3Ub36D9GToUw2OtaF491eLVt9hFR67oq2734TqNURoQGjdgZTRSpux5RkWYyx19sM+QXXoqVtNa/ax8JmNL4GTP5HPzCOFvvy187j/LP8+A2UDcf4/WB+5neU5sJHGe/316O6wNPAuqhF0BfDpatxls/XvkQLtv52jubsklkFey0287S4uCAJM4AIu7bTqFYEZPtFlohAKdOKNHDJXKqiHqIlikTHCBftYmi5d3yhbrlsm1U5QvVe63P1zjfODeGeBWjTsOtMP6w3XsGkoL2pXHrpPiKlz81FtEaZ68vC4t2zEwgR5vh2mcGC2bWvPkhK9VyWHOONk/u4y499WT79N3HJkM2+nnmJz7YowlbXNP2mBADnWCIfbNN990/D+cugX6rIq+JO1z7rzPjwTyNjjo3s7/zVZDkwbDmJWyNwAexKp0GeHgdJ2prlOGVJbI4BFrSXOHWu470UTxrkBj03Soyztkq3VL5ZqjBhZwu564fCJmVAy26bR9REOt1A4aKcvbS9RbRGXXlY8l5ZOewcBqYIIBs1nvc8MRg2TjiWWqGVJgoO93GZ+fYdw3PfVpGLj1iooKx+Pj3x23yPdNC3J3yUkgmQTyrrrrv53H//JlTU9aIi1KU/Q0z7Dxn/ZYFxmZr9qzGo7GDtdE+QSdtANOQaIPFwaukFigWuki1bi3HIDAHQAtvtiBYVE33zK4rlpqquulRGmeZc1ujepaqFyvIsPgTTYtCtzrjyqS3xw3SP234zX/ZK8yd1Z/SWBl7hT6qw+5+362JJD34hsfdW578qMKSQqihkMOWLMPCLEBDu9bWV6ki8EQKS5XLTqvTMuaqRsF3hWqbVtuE0QJF7ywsUOBu0SpEjju/qVKnnttruz8w6ekojweMIPFiNwt7erpUiCj1N2srHa4uvdpZRVCrVOp/dDMA9NmlIeKUSUL1Y/93L2qZN+ta3IuZQNsPvWEYhlgXcg153Mggbz58xZ0nnb9q3L9X9+TwYNKlHvtmdbdDdrtMqS2QuobRklTfq2qqlqJpEvFDhI0rcj7An6LlCpB4776SPUwUb63UDG1JwtH1PtCY4aWAbi/evpTiThu7geNUVFWImuMHS+NnRXS1KLJqHQn4bxFsrALuHP1fiTfKld39d+fUqd+691FAPq6v5+DsZvrYk4Cn1sJuLSuj700W/Y95xnJ1wxIWjLBUQMB1ibXup37lZ7fqIEKG645QpqKxijoUeYJNiEoJJyujQJmADcc95YTS+XXRzek/LizAcW4t+fTOM+/OV92OhXjZOBVEuf6h1GqXv2HR45ZVyvbqC3A+Zhnl9nQuNMi5bE/XNwuR29XKadN1kWNHU4W4B/Xz6TfmzzSk4klub4/omzTabYk7bDx6fcl6XW583ISWN0l4CrgLG9qlYMvmCr/mjpbGlTrbu6B1m0A1KTAPWncEOkoHiNtMfQBYE+GwEVNHUpDFMpvj6uX2ipVtxXjrbhDbwVs7SIEnVzgP7vlNfmZhrlXa6rWJIsTwF2rOTZGjZkoi5e1drmTrbhriGqjv/UmmddiLXd2/ZRBsslagcHLLV5pxXZ72+f+un5VLDL91ZfcfXMSWJ0lkDd/wcJOwPPG+96VH1z3spbkKpG8rgIKSYDNOh9oz5o8SYF7vfFDpR3gJk9TGjXiCytl/CN3t5b6OnPPGvnWNhXKc1PTsiuFahZaf9iLcD7Fep+Fi5tki5OfkDnzmzTCMfATjttVANx1mgMa4F6oJdqCZFDJdyK0Cf91KgnNXdYhu36hRM4/oE5D4ruplrg29PUA87VUIhyff/55F1mI33NYYArRiKRmtcWmr9psbTH+H28OIisJvTf/cr//PJdQ+rXXXtslvbJ32Fft6WtZ5+6Xk0B/SCBvgQI32u37Hy2Vvc57Tt6btUxqKsjNnR3X3RPgdqCmoIrf9uwlnfKVCfnyG+W5i0q1Yk4fad20C/c7gnpu+du7ctINr2tObK1PSMEIfXactusD9yIF7mzd9gyYNIeVvDe3Qy49rE723YxUrhRWyI6O6qsBQJus7yRv2mOPPWJvTVg5oeyEnRug9hVYWiQiiZ7IZUJCqLiDFLRkLrTiCX3Vlrjn5r7PSaC3EshkADc6NT0ILuxZjippJ62ogtnxv/yv3Hz/DKUrirvc35IDS0+A20ANTb3NJS8RufCgOtnuC5oX2XJ1o9/2UOsOhBH4YreoGr//+c/LIy9/IrVaSi1w74u/d2+A216Go4OaO2R8Q4Fcc2S9jGzQ4KMu6iaJ1t/bgZLpegNu8nh885vfdDlJLOox0/lEE5K0iSRSYeHkPWmnW1h1V0PQC4vIoYce6pJHZeLf7TNyjvzxj390hQwAfa7NHTkJDEQJpIO0YYJhn31vkclJ++CMk22UE9Ot/NRX58jeP31eU552SGlxvgOXOI3UHuQDNxx3e4kaJzviXeRs643WPWthuxy4VaWcOblGy5zpN33A/1rSqgeemimHXfqiBsvkuWCjJH0D8DGwQpWMHL2O47h7onFT9X36vHY5cqcq+dHe1c5zxuJterooJX3Bmc7zjYGAJpVpyOwHAPLvsIPQ78suuywVRdgXbfejFUm7yk/YAmLATcpWChwYtRNnZO6NrHLX5iTQUwn4SpmlXwhTMjgXipAdLYFfcQqd07hNK4WLnXzmE/Koel7UlKlWGoRBJtJ43YP03OVtrbL++GEacINxMprjNtDmN94lahMVrRYmV32nTiaN0YhCFo6E+UTShetWtgD7nX/19656SW57YLp6iGjaUhrWdYSBT2B+1FwkqqkD3KPHrisLtdACO5Mkh7+bIDyeJFQXHVwnm2mkJLuJ/sjHkqRddo6fUInCuVRzj/MymTRpkitAAP/cF9yyaR88lzJo5M6mykzUAoLmTz5t0sL6+UOy6Xvu3JwEVpYE0gGYotpkmpw7d64r3kGxEtImkymT7JMkNSPDZVyBDqdxc3OrAXn7/e/K9655zRnvgkRJyQ63fVbviOUtrbL2qHqRyvErVEOPuwv5O6gsP2N+u5y+R7VM+WpVF82RvdeFCSsoAJwvL789X/Y+71n1F9fq87qT4POonUSwCLlwGkV+TYo1qEGq6tdQoGjR64LAnSSH8ffzlmpa0okaYKQh/axD7ifhgpjkOT05x71z8scoEDJ4vvWtb7nfURQFBsq77rrLpTk10OzJs/1rjN8mRevkyZPlo48+ilxAqDn517/+1Rkm+5Ky6W0/ctfnJJAuAZtjKCLkmafgCDYZqEAKcPO3n7Oe1AooLqRQjptfDrgdPnVp103qrrb+oQ/KUt3P+8me4rbFPmeDsXPdCWvJ4rZK9eBOOYWHvlm7FocNrS0sY+sK5NYT66VGoxvN/Tvu+ZmExo4Bjf3CO96Un934uuZKqZQmzadq94r04SYZK5pycZGMGj1BWjrK9F7RkZF+G2wHApXeqBr+KbtptRstU4bR16rJr+qhblQDbUXbvffee2PpEgopUM/Rii30tA/2zg18KWpAVZo4uobcIfDxjprrcqPMdmz0tM2563ISyEYCjG3mGMU4mDMUI8l0WNZMio0wB6nlmljjZvCbweqCm1+VC//4rtRq2HoSLtgaY5pui/Kkawyvl8LqNQPOVCdYEt3d/LrnLG2Xyw6skN02pSI8i0pyrt0WIQPtT+Ytl8lnPy1vzGpUGkZLk7liBuGt8flfoiZHDqmTmiETZNlygomS0SRBG6B5tFCy8j9D6/LltuOHSF2li0bqMx/1bAZRpoWNz6zALtwyKUzpYyae23jnrbfeWv785z+vsPj1FDhtvPG873//+874ySD208amt9uKBMcN7N7IJndtTgJ9IQFf40bhueqqqxyIM+d8nLFnwW8ztxIDt69x8/fr7y2Wzb/7qBY5KNSIx+4uJAU8pw3pBJy41nqypLkgyOkRxL3Hat1gamNrp3xpbIlcd2x94M/tFN0k0B/cPsgFTVSkyF+fnCkHnfGMDBldoTSO5hdRYIoj/lNUiaZoHT9qtLQWDnY7B8d7J2hHcH/QW8P5tTzb/puWyln71zuKBuom7vl9MWiS3sO2ZPhyQ5dQ7TyKLlljjTUcXTJx4sTY7VxUG5CBATeVcig8DPcXxbPzHdV3qELTFxx7UhnlzstJoCcS8IGbgtk+cGe6X4+A28CbyYF74Ld++qw8+PwnUqVadxwnbI2wyeRKdGn1l5FDR2iJsFEKetTrI8Q8PuIwMFgF+a5vVOD+wjhNm9rFUCQFTbdE4GKoQHmw9uOB52e7fqBBg6ihBknPGMuuYfSQWimtUe+YzuIgZD8B528ysJ1ChyrZN2ko/6QxWmAhi370ZKBke40ZB/kN50Z9xzi3QBY+iuYeeOCBvTIOWqEF3sUTTzzhfMlZRDJpItYvSpwB7hhH7R1n2+fc+TkJrCwJrDTg9jXV+5+ZJfud9ZTUDS5VwOvuahx4BhMP2qVdawBWaiFYdaPTkHbCvV0GvQjFOaWJ6j3Qurdfr1Qu+7ZqqvDCarhMoqkaYNLOV6Ytku20vmRZjRZ8DbLJxmrM3XRPqwwbOkbKq4ehwjv1OS8hVWL89jLtw9brlMgV36l3hl6Xg1zpk4F00FYMJBTKPeqoo5w2Hab1Go0xZcoUufjii1eIbIwbF+l9NoDmuiuvvNIVIY7yI+d6/M0pBsyRJHhqIMk515bPnwRWGnAH29cgi97Hc5fL3grcb37cqFy3RlLGeGKYxh4YjfL0fDXsFSrVMHKsJpwaphpriwJCivcIfYvuehc6r14mWl7s9yc0aNECBd6u+0a9/m6NP+DET7nqRbn+nx9IbWU8V+8DSbs+q7I4T2qGTlQDrYZeO8CNTkjlt8t5kygl8oEmlLr2sArZ5cvK1QP9WXL1K2uoW3WXhx9+WA455BBXST3TYcBN0d8777xTy7VpaoMuz5Rs22rAy/XtxEsAACAASURBVKIBb45XSdhhC8nNN9/sKs3bWPNtDt07HY/b67phmBafvtjYc7JdhMLanU2b+rst2b6fTG0Pk09UP+1dpT9/IPU37j35bbW/kymRQXAZvHa/UiUmZDPsXXT32/LTm7Tq9uAyl7XPjjiuOwDvfE1W1aqpYmtk+PAJmlyJognJNF73HD2XgrvHammv43av1oUgSPcapLwOV9tdRKR+PVND9zc94TGnpftujXFtd+1Wf8oRWvyhsnakC5axij5xgz8AiGDh0TKaskZ9gdx2YoNUlFpelPj+xz2jr783ugS54GO66aabCqHnUVo3oIvvN4EwBtzZgp2BKVXWqeAeddiiSTV6oiXTc5j4lI+/wCZZbM2f3SZiugE6237ZHDL5BcpQMHfiouP8fiQBBpOZzTfffmP9ipJrphqj/vnWbvN68J/nj49M8k8ie/86N+W7lKMkC6gPttbOTH3NFEKeDtRh4yddMfDfo99GX+nz37evcbOjhGKM8prK2qsk/YWYEe31aQtkT/V/nr+kTSo0KVK2XDceHNSUHD5svBRVaMZApU+S+C877xKlRuZrUqYJw/Lkdq0UU6mlzwIQzkw1mPAsfP/SO9+Qc+9+R6pKClNBPFGakQ0cdhZkDmwYOkE6Cyt0T65tTmDQ9GWIG+V7Gin5oz0qZcouNT32R+9rkI66nxkpSSQFzx12mFX8xz/+sZx88sk9ylviLxZ33HGHC6YJO4w+2XXXXeWmm25K8dv+BPELCaffZ/ny5a6NjY2Nqa+4Jzw5P+mgZB41dk9/Usa9D1+zt4hQ5JV+YE+gPeY9g/8uE9q4+7jn9Mf36UDodo1dbWdXRPtsYeD51nYALF2G1j5kyQ995beBHbQcfSb/TfqBxwX385/Vk8Uzk4z89+OPn7BoRtqMEkd7/HdjO9QkC4y147zzzpNLLrkk5VWSqX319fXywAMPuARqcUfKj9sHnqCDgXvg8RpxePuD77vSZtAfBnBRIOh3qKVFgVuNfFWDxmll80KtshMYCMPI7u6Jok/Qxy1XH+gz96qTfbYod3QNXHlYG4yjX9rYIrud+Yy8Mn2hVKtRMklekmDgaih8e7MMHjxcquvUm0SfzeOSeJOsMMG5l/537TG1sr5GgEK19DQCNO4F9sX3PpCiScN1xwEp2jZASlZB04CzmWCmqWOUJBoz7DANhVB7Qu59rccfszNmzHA7BaLRyHgIYDPp8FjhN5Fqdi33xII/WCsa8YOmQ1QoOVBGjRrlbsvkjNOQ/Tb7wGfbY76nHewqMKq+++67Lvhizpw5rq0AOAdtwPA6YsQIJ8911llHRo8eHQqI/nNpI8DITmTIEJSjgCZk9/T++++7e/iAxbX8G+DEQwhZWNt5Jz5gz5w5U/70pz+5748++mh3bibbAv3BG4nf9JHfyJw8OPSff9NG2uLSJGsQVUNDg/upqqqSCRMmuB8Ay+p7+gEomXYf9hm0Hs9MH3tOydPnjR8/PhVCTt8zLai8hw8++MCNFd7VggUL3Hm0Gzmy0CBb3ss222zjZG2BY/7Og795v8jdDs5jgSIp2m233RapcRPghlaOLGyhC5sXnwJue7FBWHaB/PnRD+WYX/xXOhTUipWqIMIybhvkgxh1LOurCmX4yIlaWJdQaUqYZS6s4DcyGED58smidtllw1INFx+kAgBFPx1Jac9rU6At1GvueuA9OeHXr7oXR7BLnCHLBgGV6EtUyEOHr6lV2wNtO6kPug2KEn3+B5pzZe9NiuSCAxqcDAcqt50OPPybQQd1EcZz26LJYEYzHzNmTFYRjLZIcB+escEGG7jBHjpAuzQ6AGSrrbZKUTNEWL7wwgtCGlgmHGHDfKYpHJyfbLYH+SEADvqOds+z7J1m4jjt/pm2yYw78k7Q5scee0xefPFFt6AkPdB0AXMfVDNdy7MBBfp80UUXyT777OMAk3dDIMcZZ5yRukf63GKBIAIVQDLt0zRPsjPed9998s9//tOl/AWs/vKXv6Q0ZoCOc3j/tijRXxZHUhdkeyAvFi1CvVEI9ttvv1Sa4bBseTanX3rpJefGmv6Ogl17oct9w/u0LJJGf9BWxg9Kw/Tp02XatGlu/GhAYmTzGa8Eqx1xxBErpEG252EnOuWUU1Jj0BYQnkdYe9RBH7Abod2HpVjmfry7jMDNzQm84UaNqr3upDUaX5+xWOoq1Hk8gZHSH9TcA9e6CaOGSl45nHFeoMXCZ4X0wte6oayLtFTYRQfXyubrVjiXPiuy4L+slEeMduygnz0nf316lgyqLnbpUw1swoSWAm4NaS+vqpdhw9dWMGLyd7Uxxnc71V73IK3o09gpPz+wRr7+lXLX31WZUCrpJLKJwO+vf/3r8vjjj4deavQFBkomhckvicZtIMFkxQ1w3333DR3Q9pyvfOUrAqUCyDABASv+zQTJBBRMWGuLv1Ckd8gUEM7xg454Dn7l8JK+FptJ87N7+soB2hWG1DfffDP1SPpilEKmNvnKUE8WHqLyADBAlYmPfNCSow6Al8XKZEV7WQCeffbZlNaILElx8Lvf/S6lDaNJ896mTp36qdsbzcEXNi/SNX6bj/bc9P4S8o0xb6eddlphN+fL3/4GuG2RzdTXY489Vi688EL3Fdc8+OCDbsECtFFS0pWG9Pb7Y9t2JLT7+OOPl5/85CcpgLUISe5/wAEHpHZTSedfNucRQxGqcXMjy2N9yR2vy3l3T5MqNbIZ2MZNUh98oVjqNMf3yLHrSaMG5Di3uO6onNA2p/KXLGiXKdtXyOl71Srgr1g1JhCs+n27IsP58tgLs2T/n7/g2l6m2m82vDykSJ3WyqzWgsDtmiwrm0hJt0NQhJ6jvPwXxhbL9ZpXvLpSiSFyuBhyZ/N2VvK5vsHvV7/6ldPW/G2g3xz7nBB1Ej4ZECWVl4XLn3rqqXLttdeG9tRoEiYfmhPPsTSuDz30kBx88MFOw6Q9tgX2ASMbEXIPa7/xt1AJf//73502aMCcDh72DK6HFjjttNPk1ltvTQEOQOC3LUmb4na0/j1YxJAnckRTNY0boIXyCnuH3MOCmdj5ANiAPfQAh2m6yIL+I++RI0emuO1ddtlFnnnmGbeIWua7qEUyqt/WXz9qlx3Q+eef7zTbTLSVvYeXX35Ztt122xQNZs8xDyh2C/QL7pgxBP3ja75my+AdJWm/H9kL9QHVh/zpA+MVDZ7UxGjuvuyT3Dt9QUuXmd0PpSJU4+Yi89D4UD00djjxP7JQE0iVqbEvuzD4gM5GMGNHj5HO4sGKj8pz4/wREdBiwM8pGm0uteoaeOvxWvtRXQPTA1mcFgeFosvKyVrF54Z739WtZpkW9u2u6BK10ARC1VS2ZZUybOQk7R8FjjGCxlfI8bUJaBmone/sWCmnajUfpfcdvZSEI08yofvzHBtYyAnvje233969s0zakj854AbZukVpo3a+PcO07h133NHRCFHgAjCQx2S33XZbYYKwRUeziYu27InMfG0dXhO6A/rBAM2/pz8hWciYzHaeceo9aUPcNaa92zuCG8WV0zRu/PHjgBuwJvcL6QagCvz+pbed3RE0ge14jjvuuFRf49qa7fe20+I9oERQMMMWextnvsYNOIfJmnvw7ljQupXJwLU3KZimt98UCtxYSRxVXa1ebwrejFWoEhQKFsOocZ2tTPzzWcxCgdsEAzWBxnj0xVPl7ic+kkoF7iCgPN61zRcyf1eXl0rDCA2V1jzd3aAYHcruNFnVpGepT/Q5e5XKgdtp5kFXrDcwwgQgEPDeb7+/UL557rMyc1GrVCgfHgRKxofKB8ZL1bbrRzptu6Mju7wkTqsmM6IG3NRXdco1R9TKmiPLXbtWB23bB1bkxaDDX5otc9zg+9e//iVQGf6WMmpQmkWeLS4BNWEh9jZ52RaiPY4dO3YFwyScIdfDwUYF7mR6/1GLkd926zuUzNlnn53RZ5178XwMtSeccEKi+ehr91zgL2iJbuCdhJEV4yp5ZnbeeeeUxp0kVS8GUd/bJupdG3ADUAAXOy2AP+rojexNs1133XVdUJgZBI2H9zVuADTJIhk3lrORvY05dldo3RbE1p/Abe0/88wzozXuYEAFGvNzr8+VHU99Srf/Wm2ECMgsAwBdGLyGvK+/1poyv6VGvUO6wt9jIimdFgDXrn7ka6i2favzi9atceCu7YyVSrw4Hvk3970nJ1/8ogwdWymNTQH4JtME1ZBRVCpDhk2QgkJclOJ5cR/sAk1FLcqN7bLD+mWaTzzIS2L+40kWj2wGTX+c64MZkwD+Dk+OuGx9F1xwgaB9BZRQdMpbnmEDHE3KwDDTpLOJsf/++7siD37RBKNLAG7L321Ujw1uftsWPl1e5i0S9r2db22AMsFYh8eJH3Bkz4QnxaiJcStqUfDph0zvEKOk8ahx7xjeGU8YwBqjnnnDmEacBLh5RlIw+9vf/ua4ZPP2wPCKlw/Ps4XIKA/bBWR6r5xjni5RycRoGxos92cssihmcsODKkkK3HEyzeZ7c4v1F3Wr4nT44Yc7g3H6WEyyuES5ttp4JEVsJFVi2gANAIh2OOlRee3DZVKu3LGF4yQBpWAw6z1Ukx1cVyNDRqwry9TomafUQpC+JForDsCXgJwO+ZWGwG+9fneuCgsWwgVwT430/O+7ixXYlc5JkJeke9B2Sk3dSP3pmbbtuDnl1OnKRQfWyTZfINpSA4YS5DbJZrD097k24Rg8cLvkIzFaI+zZaNt4H/jjIEzT8rembCcBw6iFge8IrceKb4DBPczdjsmMxhO15eUeuJjZosKWGS7ajjjgMqMi4OEXb+B6A3GonJNOOikyq6H/HLRkNEhbQGgPoI/RLymYGjVi/TAO3iiFpMCdZEzRdsACKsb6jAsedBquc2GLFbIH4KzwM+f5XhtJZM81LE7prqcmp74Eblt4klAoBqLk90GxMDdG5g1G4v48EgG3b7S69f735HtXvqw+sOrT3VVMOIlGGwyqAPzzVTWeuOZEWdJWLoV57aq8R6d87R4UedKsz9x0QrFcc/TglPHHPV+B899TP5E9Tv2P1A0rV8NioI7HLSrW9g4tTzZi7PoKIiwI2WvbvCSMo2Ma8uTu76sbV4Hy8G4fkDxMvj9fdNJ7G0gzKOGO8RyguEIUFcF2G5c8tFLfsyLTM23SY82Hn2bSZbq3TWiMYn/4wx+cRukDt/GJgBdGVAxZ8K8UV4BS4d/cA1dFtDY4SJvoXIvPNy5geMXg8x112MLCQsMuwdea+JvvmbzUywwDItv2f/GLX3TeCPDKBFuYBk6bADS8NKCF/vOf/8RqwptttpnbbZg/sd0rW4076dig3RgL7T3g3sh74Xlo+yzg7ACgbeCUrQQX4wNQs3nM4oT75lNPPeUW3biDfnE/KAjubzu7nlAlcc/K5nt71/QdxcV2PLilWl57G9uMRz6DboqaS8jpsMMOcz786X7cRslhw8DbJpHGbUL6YHaTbHacBksozVEAue+U5XgO2V4aine+pkodNWyYlNaOUTpDo6TgXBJkDQRQCT+nLuwNR9fLxNElXUARuOwdev4zcu+zszXntWYzdCXPorkc1yf9r0W9RwYNGiG1DZrJEJeVBAZJ/wWbbJZoAYqTv1Yth2tdSSKcEUsS2WQzWFbGubZQM3CgQOAXo7RigBEAxaMhKvwdORnFAeBgeUfTzAR29hluYUxYG7T+VpwJgO8wQEAgBwZSJkhYFFwm2cGTX3rppQ6Qww6baFATAA3+1QbetIcADYysGPcyTUoDbbRTtEaALepAgyUilQXL92BIvwZAZLHAeGrycQqELgJouT3VuNPfB21gHADcvmsk7478MixAAA6Lo2mdScYp7QTIoLssECnTdTb2kAdy9pUD2pqNxu2PH/9Z9BG3SO6PTYVxxZiI8+k2WZlbpf8e0vsCLXjFFVdERk6y2LELXX/99SNF6DDHKuBEnZniD/Wkc256TS6/6x3NX1KquUgCCiMJQBnAtap7UWVZkeYCWVOapVKBW7Vul/I1vAUG/DAPSzW/9Q7rF7usga1t6oKjtOorGpq/1fcel0qXBTDIFRK3qATtoWiA5iUZs54mtNIIQG2bvdwkg8/fIlKK8nc/GCLDajUSTbXtuIUjyf1X9jnWH6MizC2QyRPlW2xZ+3wOMn1xs+0n8sWvlp+oBYHz8KPG48GvthO3w+tWErDPfDrhFO2y8Wruf+RneeONNzKK2+e5KVBMVJtxs7QfjxMWIaM5/Jv4WhlV6QEF+mLacbqMnCFeQZfdDgshftVhGhrnQdHsvvvuK/DuPQVu2mqRjbSLxRC3M4yQRDomPQwrougGnmWyxysjScoD47lph2/PSArc/iLIoscCjAEeGmajjTZyOzN/0WdXsMkmm0SCt41fdpyArW//sP6bsoJfOhRH1JgHuLEdRBVSsLEbC9w2+M1D4vGX58g+Zz0p+Qq+qvx2TY5oSsAmm+uM03PbZNiwMVJaOVzBtyXIPxLDdbttqZ63RCvQ1+nO9y7NXzK0vswB/hm/fkl++fcZWuCY8PYE9SS7VgkquFdU1sqgweNd4QcMnUkWIQaPvRgKI3yiFXsO/L9K+fF+mpfEG+FJ75V0Uqys82w7/OqrrwrGQaiNKEoDyz9+soTsmvzT+26DGo0S9y4CfOK2jQRKsAVPz0C4wnjqAucoWRuApmuTNqkImKGyTqbDrkHbvOeee1KTijYwCZloBLr4vLndx/pH4QfkA78OQPjt8Nvm2xgw/EGbRGndLH6AnvWD5/YEuP33AD1FABb2A9v+23j3ZewvkP5iGCXD9IWK+zG2ttxyS2fMi7rWAl7SZZcUuLk3uwPoKtw2t9tuu4xz3ccPxgRjI9OukPsZCEP7QBv5tLLJLBvgZjeWdQWcOFCwRjUpvfHty16Qvz31iTRoZCK8s62eUfewF40QmrVy+uDaShkxck3NoqdeHFqQNy5PdUBt6IHWrVkDv/u1KjlSaYmZc5bLLmc8LbPmLZWyYrTd4IiayDbxSXo1WDMXVlaS85tCwMm8UKyfbvLqmrOopVOuPaJONp9Y3rWQZV/gOE7+K+t7W5D4DX8JF03wRdy2He0P7cXP0+HLySYEftt77rlnaqKGacUACAuH76li79QHbv9dx2njfnt8MIJ/hFuMOqBhoB/wYGAyWg4KwBzwtEAgvz8GiAATXhnmUZOpnXadLVLwyRhmw0CDthrv7u9IsgVue6+0FV95aiMCbhzWFn/upsve5J9U9iZ3kzWRrxjzHn300Yx9NRnik477oT+vk1AlNqfZVeFGh883h093+e/d7ys0Ibnnww6TnQ/cPhZyLx+4+60CTlgDU4NKaQg0zFv+oblArnlJKitKJE8/SwKW/qRB4B3trTJm9DgpLB+iWgLh9V3ufRGcidtK6vPnaXTil8YVyG9PHCbX3vu2/PCmN6RCk0m5QR6hcfsvpVU53JLSChk6TBPtFAV8eVKaxO6D18g89XTZbFyxugDWSqW2wX/GygLbvn6OgTZGoXPOOUcuv/zyUACxiQV44UtsdIk/oU0mnAtP/N3vfjfWzRAgpcAC1yZRDHoiAwMmOHeoiUyLiAEnyZAAbkDYXPagKwBuIjvhacNAFiqFbbLlywhTKhiD3Jv7AlKAd6bDnsNCyfPNIMm52QI317DNh1cn1wlHejbA/tg5GtAjN+RDFGemHZh9RtAJ2fXMldDGV5zGbW572BcmT57s3hOasrndpS84/vylTYyLbDTuAQXcNngsT8jHcxpl7x8/K298uMQZA83DJG7ypISiJ6KpD60pkZrB60h7noIu0ZQRFWa6BeoYDRfcctbeFXL9fa/KIy/Ol9oqpUkSbJv9yVkzCBfAoQ7sbSDE9cG+Z5KVqlvktLntcu43q+TwbZUmcERQ/wFN0rb1xXkGwHg4QG1AcWQ6TOtg6wmwAfbpYGsyBxAAObjiKJqE50ATkHDIjv4AD9sFwFGScyXM75j29wa4cRU899xzV+DqM8mS5/jFmwnRjtK40ZDxjOmNxg1Y0zY8Gei/ecrQvmy06GzHnN0biolFGpDM1FcbJ1BHALdp0EmB2+gMDOjsHjlsF5dpTPnAjaGQa1Zr4F5R686TH133qlz11/9JTaVm/HORh1kYKfVccj9VaRj7kCGjpK1wUBfHHX+PoHq65oVoy5faQk1dOXO6LGnskGLlLCyCMmwQ2WBpU267oKhMcy+srQE3QdpXS1wVNwBT2iOh+JqHanBVvlyteUnWGEHOhtUr6CZKTiYroigB5TC3QBvUUBvkhMATxPcu8ScCUZJ4Z1g+jChZ4ycMJxmncWfautszM2nQ/jPt2qeffjqVLCusTXitsDBZhkIzJCbRuC2nS5zGTXuMaoK/Jrgp02Eyx3hIm3oD3NAx0AFooiy66RxykvngX5Ot7KGYCFjpL+A2jRuuGgXE3CfDFAF/vEJvWebBTGMpE8c9IDVuSJEAnPJlqkZS7vPT52W5RiiWapEFChgk3dK6yajg26Rc99ih1VJat5Zz9XO+IBFufCnhYeTMK5Tijnnywcz3tHo7wS5BbpGoBcSuh9uu1CyA8Nvtym0bv55Uq2PxYKGYMb9dDtmmWM7bb5CG1wfV7JPeI25CrOrvfe3PcmaHaR6mdVvObN+7xOcSCY9Hwwu7j32OXzTZ9ZKkNbVr7DmZPDbiZAnvzuIUp3GzC2DhoX/IJ44qsbZh7Lv99ttT2nRYe4wqscCjMKrErjeNu6dUCe3jGbj7GUWTVMv2F0z+NqoxLno2U9/RatFuo6iSnmrcBtzXXHONCyj7XAK3bZ9IMlWoXhh7/OhpeeTl2VKr6V6TFCvwt1/dGnyHrD9xknqLlCbiud094NUV4Mtkgcz48D1Zpjxzsct7HeMVwgBT0C3UsPahmh+8QANlsvHb7l6Nu5YIlcP5B9TJDhtWOLqInCqxbYhDkQH0vWnOuLJhHAIgMh2meaA5Ad6+kdfkAUicfvrpkT7TtgDghojhjWvDNG67r4Wt+65ceCiwU/DzcGRqt90bIyhtzwTcdh0+yhirAPhsjZOEw8Ojm1dJJuUiNR+U46YvGAlJ1RpFKQFmyLs3GjfufuwI/HvEDUEftNON0YwRaDVkH+VCarLnfLw34oyTOeBe8a3EugNm2lpaHo4/PPy+HHnVy+rNodom4etxb7zre3870qq0xdhhQzQgZ6w0aza/OK3dDRq9T3tngQL3PEeVNKpvN0bLONB0qaTgptUoOWy0ZgHsSt0ad53fLTOQzl3WLpuvXSRXa16SoiLN/0ykpILTZ0njNrlQrQUKJCwRvGmWVBsh4T7Ri75HAt8DWtyD4Iaww949QTecG+Za6IO2aXgkrYLygNIhKpI2ExwTd9A2eFbODzusfzfeeKPbMfiaMf1lUcsUTGTXEdFJdB2AzE+695LfH7s3RjFShEZ58xDUgZ+7Xy0mG+Mk7QO4MRb794iSmQ/atJX2EcgE8LIAki0SFz9kbzKJkittIAozkzsl1/WW485p3GmgCwgS+bjVdx+VD+Y3OfDO1rvENPCSkmIZN26iNLZovu8E3iVBYimAe77TuJMAt9Pe9IEEaQ5VbhuPEn8BiZvg1tZAW9LqLbpYHKPuiMeqWyLpW4vUDfyzAtomC1/jhdsFHMMO07rRzqlbaaBrE50AFzwy/IIF/r1sgkJFYHAj6CPdJ99/X/YdCwH1LwFtv2RUkveZ9BxrmwG3r+XjCgZ3GsbbMybI1YHHDUY4NEzALl1BMR9u5IhmT/Iivy5lelvxB4d+wYBrAMo5/Qnc6fQIfSCABloLuilsR5ZUzpnOywF3ZullpXGna54I9ee3vyY/vft/SpeocS4m+CXT9ZRC69ByZhNGaHWc8tGSr7mwO/W+kdp7FsDdPdiwkpNzW10ARwRhwmHb8LCBZmDRpO6LdZUitxxTJyOHaPpWvW9YEePeDNqBcK1xl/hpEwQRdgBGnIuHwoknnpiSLzLmO+gP/GjD6AjTjKAIiDLzd0HpC6JphywGGNbIH27ambXDQD6JDG0shJ2bSeO2sQMlw0JFzpMoDxAMrbhWxvmL47aGDNFYo+4HdUPIuEVy2s6jP4HblBfrO0UjWMzYTXHwDk2W2cg/iqLKAXcfArf/Ut77aJl88fCHpKa+WH2zA7og0ErjM/4FTSL5VJt6p5TJuLETZf7yfKe9RkZSZgHcNthoD0bJQQ1jpLJaizlkkUzK7mEiXKza9uSNy+W8A2p0sSJ8t6snMX1OAiID6Rz/PeMvG1UiytoNn0tAC8DiUwoErkRp7AZSuArin5wp7wntscUTaoNsdWi8aJ+AeRQA9Eau6Rq3PccWJagSvDviwApwJQKTnBiEUxN6Tb/JiUHuc3KP0C/6HgXa9AX6hfPTXdv6C7htIbX7+14vPVksk76PHHD3IXBzK9PEMBQeo5GUdz7+kQyiJmWCBE/WFBsMbQT2SKuMG6GFZytGSYfmD1HSPFzrTgjc/taa8PbS8ioZMnSCppNVWieLgJvu9oL3nbJU23v7MfXyhTU0fWtXEYWkA3F1Oy+1y1B3MdzPKFwQByoUkrUiwkw8UpailfI707U2OYnYgyaxUmG+h4JpctYetHe0eMvZHCZX3+4QpkzYghB2j0zAHSgCQdQw+UrIe8G/wxaPOJn5z446176jVBneGOl0Un8BN+0zb6G3337bZUQkn0dcv4wSilLkLPdLJvnngLuPgdunGh56/hPZ6/QnNOdHmbRp4ilD3KiX5fNlnNeiZdEaGuo1klHD4JerZV2NnakYd6/t7jr9d3snXiVw3NPVHTDcOBmcn6cLSpvUDx6j+TSGuEAd7hG3K/AXGP5GoV6m/dtwdJFcf6xWnSfDVdeR9F6rG3D7ix8BEOedd16op4NPKRClZpQG+RegNMIMUGaAMy8JUwoCmXfv3EwLBzBIORuWFtZkHGXYy+Y9hGnc1l++x2hpecnjNO9sV7F7CwAAGp1JREFUnu2fa+0g0pHcJ37JOJNTfwE3fbLgIPMOivJ4sQWzt7ugHHD3MXAHWncQuLJgUbPscfaT8vr0JRoG34NISp2bFBSuVH/wkaMmSFtBtWrdavEjV7fHuKTAHs1GjZMV+Qtl+gfT1B2w04Gor334gNOmW8+y8krVttdURV5Lr3VpSj6PGjeZ3LZY+zpbw+3Pn1wu39y67lPaTtw9VsfvbeIxEUkMtffee7sJHAVOgOr111/vgBuNmHB4jFhR2hkgS9pLP1m/D9o+TQJo4ZNr/tRRcoWOgJ4A5Cxc2u7LPeFl4anRIrPVuE3r5jp2E0Rf4tESBWg9HQN2z6FDhzpZWrm49MWtv4DbFlP4bBKP4fmTZGEkURW0GT/2/v33yt/ksA7zWMoBdx8DdzBxMfAFHO+v/zJdfnD1SzJIuW5lJbL2MCEgp0UDctYcPViKq0bLspZ8V96Mx/gv3DRu3aRKXtPHMmv2x6IxQK7aTDoQB//OV21+udaTHOU07nbVvM1xMYmW7C8ALcrh15Xly+0n1smQ2qB4bPrE6enEHKjX+YAJOAHKuH1FgRNZzijmS2ImynqRVAqvg0zX2LvFlRB+m7zI6dkAAyWhOy0B4ctQJXFl1Uh5iqaPYRAAt4Aek7UBN5o7EXJh2mEYVeK/M/oBT43xEU+XvgRvA0hyXuPbTeBNWCBJfwG3vRNSzrJoho0Be58slITsQ3+xeCN//0D2yIjFl0yEOT9uccUn+jw7YCZgQfh4haCJvvzOAtnn/Gdlgfo3VxRTyivbrIFo3aKpWfNk9Jh1ZHkHxXaDrIG+dke1GyrWzJk9XZoal2g+b2iTIBLTn5AGqGjb1JMcNmJN1a60Egf3jMiJkqmfTGgXKbmwXU74apWc9PUad5oVLB6ooNtX7bIdCpP31FNPddp0lLbFdxgoycQGmBFME1cUGMMnPtE2oX1uOpB1d1SsJWCKA260XyZD3AFvby6Mmc4NA25fc7cscCxYUAlRFXHC2pO+w/DPQ3PF7Q5NO1PtRTu3v4Cb+yJv+sUih6ti2A6K948HDd5FcQdyszJ2mRa7nMadWYI9dge020GX2KQ67pcvyR33z5CG+hLVnrszUyfRbOGdCVtv1K3YxDW0Hl/pUJeIijB4B95MXgXQxsYFsnDOTKc5Gzjbb1/jNrAh33e5epGMHLG2tLZoBjc1eiaNlvQXDBanJg0QuuG4OtlwHC6Aq2+Vm7jJlK4Z8W/zFQa08TE2972wezFp4cNxbSO6j8kc5sPN+CBRPu6GYfk87N0CIASd4DYXpdWi5ZOJ0J6ZaQzaPfFMQYsNo3+SALfJB0Aj0x55WzIBW5wxz5cnQEn+EPzUCcgx33Zb1DJRff0F3BZWj/GYXUyU7GknibuGDx+ecfdkCzH9WFm5SlaHkHd2quR3J/gsLiCqV8Cdmkxd4d7/nvqxHKhV1imcW1qEm1+y/CW+NoX2DNc9aowWFG4tcgME8G5sXCwL5sxQ8GxSd0HANzxK0drleDm9fvDQ8VJWURdo21m67Jm2PWtJu+y2YalcoMWAyc1immE2ILi6nmt0CeALFwzHCS8ZBUzUVUTbJh0nQTlR2jEDFm0bFzcDwHRZ2RgBmABGQDmT1m9tAlwIeknnU+2+PkjjD91T4OY+NhZmzpzpSnHhVRMlG6gDOF9z+2OMcw8Cdfgc4KPUGT+4V7JI2uIZBdqc01/ADcCyiODNwq4rypuHXQ4BUfDxdoTtJiytKykBMsnss6Zxx1XAsXkQl1OlV8AdrJwBZYAVsVHT5e179jPyxFvzpa6KbHnJswb6qzBc91rjx0hRxXBpWd4o8xbOlaULP3Fat7kX+edn5rYDv+3i8mqt5DFJB3STXpsgn4mHGDa5cR75ZHGHXHBQreyzaaVSOlTj+eyEtydZUIz/ZaJRdZ1q1lGDkDSh5PFGk8Z/O0pDo6QXIB/mTWLv2oAJbZ6owSjOnPSxZNezcwwc/d2ZRUDC14YlmeL8OI4bwKEgAHIJy3JnoDRM661CIyAftHNkCDDTdzRUKBH44Uy7Hr/tYQpIfwG3adw33HCDq2gfB0AG3P7c9IHZXCf5jdyodvRZpkrMEydqp0o5NRYwCm/buPMVDWMRnDKbpOZk1MQ2cCNrYKEi3DV/eFvO/u1bmnCpwBUUJqrQB9uwe6W0bj0BI+CQ2nLVPOrlI00F2ri8yaVfTV+RfY4x9R35QvS/di3UwKoyePgaWp6soQsUsnMBdMYrCjcs75B1RxbJr78zSBq0piQRokRKZtqqJgHB1e0c0yotgxypQAHkKDBGI6OkGQbNuDSuZKcDZG1gRtEatAHDJGk6o3h2jGL4V1u1bH+s2HszP3GrgNMTqsQWG1KAhuVutmezs6DdeJ9EHX6bM8kiatfYX8Bt92XBJsQ/jPaiXyw8Dz74oDM0I1OTs8kXmdkugrEBxw218lnWuNn9kRcmaswyZ6B0cADAddYiUZGpySu1g+ktcNuNAo1MXQOXNssmxz0ui5c2SXkJLnoBGZyUonD5REgfi9FTE4u0tOdJiYZS+l4FvgZmWog/EShDRtrW8spBGuJenVo4ErfBeaMEXir4k89erAaUbSrkR5NrtYK8JmL/jEZKxi3Q5llg+TlILhTH2cZ9D/hTwRtaIIp+8uk0NHm01jjjJEZHKJuwY+rUqS7gBy05LvkV489PMuUvBPQB4+YLL7yQKiTsP9PaCUBRCSd9MUlNxq55EkbvJFnw+wu4zSCKzFigSAwV9m753CoYhbUZebMIkM+clAVhld7tGb2tgLOqOe7rrrvO2Wbi5gO1K6GjKBjsH0TXPvPMM25Hxg611xq3D6Lw0xgYv69ugdc90FW8N83jIw4cgo4Fhj9HjeiPC5jJwE2b5mSTus35ZxdoBedRUl4xSH22yZ2gVeRDrk/Slpa2TtEKbXLJwXWy8drKS7qUtl3InWQmfYbOMd6NLT6udgBjXBBGmBZrYkGTIDkUroOmvWZ61/7CDU2Clh6lvXCPcePGuXStxp3TflK+wmlDzaDtRWUFtDaGUSU2ruB/yRnC5Mp0GB9sKVQznWNyyiSvdCCPGs/9Bdy2aCMzgBsQCXv3tJd3Q3QlRlX6T5uhW+D/cf3jnWMTiIqaRE6rM8fNmDVvI3Z1xDOEBaH5YwI6jTE7cuRIF2TGPRhjyAvKhbHfJ8DdrXUHUZOvvLNQtjvpcSmtoLhAUOAgqbZrC0EmGsRWqxVXrSB/RYc+p159tauqG7o0bBYA9S/sMmJmA942eSiMsHB5p2y6VrH8RkPczWc9k5b/GcLnjF0xmVjBW7RHfE5766+Maxm+yb5GHQZsZrjEJ5ziDviIJzkw+nVTeu0rbPON+45aYKKAm+/QGFnIwoDbrkf7h2LC4MhnABoLV5LiA/TdxjDj358Lvgz6C7h5tsnfCh8kCcCxqvY2r9MzCMbdw/rJOCHFge+Lz3dJa06uao2bMYLc2GlEad1xGvnRRx/t/OP7DLi7Bz6DSmTbkx6TV2cskjKlObJJ95pkIvpcGYBdVlKm4fZj1Opd4RaJdBDIBrR5fspvWemaFjWwnjO5TvbcvNz5pn9etW17L+amRHg32+GwiLe492gDFPqB8PjUYhnhY28aOQBJhGVcvuqoSZAO2HHnZqJKDMjQPslVko0sCKYhdB1DFNp6TU2N+2loaHABQ/DEgB47Ef72C0WYT3Um8O4v4OZ9moGSCFfcPG0xiXvX6d/7SlnSa62mqb8ID3TgNizhN1QQygZjJcliZQud2QfpK/Ledttt5bbbbus74O5uZADc9zzygRzx06lSP7RM81UnM1AmeYkGwlAWZSVFGhGpgK20CK5+vtYUppEkfQbnNStNMnJQgdzyvcGaxjXwJc8mx0mSZ61O55iRkjZT5YTc2WGJo+L6Ze/HElLZ+WE7sxQdppF2aKn4k7NtZDBHGcri2sH3cRMpjiohBSvGUGiYvjhoD8WJCdVnu0xUKQAPt0kADu6CvruYr5j0F3Cbxs37mTdvntthkMrWKKye9hvZ8hPl48+zsYH4xah53kAH7vQxi6ZM8JjJsicyY8GH5uszjdtWiIAWyZdZ85bLdt/9t8xXjVXdnl3Aigm7Jw22axgolE1bpivYmmNGSvWgsbJomSand+55vff0MHBiMM1tbJdTNFJyyq5awT2LXOO96d9Avxb5GG9H+lXcvrI9DAgprECYO1pl0l2RaXnw7GjdDz30UI/pGiY+baE/+E/HVWHBFQ6Lv4Gmv0vYdNNN5c033wwN4skkI6M80herMN4XDZwIU0LOrRKP3cPub1oxxRhINxu39c6mdJn/7tkp4ZbZG6rMXzDRpDMZKK39YRo3rqZE6IYtIKuyAo6PWfwNtUe8ANG1ce8lbLzwDphzfQrcPMy2szzgwjvelAtvfUuNhfpStPiAbU+z4bvTO8B9XZV3NXSMHTHUAfcyzY+NvdDymmQLJHa+gYcDb/2wU71abvtug6ylFdzt6E3be9qugXadARch2FY0IZs2mpcFhWqJlrTFMh2EMr17PvPDy9HEMpUNy6Y9uLfhogcHmemI8+PmGugDPF366vBB3f62Go4AOOB95ZVXfmqX2V8atz9HeF9oyBRSYDHrzYEXBX7hUAjsotI9hQzgVkeNG7n4tC4LFQZ986DKVm6GnxSt7lPgTjWyK4HMM6/Old013WtZpUZ+qRudoxqyjFzMNHnxoSY0ftzIYQ64l2qx4MDRI2nVy3CR2cKwuLlDtlmnRC5X3218uXMadyAzf0dCfccvf/nL2Y6/1PlRRROibuq3AUMlARzTpk3Luh248LFwYCwkKtCq2YfdyDdwmbbu8+7kKyeYx470se5TeVk3tmvu2A6B6ymye8YZZ6xQ6Nc0bhbVqIpF9nzC6YlETVIs2BQb6zOeDmz9Sfeb7QEFRK1LZI6LG5Gw/DvsgJbDMwPN3LRrMwxTpCPuIDEZOzQWHKNnMl3j35ugIBbIuAMvpQ022CA0vN+uN88cXCpZrKIKi0Q9E3fBPgXuVANdMQXN7dHcJkdf/l+5V4ssNNQWO84Y3O4NeDN4+gu4A0BQZ/fCPJmztF2uPrxKtv9itfuMozftjnv5q9P3KTuDUgz4VLMFTOIZYX1kcpAtDsCFxzUjXxIZ+Lsiu46oRVKdXnXVVY5/ZXIa3WDaKu0DnHERRMOmCg3gwWccnE8CJXyLMRKarzXfMdGhZgj1tyLG/lhwi72eg28zFdNxd4ty++JaSzFrYO6DehzA2w6AghO0Fw48ZVDvqhL/3HPPOf94q0SUSbb0GQqCBSxTRsZM1/jtNcMZnh2Um8OPnQXAdgb+rsEyBO60004uSRVytAhRZD1jxgxBk0TOdl8f8AB3xou5Ftp8JDc7Xkm2mPhtpq1QJYwJ3vnGG28c6XLKtdY/2g7A4gVknj/+2LO+8c6hjfx3kC63TGMWQzY0H4seGReRGe/Ad4lljPDDLoS2YwDHoE1gW58Dt3WcPCVFmlHv7oc/lGOvfEEDYdQ1kNCaLANyMgmhP4DbtDi8Rhaotr3B8EL5zXENUqHt1kY7/jx39J8EknLcNrlsC22gaS1jF4D2DQDwHRMdcMZTY6ONNvrU4hvlO55Nb/0dGQZXQJOFgFzfeMGgCaOhAuhxwMxEpX9R+cat/2eddZYL7LAiB9m0ubfnpr8z+gl4Y6zlAHTQkAE+/JLxmEk/+kr+ve1Lf1+/Ag3btdDbMzH0v/76626soIQgL8Yt8iINAj/pi1mfA3f3KgmnrVGH85pk7/Oelle1yMIgpUx662HS3xo39S4/WNghp+9VLUftWNWViyXwQ89p3MHb9Qdhbwe8AVC2sg0Dv6j7RF0TB6bWT9+olOnv9IWEichCwuRkZ4IfL/9GUwTMiT5lwvLDvwG/uKAUA0XOo7AFtIhlVTRNNGl//POTvoOeyN7XZtPHTDaGujD5JxmH6ddmusbXuPtahj2VWybZ9Qtwp2vd597ymlx2z/+0ILAWFDb3Em1N0oHiC7g/gNvaC73jcoKXtssV366TSeM0ms/lFc+BdpKJsarOSddm0ge6jTNbfLPR7pP2yZ/w5vnCZ77/daZ7EbnJVh5XQrRxouPII87npPgMCzIyugS/XigGdhXpi0bStvf2vHT5+wCVSfa2WPT2uav79VHj1pdbpsW1X4DbBErACm56b09fJF8/51mZt7hZKksLNd9Hz/26+wO4aS+TraRIiyXMb5f9tyiVn3yzTrd6QdRn+jZldR8wufb3nwTSdyNGwdli4gO8cd1hrSEdLuHNaO3phwE3/uP4N0flvu6/3ubuvKok0G/AbQPUCg4c8pNn5b6ps6SqPMhb0NNVt6+BO9UWwFt/lmsBiAsPHCRf26hMWjVwyBUt1qMnu4NV9VJzz105EsikMfnjxKeBwuglA3ZfSzXNmd+4y0GrpB92b5IR4bONodLcJFdO73NPWZUS6DfgNg2DLH8Y/O5/aqYceNGLUqxAWKBGS6rZ9EST7WvgNm0bQ+ocLbu27qhiuXnKIKmqxCiJR0HvXQxX5QvOPXvlSsCnSXyvimxawRi3XOEAM/RJOg9sGjffm8adjXdONu3JnTvwJNCvwG3g7X7rzybHPCLvz27U6jhB+HhPNNm+Bm7TdFCsF2je7UO2qZTT9qp1RlTqTPYHHzrwhkGuRT2RgK9FA65Ufkkvist9zbXQ32n6GrY/D+xzuHEMllAhmfKZG3DjJgbHjQdCUpe+nvQ1d83AkkC/ArcNbOcqpYa/6/70jnz/N29ILdVxBojG7bQU/HQ1srOhukBu1iyAIxoKXSpZ2pyjSAbWgB1IrTEXQEAbH2/LJ4Jv+qRJk1zpLrhnfKmzPcgDQsAPtTXTQZ57Wbg4/ujkFLdE+z3ZxWbbttz5q14C/QrcvsbN3x/OXi5fOvJhKdJK7gVelGM24NiXGrevAS1uapetJ5bK1VMaXBbAIPdJjiZZ9UN0YLaAsWPUBFkKyWHipywlERQBPmPHjnVBRmjdeH5Ytj84act0x30Af7xKcBtE0yY0mrqeYYeFhhOUccsttzgfcT+F6sCUWq5VfSWBfgduGmqaCTbJoy6ZKr9/bKbUqmsgtRtNQ0hKSfQFcHdvcYOCDbgoNuvP5VosYesNypyGgxaeO3ISiJKApbjFOEi4tgWT8DvOFxvgNVdBzrVoQ/95UQmcUCq4niRRFEZeFQE4udGx6iSw0oA7KGgg8u8XZ8seJzwuDWMrVQvRAgheOHkS8O4NcPv3t7+xPS5v6ZBR9Xnyx9M0QsnlbdUfV4Unp3GvuqE5sJ/M+DHgJjf1ZZddtkKDzTAJ+PreJYC6GTD9C+x8C4W38zJJwe5HGPjDDz/sKBlTjnJjdmCPm75q3UoBbret7OKMFy1tkcMveFYeenGe1oQsktJiTeCkIInWa4MuCsB7Ctzp7lhUaW/TZzaq+5+yJHLWHlVy0HbVuWRSfTWyPuP3Mc8PtF5KdBHenm0EoC+iTDx2FGjzHfnI+bF6kDnQ/owPOq97KwW4eR4DE6oE97r5Cxvl7JvflAeemS2fKJBXlBdKibp1kN+Ew9dQ0l9FT4DbB20Mjvn5naI1jV3Sq3FDCuTwLStl363JCd39tNwk+PxMgp701LRmfpOmk1wTjBnLL5IUiJM829fereAAiwWGS6NbcuM1iSQ/O+esFODORFEgwhfemCsX/+5/8reps11R4LrqIuUGNVNbl3ZugO8PymyAO/25BEJSpX1RY6cMrRGZ/JVyOWz7SqmqKOrS+HP0yGdnaPdvT4wmoXgCRQ0ofusfBqgG4IHi0l1WL6x1NtaNYvEXA66BFjn00ENdLmyrv9gXee77V1q5u/e1BFYKcBsA+9o0nhtFhQVqVGmXex99X35x73vy0tsLpLK+TIrRXLrIb3/7aX/HZQd0kwVXvi5Nn+eqS7YsalJeUjWkvTeplG9pWPt64yiQUOA0fW0Kun7Ob7uvR9hn9H5miCQT3pNPPumqkgDe5Fgm1WeSat6WCjcT5+2LDWAmnSfpV3fZZRfZfPPNP5XGNKdxf0YHWki3Vhpw2/N92oKoSnO7+1ADc+588H257E/TZJmWDKuuKHR+1HDjZti0BSAMuK0CTnBFFzWj92jRRWKhatlbrFUiR+xQIptPpPhqvoa06/MVsHlOQJNkV43+8zVUcr1Nl0C6LYZUsrj1Aea48hE4QzZA/8cqwacbHy2VK+lnqStIRXhqTBJYg084BYVHjx7tmhBXDCD3pj77EljpwJ0uUoySiquueAHHW+8vlsvvfkvufFjDfNVwWVFSqOAaAKttO0OBGx1bT8QZBDBuUWBeoNVxRtUXyim7VMo2G5RqrpRCB9BQMnj8RfHpn/3Xn+thTyWwggKigyksYRSufpaHm5qKFkUJcJPSlfvU1dWlCgTgiw2I4++dHoVpYI+mnr4T7Wk/ctetnhJYZcBtIGwDEGbEpU8N1Gp5/OXZcsaNb8mr7y10IFypgMt3+H4D3NSc9EuX5Wt9SDd59B6NLZ2qZWuR4pI8OXCzcpmyS7WU698c7R1qnOw6d/V8ZblWDxQJpHsq+Rx2T/OUZNLqw4oN5OiRgTISVn47VhlwW1fTAZzPA/fpAGh/9cd35Mb7pss75DhR7buytED5PdE6k00ybtRwqa4b42pOlhTlOc190fJOqdTIzI3HF8jJu9fKmiMoTQVt0uWc7e6fo0ZW/lD77D8xHcgzgXBSKaSDcm5nmFRyn4/zVjlw+wCe2v4BrKqCo4WTVvXjOY1ymQL4Hx/7SObMb5a6QVo1vrlFRg8bIjX146RZ84wsVS27qVVks7WK5MjtKmWL9QDsfAfmKyb4CwA8p618Pgb4QOtlGLjngHmgvamB3Z4BA9y+mHyjDzmxSbnK8axWjb/2r+/KvU/Nkva2dpm09kgprRotHy5olwlD8uWgrcpk782UFinLV0+RgBLJpWUd2AMw17qcBHISyF4CAxK46YZPoQQGzMB9sFkrxz/y/Cw5/cbXZU5rmYwdPl5237hSDtq6XEZrMA1atmK6ct05SiT74ZC7IieBnARWBwkMWODORKFYUQa+mzV/uTz5VrOsPaJUJo0ucZo1tAhugPydc+9bHYZfro05CeQk0BMJ/D9hAAFdWYnXGwAAAABJRU5ErkJggg==;" vertex="1" parent="1">
          <mxGeometry x="160.2" y="450" width="109.8" height="30" as="geometry" />
        </mxCell>
        <mxCell id="hZKEGMEajTzcgUapLtRP-8" value="" style="curved=1;endArrow=classic;html=1;rounded=0;" edge="1" parent="1" source="hZKEGMEajTzcgUapLtRP-7" target="hZKEGMEajTzcgUapLtRP-1">
          <mxGeometry width="50" height="50" relative="1" as="geometry">
            <mxPoint x="500" y="360" as="sourcePoint" />
            <mxPoint x="550" y="310" as="targetPoint" />
            <Array as="points">
              <mxPoint x="215" y="380" />
            </Array>
          </mxGeometry>
        </mxCell>
        <mxCell id="hZKEGMEajTzcgUapLtRP-12" value="" style="shape=image;verticalLabelPosition=bottom;labelBackgroundColor=default;verticalAlign=top;aspect=fixed;imageAspect=0;image=data:image/png,iVBORw0KGgoAAAANSUhEUgAAAW8AAACKCAYAAABlwsuRAAAgAElEQVR4Xu1dBZhUVRv+ZpYturu7BAQVBUQURLGwWxALCQu78LcQu7ADBbuwEJUQFDDo7u6OTZadmf99z+xZ7szOzD2zs7vs6v2eZx9j7j33nO+c857vfOk6ePCgTxwqdhzwbpkvnvUzxbP0fXHV6CZxTXrhr7u4ksoXu76adsh3OEO8G/4Sz7rfxLP2K4lrfLHENTpV3A1OFFd8smkzznMOBxwOgAMuB7yLxzrwZR4U7+a5kr3se/GuGy1yGGdqKfQtDmDtOSCS7RLxucRV+2SA+LlSqvkZ4qpUv3h0PkIvfGk7cQjNEs+yLwHc3+FJjgt/cRWOjEtcAPC+EtfqEolreLy4ylQv9uNyOuhw4GhzwAHvozgDBGzP2umQrgFsW78HQBPYvCLuCNI1gVzcAD4AeYXm4m5yMYD8dHHXbn8URxL4ad++TQDsGZK9/FPxbfsDeI1xxeMv0ri8B3Fg4YByYVxVOklcy8tyDqh6xWZcTkccDhQnDjjgXcSzkQtsC98X3965ADaAtR1gR+qjJwVADjCPd0lci0FKveKuf0KRqyG8WxcAsP+S7CWviaRs8UvXPo9fwo6Wcg8ojCu5ksS15rh6SFzdTtG25DzvcOBfywEHvItgahWwUde7bIz49q/0g7UCtnKWr0PqzBdZTBbeND+Qu9zirncO1BDQKTegGqJavlqO9JLSX+9YJp4VP4pn+SiRLIwpjreGsn7VSC7lZ1xB73tTcw4ojKtRP0jkZ4u7oaMnL/BJdRosURxwwLsQpsuXmSLeLfOgEpkM0P4BkujmHGArg68B4GICtoiQeuRHBXhQmgPIXbW6Slz9MwHknWNSr/jSdoln42zxrJog3k2f+/XybhxC7tKFOCY2HXxAxeGmASCvdS4k8t7Qk58kroqOeqUQlrLTZDHmgAPehTA5VI1kr/wFAPcHjHTf+nW+ND5Cn5svNUJ++ujZD3DNwb3EOKhUBkMa7wIPD3qsWCV+88Y9m+eIZ/Vv4l0/QXy7ZmE8eJfjKlXRvJFYn7SOq0L9XI+VuCanxNqy877DgRLFAQe8C2O6qMf2ZuPPA5V2tvi2L4QE/jek1l/Ft/tPGCY16OVDHxyuv9QTU0Bl20kVIJWeLnFNIW3XbAOvFEil7nj8AWndkFoV6uaDMJ7ccWWninc71CbrcECtHSe+A6v9DeIzBXpAcVw8hEjlaktcvbNxgzgFNwiMq0wN/3jUuHiKOORw4L/DAQe8i2Kuc0BPAXnmPvHRh3vrPEjlk2C0nJ8/0LOCNXG55lnwme4JYyV0wXAhdFnBGqqTgiecFF4eUoehvse40rbDs2QJjJZ/iGfzeKiKtubcNqIE8+BDqC509416iLtGa4yrAcZFoOaAAdq8yTjkcOA/ygEHvGOceN/+zeLdtx4A082sJapQlFQOwONf6nbl3+3d/A9UEu/6pUylYgkBetmQQiH8UsJ2VW4HfW9fv2dJtabiToAUT2CLA7AZgrUvfTduA3OlVMveefru2TxfXHFxkOCPMRwXgdwvmfs8WTDMbsCYoGZZA/XR5gn+NrTQb/VA0WDNcYHcdftAh41DCPp5V0UeQgl4L0eyNh1XtHNiNkLnKYcDxYoDDnjHOB0eAG/W1+cCcOMBPJB+m5wBPWxXcZWuatayVrFQevVkAvQ2wdg51w962wF6VIMQy8s1EXdjgHXDkyGFtoArYDmAqwY2c1WId9si8cCY6l32oXj3rwIwZkvyYEjJQXT4z7cle9Zj4kosJa4GV0qpZmdgfB3x34b6co7LQ6kcp5E3C2NZ5DfiroO+fM9f/kOI46rEQ+g8dQi5a+KgAFi7eABFcQixHR42lPq9y97F7WYvwP9CSTzvZbM5cJ5yOFACOeCAd4yT5tk0W7I+P00kkfrrTEjFAFRc691VOiCA5jzoaI83l17ZF7oQKiDPAugdEoKtq3wtpd91xSX5pVD+GeqtfYfg+bIVOvd108QLyd53CKeBm+J9ol9Sji8jyTcvzwvefwG8/7oLhxLHdcg/LhfGVftUgC31zpSM65pzj7cNBeaQygGuvr3rcXtoCONp5ZxDKEcnb9iiujVswiGkJPtvMC6MycVxoZ/Z+3HQDXDA25CXzmMlkwMOeMc4b7ngnUSPC/pv5zToywDIAiB98eJKrgKpFYDXDJGQdY41l16VSAlAUvpdc72178BmGEiphhkPA+lU8WUR2AjAAEj2T6mKc9qLLyvJA5dGAO+gcRHIKfEDzN0Vm+EmwNtAN3FXb24eGKRVR1TzRKG39m5bDAl7FgD7B/HSVkDeuHDI0UpqHRc8UtyNrgN4vxTj7DqvOxwovhxwwDvGuQkEb2tjOf7cClQIlAA9oeQM6bU6XPaanQ/pFfrqClFIrxH66tmyAAbQGVC3fCY+RjgKQA1qGJwUeQHb2o4ReIcZl/LwIHhC1RGPcdXqI+7mvG10MFcbRRiTCgSiige3Bs/q0f5DKHdcOYmsrAeRbssB7xhXtfN6SeCAA94xzlJ48A5u2CKVE8hLAXwgvbqSK8MHewB0tF2gy4b0yv9vQL5DqSpq07t2Ev4JX3KqWXw8IACoVIfkOmLYSOxRg3eYcanvEVx5QEEqh9oorvE5uHF0gi67rcGI/I+oW8NGJLJag0CgbdOUvtyvjsLtI1e65pMRxuWAtzG/nQdLLgcc8I5x7szBO4z0SqncTSk9SVwJkF7rnY8rfy+EgPfM0zNf+h4ksRoPXe8U8e6E0S+bYA31jDfHxzmUFGozPldiNUm6cU6epw7n6ryjCcCxHlAA3DgcRJD8XclVoS6CzzmMnoyGzAP/2+FiSH/x9VCHwIjqwuHm82Bc1LOToh2XA94xrmrn9ZLAAQe8Y5yl/IF3BOnVRfeS0pI0cEkeKTx7xUQ5/Mv1APscw2h+gC3o067E6gDv2QUE3hEOKEjl7gptJfGaiXm+lTXlSfEsedPv6gi/ceNbQ7i5c8A7xlXtvF4SOOCAd4yzVDDgHQR62QclaciOPAbA7CU/yuEJV0JIZ8pYcwNmpCEWHngHfRWA6qrSVZKuzvH5tvycNfFh8SyGW198NFJ+hFE54B3jqnZeLwkccMA7xlkqePBGhwA+SYMjgXcBgRw1EoUmeYcA76rdJemqH/NK3hOHQ/KGZ0hB5UhxwDvGVe28XhI44IB3jLPkgLchAyl5FyF4xzUfLAl9Rhp2znnM4UDJ44AD3jHOmQPehgwsavBuMVQSzhxh2DnnMYcDJY8DDnjHOGcOeBsy0AFvQ0Y5jzkcMOOAA95mfAr7lAPehgx0wNuQUc5jDgfMOOCAtxmfHPCOkU80whapzttRm8Q6Y877xZwDDnjHOEGO5G3IQAe8DRnlPOZwwIwDDnib8cmRvGPkkyN5x8pA532HA4EccMA7xhXhSN6GDHQkb0NGOY85HDDjgAPeZnz690repRtK0nW/5xlf/nKbRGCmA94xrjTndYcDjuRdoGugxEveZZpI0oDfHPAu0FXhNOZwoPA54EjeMfLYAW9DBha15N3qNkno/bhh55zHHA6UPA444B3jnDngbcjAogRvlEGLa3O7JJz+mGHnnMccDpQ8DjjgHeOclWjw9qaisHH7f5/axAHvGFe183pJ4IAD3jHOUokGb0rD5Ts54B3jGnBedzhwNDjggHeMXHfA25CBjtrEkFHOYw4HzDjggLcZn8I+5YC3IQMd8DZklPOYwwEzDjjgbcYnB7xj5FORRlg6Ou9YZ8t5vwRwwAHvGCfJkbwNGehI3oaMch5zOGDGAQe8zfjkSN4x8qnIJe/290vCqffH2mvnfYcDxZYDDnjHODWO5G3IwKKWvNs/BPC+x7BzzmMOB0oeBxzwjnHOFHh/dppIYjwKupeJsbWc14uiALE3TeTwYXFVaC1JN/yVp9+HZ74h2TPvFUkooHEVFXhzXFmHJa7DXZLQa3jBzIfTisOBYsgBB7xjnBRfxgHJXjhWvJv+FO+Wn1H5HQ3G8S8GIPcdlqSb14orPjmgd9lLfpTDE64UScpn9XgCmw9Noo+ucg3E3fAMiWvQTeKan52HC95dK8WzfJx4Ns8Q37YZ/t9L4S+/B1RhgjfHle3voqtaJ3HX7S6lWvUVd81jYpxd53WHA8WXAw54F8Dc+DL2iy9lu/hS14l312rxbv4bQD7BDyj5BPKkgSsKBrytgF0WgN2ot7hrdxB3+foI0MFfmWoA5cS8XPB6xJexT3wHt4r34Frx7VjuB/JdM/0HVLRAXtDgrQEb/HVVJmB3w7jaibtcQxxMtTCuqjhoyHyHHA78OznggHcBz+sRIF8j3p0A8i2zxLsNKVezIB1GAeQxgbcVsCs2F3e97uKu1R6A3QBqEvyFA+xwvFBAvlcBuS8F49q+AkA+U3y7AeQ8oEyAvCDAO0DC7qgAO65WG4B1YxxEtf3jcgC7gFe001xx5YAD3oU4M34g3waJfCMk8hU5EnmOasVNqTy8aiVq8A4A7GYAtpMB2B3EVamxuMvWE1fZMBJ2tOMnkKcTyLeIN3W1+LavEs/Wv6Fa+cPfEg+oUKoVgne1npJ05bg8X8yaOFw8S17CIRBCHcRxUdKHusdV9VgcRJCwa7TGQdQEB1EdcZWugm9CL++Qw4H/GAcKFbx9nkOKna64ENfyEsxoX+YBcSVViGoECsiV5LpKvLvX+4F86y9+YAoB5EbgrQHbCx6XqQcddi/oedv7AbscVCJlq4dWiUTV8wgPa4n8AFQrB1ZBpQI9OVUrO3IMoFYgJ3hX7y1JV3xlD94asLl2qgCw63bBQZSjEikPwKZKxAHsgppFp50SyoECB2/f4Qzx7lgq3o0zoTb4U7HFXf0kcdfHBqzaNGrQKy589aXtwriWA3SnQ4qeh3EkiavGqRJXuxMkymZ59NOR+u0H8i2BQL5rjkjmXj+Qu2CTHLQpvM47PkGEgF2hqV/XW7OdUoe4K0B9oCTspKJnm5bID2yCjnyN+HbmSOS7YOzkAeXKAr8igPdCSN5ujAvjd1WCiqduVwD2MX4ddvm6/oPIUYkU/bw6Xyy2HCgQ8Pal7QZQ5wDbnkVCoJO0TcrgpSTv5EoikAxdpSsDwGEsq3k8jEuQEClBFWPy7YWEDGnSu/Uv8WJccgjjTNmIf+IqT5BJriFSGrpWjqsGDigAubsGdLBJ5Y1HpYD8wGbwbDN4iENv+yIcEBPgbbIuL3gv/FoO//m4xDXsqTwpXJWaANygwy5HCfsoAHa4USog34Nx0di5IgfIZynVR9KV3+V569D4u3Aw/g3Pl1MwrlY4hHAYKsAGfx3ANl5LzoP/LQ7kG7x9+zYAbKDH3TJVvPvXiGRAMk3Z4Ac2JW4TtSFJkXxZSlJUlFgGoM2rLzwCyuOqX4sbto24qzQuFpz37lmLMc2BkXEapGOAagZACEAkh3KkYnUa5R2XK7myH8ghIborAoBqdYb02DGqA0p5d9BrBSqIuCZw3wsCLt9+SLX7VqN9SNjlAGzFCbBtgRw3jewUAHT3PE96t8wTnycdoA0pmxK2oxIpFnvB6UTx5kBU4K2Abetc5QbnSwXQALB9qTvgSXHQD9ZWYAs3bgI5iWAeXxrgVhOgV10ZngjkcbUAeNUheRWRnpx6eXXF34ZxEbAJ1KkAmjSMy4O+Wg+hSHNpPaDioVIph5sGD6nSZaAyusBvZCsmB1TxXpJO7xwOOBww4UBE8Kb+2rd7DYBtPoxR0yBZA9hSII3Ce0KBrymwGYKeq2wtqFd4Xa4m7monAMxhrKreKio1hMmgfZkHcWtYBrCeB7XIPxgP1Twc1zb/67GOy3pAUb0CzwgpUwMqjirQj/OAghdIVXhLBAXhmPTdecbhgMMBhwNKTj548CBj7nJJAdv2JZCwETG4dzFADWqDVOiv07cWHGBHkspz1CuuZLiAUU8O9YC7PK7TNU7AlftEv2tYPogStXfLfPz9Dj3seqgnIFkrvTwOpIIAbJMDikCuVCv1MDbcNCq3hUSOA6oOjJ5R6MnzMXznFYcDDgf+ZRzIK3nTW2T7YsleD5Bb94v49sDti/AeBz0vvCDEXbpwWeBNzwnhzlGvlG8rcXXgqdLwNCnV+BSlM88XQRfvWT9DPBtxg4DHiG/fPH8zR2Nc4KOryokqeCaucU94rHSACikwFD5fY3RecjjgcOA/w4HQahMAnVeFRkM9korQ6FRIrbvhn7x9Lv595RHf5IICcxirtEFTGTJrHO/3Va5IKbURpG9/9By9OmIhFVyiAmegIjmIAJMDO3C7gH/y7oUY1/ojN4u4Ajig9CHEmwRDuMsi0rEmogKrQp9fFreHsjA6Qt/vpkdFfg+kGJiRnZ0te/bsEdy8ZM/u3bL/wH7JyvIfmAkJCVIauvqKFStIjRo1pUqVKlKqFMMoixdlZGSo/h9Ggq3k5GT0ubT6Zyyk22QbSXAHLVOmTJGPnXOzfft22bt3j6SnpeeZm4oVKkrpMqWL9dzEMgexvMv54zrOzMxUzXAOuZ5jXRex9Mnu3eA+ly1bVq07OzIzWBLM6QVxcANADkbLfYga3LcOUjlA7wA8TAjiKiDDcON4M45EzZWBsbJyC/zBQ6My3N7KQuddHoANvbcrGRF37kICDW+2MNjGl7LTrxZKgVvgHoxv7zL8wb0tbWds42IYehX4X1dqJO5KOJAI1ghPd5eDgfYogDUXQlpamixftkxmzZ4tCxYsUP/NhZOakiJp6enihYsfyQ0vl8TERAWGFSpUUAvpuOM64e94adOmTcxgtnPnTtm2Lce+ELRCXS4uJpHWrVuH/A7f/fvvv2Q2xrBt23a1SQl23KD8a9asqZx44kno63HGG3bz5s0yb95cxZONGzflbnweWORD8+bN1Ng7duxotKnsNl2o3w8cOCALFy6UJUuWqH7wvzk/WYcO5ZmbMpiXBPRLz81JJ50kHTp0CMuzaPrDA331qlXRvBLTs50wT7EIBpz7pUuXyuLFi2TFihVqTfD/8Y/EtvlXv349rI1m0qpV6wLhE9smr7h2QpFex/xmqIOD+45r+K+//pRVq1YH9JnruFq1KnLMMe3khBM6S9OmTUN/Y+/MD33u6q0BNABMqhDsiKBHqRxGPl8KAzIA4nAb9O2Bn/dOBJpA7aLICuYarHP+v7tGF3yvJQJL6gLMaKBkkqScZEImfUA7dJvzIBgorh6k9CCJnBK2Z/0fUEfAc6Ui9MsmBM8S+qv7DuaEs1M6p5/37qUY2+wj2QIVuuUcUtZxIdOfu9pxAGvo5ysDsJX/tT8sXfm5Gx5C3r1wwdw+X+Ja9DGbD4OxEQh++mm8/PbbVNm2dausWbtWdu/aKS63dhGK3IjP65UaNWtJ48aNpW7dunLeeedJz54987XpCL733HOP7NvnjwEIphzsljPOOFMGDRqU+zM345dffiG//PKrrF69WjauXyuHDuekErQ0UqF8WWnUuKk0atRYhgwZrDZAOCI4fv75ZzJlym+yfv162bJ5g6Rn+KOCNXHsFSpWwtgbSYMGDeWiiy5C384w4LrZI+THjz/+IDNmzAQQbJJNmzZHPTd16tZD3+pLnTp15YorLpdu3U42+3iIp6677jol9RcV8XsXX3xx1J/jepg8ebJ8//33smXLZsW3XTu2hVwTbLx0cqJUrVYTPKqt+BTLGmZ7XDu33HKLAvBI67jjsR1l+COPBDwyd84cefudd2TdurU4KFdLSsrBPHsxEamYq1WvKU2aNJHOJ5wgA8CnypUDNQ+una+09bnKwqUN13c302nWgLRYrbm4EsuZMTQX9BCQsR8SK/2i91CKhQS7bwlUERkA5pZoG0E5lenHi4CWim39iYRofDTU9SrPFwLb7uXIpwHf8hQA7f7NktDnDfS5VeCG27dRDo27QoEoA4Hc1aEzr4bDIppISOr+eUDR1/sAvpkGlcteJGXatRj/bzn6XRFjQIRjFXjDqHFBBVIRNwiCtYoGNLsx+A6lgF/IRrgTwTm7ZuFQxE0AN5zEKycViDfKb7/9Jp988gkky3myccP63EUSXypOtHRgN9E+n08OZ/ulcoJZ6zZtAYrHyN133w2Jpr7d6wG/sx+nnHIKpJHwQUX8RrXq1SGFLlXvUkp58skn5Oeff8EmhSoP5IaAHkpi46b2wkbDNroCxG699VY59dRT8/Rx48aNMmLECJk5c6bs2OEHq1Bthho7wZvtmlxtIzFn/Pgf5auvvpY52My6D3w+lrnp2KkTNntnGTJ0qFQHD6Ol8uXLR5ybaNuL9HxGRqYMGHCtvPzyK1E1u2jRInn77beF/1y6ZHHumg63Jti4XhfBa/imm25Sazla2rRpk7qF2q3jZNySNmzwr1kS5/ytt96Wv/6cGXEvWtcd1Sg9epwqDzzwgAJzTa4dTyT7lEGSiX/gzuaqSMBjAA0kx+rHSRxc9QQRfEZSOVtVoAcAYtRgylpIrKmQQAFqDN9mYEliWWM+KR31Hrgq7kAQx54FfhVHGvKDHFjtN2riW0n9Z6vDxko+gHfme21zDwbmrhZI+G5K95UQEFQNeTLgdx2VDv1QKm4ZkMoPUsWyAm1XUvlE1O2BYG14CKnFg0PHi3F5d8KGsA+BTlTRKJWUvoJhXIN3xATeXKxvvvmGfPftd7Jw0ULFnmhAIdwk6UVFcDzjzD5y7733SNu25ot/xowZ0qdPH6GEHI48Ho8C7H37ET8AevKJJ+TVUa8Kv50Qb3go5hw47SB5P/PMM3IsVB6atmzZIvfdd5/88vMEtYGibZOqlCuvvFKeeOLJfN0+KLW9+uor2Mg/ycqVWEsg0z5E2jx6bngon3XW2fL4449DyqxjvN/4IME70txE1ZjNwwcOpsrVV18lr7/+hnGzvEG+99578sfvv6u5y8+atq7hk7t3l+uvv17xKxri7Y9qNLt1nJrmt8uQZs6cgf1yn5rzaPqdhRsm91vPXqfLc889lzunrh0jKh5xFfThysj/opEtEeBEQyGv/uWgEqiKLHXVAMLMTxIFUAnULKZSKAfoBfAyJN2HXB8+RG760rbnRHDu9vNW+WDnJLrK3C9J1+PkrRQo/eWCty5awHHpCE+oMNzUqXNciPBUmeqq4qZB6dlQZRPtmHy8nVC6Rui7bx/cFaHyEY7rACJTIXn7vXgs4wpTSSeaxfX00yOxyN+H7nR/gQBD8Le5AbJQsab7KT3kjTfegI4OOVUMyBS8PdC/79ixWyZMmCCDbr5ZMjIz8jWOQ4eypEuXrjJm7FgFTDzUbrzxRhkPVUUCrqamtw/r0LiZ+N7IkSPl2msHGIz6yCM8lB5++CH58osvJfNQZr7GZPdBvdnPPudcGTVqVFQ3hKIG7/79++EgG2U3JPU71WZ8dsWK5VGBX7jGNYi3aNFSqeiuuOIKo37woWjBe9euXdK/f3+ZPesf2FEM1NNBPWFfeej373+tvJRzUwkE7+Cue3PAnP7JyuuDxkSoWKguqEkVC1QG1OfGQD5ItEq3vB0BM/tgAKV0TX1zyhZEbkIvSmBTfyEyE5qCt7V/+oDiIRVfFuPy+127ykNtVAXeINWg0qF6JYobQqjhK7sAbw3bcQjtg9pFSe3wL8fNQZhtMdK4YgTvsQAqAkRGRjrAofDSpeoFNXDgIBn59NNGq8AUvGm0WbJ0OSSis2T58qX5Hgf7eDAlTZ599lkZOHAg1BRfCfWs5cshTYNWsBv1PPChLHi41KpVB/rqH5UdwJSeh+Q0cuRTyHxAib9w54bj/t//HpFhw+407V6RS96m4P3zzz/LI48Mh21iXYHzjXNZr14DGT58uNKFm1C04P3UU08J/2JZd9nop88VJ+PGjRMaqSODdzDoUXol6EEf7q4EKZyVWJjLo3pnGCABePQWMZBeqVLx7qWeF5Gb+yFl05NlP1z20nI8EJQkapBGNj/gHe6A4vlAdRHVRjykkFLVXQ1gXr0F3Prs1UZKuj64A26HSGS1E/mtkV2PQO3dB9dKqH/ySNeRVkgM4L148WJcRa+G1X2L8SLPzMzxqc/pU0JCKXicmBkzuaDiSiXIz7/8AvUJVFU2ZAreVatWk8cef0L69esX8zVeA+3HH38sN9xwg6xdu9qYN5GGw2s/bziDBg22G7b6/fdp09QV/WDKAaPve3FVzsoKNMomJZlLbRx3xYqVlWHP9IApasnbRG1CDxwan5ctMz/EyTuS6Tomr5o1awFV45tG6zga8F6zZg2MyN1k//69RvMeaTGlpqbKBRdeJO+/PzoK8A4lvZI/KKHlqkDXPkivFWvi3+FK1ur8kBJ59uJvIIXCMLcf7oWpVBvAJQkRnYronRJKuo40koIA73DjotqIme3UAQUja5XOEtemb57DiRK2Z8VPAGno5ZE+gB44vgPrcGtIzU3vGvW4YgDvyy67DN4TkyXJ4GqWCZUCiV4kVatWhf42XqlZFsMQRH2iSRt8nyB2xx13yKOPPmoLYibgTWm5bNlyAJzaMEotUeqNWIkqnh6nnmbMG5PvkX/NmzWR3/+YKXFxkUuu0aXxgvPPl7lz5xiNh21Tz9myVSvlEsi52bNnt3KHI0UzN9ST0jBnQgTvcmVLG4OeSZvhnuG6ueWWoTBGjwjbDO0ftC9Eu6bprUE6hHkn0aZgB+Tk+Wmn9ZTRo0crN9lIZAre2EiwPTyh9kdB2BIoLCUkJWNfQF0coPPO70xQvaJznSRUl8RzxiCj3rEBrVEyzRzdA2ANo1w2ns/JWx01sFlbLWjwDh6/Hhf3ZVIDSbr6V7/vuYWYSuDQ91djlVAdgh84LpNbQyRe5xO86e964okn2l7NlEQHvW337qeo61fLli1VQA4Bgic7JZ3fYRD6/fdpRiBBYKxRs6b8888sFRQRiUzAW7/PhVrKolrQh43pZgzuB/sZj01sVZdoXuSnTa02Wr1mnQpkikRTpkyR8wHedhtY9+fcc8+T9u3bS4sWLXCQMVAoHpIbDlbcrAhks2aB14YHdLtj2kLDrkwAACAASURBVMrkKVONdvdZZ/WRf/7+29iN1NqoSX/08xxnSmq6cmGN5NpIdcmll15qu6bZLtdHz569lI9/BRxCpHTYGFauXCmff/YpbohUVYW/uWgVG6VvHhixgjfbi8f6rVmrtqyF9K2FEOuay8+646HH9VQw4B0EqAnnfydxTQPds+jql/kSvE2CwM9oRYV7qLDBO/igGLQaqpVA9yvPptmS9flp+a/oHmps+QTv+++/T1577XVbgKCLVn8Y2i6//HJp166dCkSxEqWduXPnyiuvvAz3vJ+NQIILav78+UqKLyjw1u1o0K4JX/MaNWqoCLptW7cg8pDqB3uJKlR/9AaihFYbfr+kfXv3Rt0mxz19+nTFx0h02aWXyJTfpoCX4dWB7BMNrEOG3iKX4wbVHMAdLNEfQtDOP//8DR3+c/In3M3sAJMAQumT7mp20iT7/8cfv6PdnEpIhpuTALVq1UoYFL+07Y9ukmvwkksvk5deeinP+tPPpCNw7Nxzz1E3QbvbF9dIv379lcqQAV56TXMtb9y4AX37Sp4a8YTiQSQJnAd84yZNcaj8JJUqhbfnmUjeehxsU/ef/eSaO6Zde9gXKqhgNe3uaDeXuj2uuddeG+WAt+H6xLEOz5aiAm8YVZNuhk92FF49XKTUOe/F1TrSQufiORU+oy+8+KKtHpQRf2ee0RuSqr3ukAvqhx++hw93jwIFb/a3JqT6S7HRW7VqqSRchsPT3W/6H9Plu+++w0aNt70SWzt1+HAWvE58cvEll0iH9u2kVm2/Ox3D0ZcuXSYffzRGSed212y+w3F/88030qtXr7DjpsTcsmULKQUjZSQjaQYChPr27SvPPf98RODgh+i/z2dNVBzsIw/jcJF6wR3nARENcUw33jAAgIeDPsneVsU5bQV10OjRHwT4LQd/U0vddrcVtseoWno9hdPtc0y33XabfIUDJhkBO5GI/Hr33XfUmgtH0YC3boP95C3jjN6nI1aijVIN7t69C3MzD8FG3+EAXGV0+LF/9917rwPexou0KMEbnQpVwzJSXwlm3BDczKRwwMOJ/xnud126djUaOiXGybiiJdtsSrY7+v335SKbaLlo1CYE2cTE0vIsdLZnn312Hpe3FcuXq0Cb8bh62/VPD5bSLSW6W269XbluWYMe+AyjC9966024pL1q1CbHPebDD+X8Cy4Iy89ZcA/jdT7S3PiNk4chxc+QFlBj2RHBqCvmkN4XdmM3PVjtvhnu93HjvpHrEGzDoCU7Dx6tLvn000/VnEaivn3Pk5mIC7A7EDi+r7/+Wk4//fSI7dFweNJJJyo3w0gHc2bmIWkDQYhBYeHUgNGCN4G7a9ducv/990vnzp0D+sm5nDhxIryhbhJPdhZULZGN0lRt8tbiqE1MV2wxB2/6kZ533rnq9FbgHcYNrj5CvAmgwaqScGx4/bXX5D4sODvphxuIgSf0Q41E0YA3F+ktt9wGr5PHwzZJ/Xy3rifZXod1AxnYmBdccKE8D+mWxrlQxNB9uoytWL7M1ieX434fh1akEG/2kYbk7dv93lSh5sYL9cbx0NVOAGCY0q233iIffPCh0dx8Bp1vtIEoJv1YjgOUHjRUm2gjYaT3yH/6xj8N19JIRl4KI+1xK6IqIdKBQDVTE+T+YIoDk+RTF154Pmw5f0Q88LTue/r0P6AOax9yONGAtxZCvoCfeufOJ4Zlz60w3o4dOwYSeeRAxqysQ8hlg9QfBWKwtHYHIJdw8c+os9gloJMlXuedBbXJwCLSeYNz0UreZDbzPNAbgTph/qUg4RTzJlCSoEqAkV4DBlyn/JxN6YvPP5cbENRiAt7PIpJxIAJqCgK8tYS8aPFSW/VOnzNPR7KtubYSKPtlqkLgWB5HZKfJuO3Am5IVpVPm32CQDlVcnBvOB3/j3PCguvPOO3Fo9DWdGui90Ud4Mpj08dNPP4Gke45x2yYPciz0nZ+Am4+ddMz2CLTHI0/Hu+++Bx95FF6JQOzvwIE3G42N0iz/TOi9996F58cwo3bpV37nnXfFDN6c26uuukZGQRCKRFRt9ejRw7ZvPFyY7bNwwPuyKUgYddy/C7yzAd43Fm/w1gwnIFAvTIBIS0uVTBiH9u3fB7BIUf6mdD0zJR3UYgIQI558UoYiWU9BgDcltMaNGsg/s+badvWll15EgMUjtoue4NGocRNkJfzbts1f4Ld+CXTiJuO2A2/rx6zgzU19CC6EnJs0pH7153wxzMyJRqneufvue4z6yPw255xTsOCtv28SeELely1XTj6Eiunkk/PWMQ2ekOuuGyDjvvnaVgrlYfw97B49QuSvCTXJc+bMRq6b02x5RoGnLbx0Jk0CloVwA41G8mYfuZ7o2RWJuDZokDexY5QDLx3wtt3GOQ+UIPA2HZLJc99++61RoAwXaEGCN9sbCN9k6rvt6Kfx4+VyhDabAC31ivTUsCMCPHWoJm1GA952343m92ikyIIGb6bQveqqq5XBzU5dovXcDz74gMrtYUf0ie/Qob3s37dXudpFIq4TJqhq0AD5iwxoLzyKGjZsaAuQPp8/QGoJDNihUj+YgjdVJgmJycoQbqcOYfeZvTIt9SCcDiIbVZmUzQFvgwlXj/zLwZtXea1qoeROqZ2S4aRJExHO/bQRiBU0eJuoYTg10QDtiBG4HcAVz46YU/vkk082Gndhg7eeG3qtMDcL52Y/pHUa6d6HGsAOFAhwBQneBMCboR6bCtdHkzwdlGIpGTObXnBa01DzoDP22R2cBNiDKemyFWmO7Xigv0NeNoOOPC3NHiDJNxoSgw2MbMsUvLmHjkeWx19/nWi35NTvvU/vBR/+f4zG44C3EUv/XeDNBUXj2b59+4X5pJmOdMeOnUr/SmDQ/+S/b0Aa2U1In2q3SQtD8n7j9dflKvjt2lE0QGvaJqU5enPYAYiJt4ld/62/M/f6LuRapwGac7N7127ZiX/nnASD97q1a/DMDlvvhIIGb1N7AMdFH3Pmz+YtoWPHTkasmDFjOjJPnmXLewJxNlIVb9u+wzbC1frh7t1PlkULF9gCJPn2xhtYg7hhBJMpeLMNRrcyytWErrzyCuTLGW87drblgLcJR/8Fkjc9KJiNbdHCRbIZlvytCHLZu3ef2vw7kcR+z979YT1U7ICb7CkM8LZzwdNTVxhAG1WbY8ao6Mn8EkGaHimscrQFUiQP0507d+GfO2Tv7p2yd/+BkHPD9DN2bmV6bgpK8qYHRn8Ew9AQbrcutNcGA3GiMpJ/ASP5DfZGcoI3Je6Vq5CdMwqiCyILk5gczPcgZ/1DDz8cE3ib3vb4ESbqGjfuW9u+OeAdxYSXVLUJyzRNnjRJViBEmACxaME8SYVxzEoEgbi4/EUq6nYKA7xNAScaybsw2jQ9ZIKX25o1q6GWmoQr+BpV+mzlimXwQc+pRJXzcEHNjem4I20JriV6l8xChKcdcLMdqkv6IE82w81Nojv1t19++SVkxRxuC2B0matTp57MnTc/mp1sDJBc05SE33zzrZjA+8UXX4A75Q1GfXTAWxdj0Pm8jdhm81AJ03lrx3/q7H6ZMF72QEVCQpCfkbQWLcuOJnibulhFoz4ojDY1T5mXeTyMrJMnT4Kb3Y/IVZ5T+Dmfof52cxXNuMO1RSl32LBh8vHHHxm5ZFJdwjzZjFTkP6Ohxx9/TBmV7STjjPRUhLI3h0cSyhRGQYMHD5KPPvrYtn3yrTeiIVntKJiiUZs44B1qcooyt0kJAm+qSN56663ckFtTwOY1lwYx/COA7PJK8OHCAG9T3+TCANrCaJN8oiqEJby+gGqA0ZzRzM3hEDU7TecmVsl7woSfEGh0ua2XBsdIN1UPatG98867+VInDR/+MHKevGwLrvkF79tuu1WF5tsdDrQNHXf8CTBaTnLAu0Qnpioh4E2j1ovIW/LKyy8iI1+Cba4EVU0kBxS8sN5XrVJZqlStrkKdS0GVshu5UtavQwJ8m7SshQHeplGBhQG0hdEmgZuRnfQQMUm5m2dukOO8WrXqqm4i52YbwH8LihabzE0s4M2sfMyDznzaJsmTCHqMtH3+hRejMiRqhDROsJZPyfvuu+9Sni924M3DoVWbdkjWNd0Bbwe8De927ngEBCFfbxSJqdgyr7YjnnxcXnjhBfiWJkRMf8nnmUuDYdnHHnsskhY1Q1rYilIPVWFqo8I2M57Fw5d0BuruMd+y3UJ3wDtyAAwDMJjv/N133lb6YrukV5wbRi22Rxg0izwzlJ/+yaxJSf0x5+YnSMOjRr1mNDf5BW+qeO64/XYk3/raqDAx+92+QwcE44yxjaIMtxtYBYpFie3WXFZWJvhRP2qddzTg3eaYDjJt2u8OeDvgbQjeKM+WdMN8o6pE1haZae7CC/oaA3dz6CKZ/5s5nI9BoV4WZAimoxmk82+SvJkulTlATKLnCIDtkMu7ByIuWXSWOb1DpSctiiAdRkTegqhZ036XR/Qu1UKMYswvPfXUCJQMG2kL3hRWKlWqgkCapVF96vbbb1OVaOwOB94gWKP1u+++d8DbAW/DNQbwTh4Y3YKkT/bFF18kc+fMhcQWOSsZSz4RrJkik8mKIiUIOlrh8ZTk/y3gzSCSC5B1kAn5TebmxBO7YG5uVVVdItHbsGvcBVc2OxDKr8GSHjD9+l0jW7dste23dgukyuP++x8wXOihH6NvNSMx7cZF8E5OLi1r1qJyVRTEKNtPP/3Mtn3y7cILL1DJv4LJMVhGwfCQj2Yg38gNBtXjY/0O3y9KnXc+wJveC6x+bbfgCdzly1dU7ls9e0YGBw7bAe/IGd5MgJGS6F133WU0NyyEy7lhNRg7GoW0tQ88+KBtuyZ9DP4Wg4UGo6L6r78yLapZjm7mqma0aaQiBnZj4u8/IMEag7Ps1jLB24NUups2oV4rClab0lVXXYnc8z/atk++DR06BGmHn3LAu8Albwe8cxcVK47MnDlTSsOYFYkiLchQ733yyccIhR5ktNALOjz+3yB5M+UAD8mlS5cYzc0zyGbI0HMTeu65Z+Wxxx43mptodd48GB56+EGoSyIfXuwnS+qxytGHH3wgHWA/iZXmzZunknTZgbfOmbIOBnW7MnTWPlFNOBO2HLuxca+88MLzKmDIkbwLugyaA95qTVFKqlevnpFekgtyzpw5qJTdzGiPvf468nnfZ5bP2wHvvCxdv369KpFmpzNWbpoeryosGyoRUqjJuvfeexC+/aYtyEUreTPz3sUXXYyAoRTbBEnsNzNA0khul8vdaMHhIbpQNm/e3HZcau1jPVO906hRI6PmCfitUZFp315UnEq0F3RYDo2ZOB3wdsDbaIFJlGqT2bNnQz9qn+aSG83nc8kG5CphVjITMrXMcxM99tijcvvtd0Rs1rQYw79F522qzmLKVB6oM2b+aTIt6hnaOJg4zESCHIsQ/r4GIfwEziFDhsDDYqpRME4WsuYxd8no0X69MO0nXFtlypTGX1kVvh6NSoNtMNaAhRh27wbAInApEnGdkMdMImZCpoKO1uHTTZJl+BzwdsDbZH0hBDI6gyVrKF577bW2koraaLXrGrtWUUrp1q2rKvBgoo655x7kgXgobx4I66D/a+DN6kIPPviQ7dwQhM488wwE73xptEboenjssR38EqRN+lC2/dqoUXJNv34R26aK53FULeJty26+dUMMUW8GKbl+/YbqfzHXCtO40u2UGQT5VwWxA7wZEuSZr9oEzG+7FYE0UMPYqU5MXVR1fxcsmK/yidu1y8O0Tt16yPA3K6SgUzwMlk8m+8SLoSFsWlz2hgnblcVKOoVdjAEFelWfszIk6aal4qrgr/6tycfw+HfbiiQgsX1BjasoDJbenHElV4nK24S1I2+DL67dgsw6lCk1oJtcuGiJ7TTyAdMrP59NR8EHSv+s0h2J/mvg/dBDD8orr7xqOzcEodNOO1W+/fY7o7nRdTHt5pyNse1b4e73BIplRCKG67NEnJ2KJ7gNAjg0PmGpQvly0rJVG1R1b4XbRXNp06a1CpkP5ZqqGxk3bpyqMWo3Pq67Ll26KAOkCb39Njx07jLz0LnvvnvlgQceDNlssQDv3V9f7fMd2C2+1A3iO7hBhKHRqBYubnPrbcDoCgu8fcj/kLNAXGVQAqh8Q5Gy1SWh5/M4c8oFgnf6HsmairJIqTsxpvXiS9vu/10BeT7HVVjg7cW4yHP0zVWuEf7qi6tyU0k4NfJGsw74TVTNvgfVpO0WOiVp6lU3bNgYtrCqtd0RTz4hNKCVK2dvtNJtL1++IqK3wX8NvOllQm8Tu7khCLGgwOzZc2wDeMjrQYNuVp5AJhIyddIEy8mTJ4eddxZAOPfcc4VFFuwKGpuApPUZ9pe5TkhURzA1LMt9HX/88aq6DKvCBBOjUY9FsI/P54mo4mPbjBBetHiJkuojEW8WzChIaTrSGLXK5Pfff0dRiA7FF7xRR8/n3btevJtni3f7ZIAdgXwT/rYiZA/AEi2QFyR4a8AmsCUTsFEtA4AdV7ObuGsfL65qTcMGsvjQd9+u1eLdOks82xHeqoAcB1QGgDz3phEFkBckeGvAjkNx1bK1/YBdvoq4a50ucXWOE1el+lHtDxYtHTJkqC1AsFFKYdOmTVNRlZFo8eJFctFFF6GayR7ba7luh22/jhzcV0fIwf1fA+///e8RGPNetJ0b7TlhUhVG8zAaCZlz88MPPygvjlC0du1aBVR2h0xUCzPEw1YgZ+ToNdf0w0E0KOShctWVV6rEXWVsPF5SUlLlkf89itqUke0t06dPR1yDfZ5wqkya4oZA8A5nGyoWkjfBO+CU3LNOvNvmAsini2//RoD4Zvyh6jWB3ERyjRW8rYBdmsBWD8BWVdzVThZ3HQJ2s6gjD/1Avkq8W2aJd9cfom4aKZDIM3aYA3ms4G0dV7kGAG0AdsW64sZBFMdxRQnY1jkzNYrxnfT0TLn0sksVoISrl7h69SqEcj+GjfMTnjFXpWVkHML1uCWCaz4PWzT4vwbeprciPTdDhgyGi97wsHrhhSgiQO+ff1CmLdq5Obl7dxgWRyt9dDAxNe2FF15Y6OBt/S7XC+MOCKr0yAmmGfj/fQC2djUyqbZhpOWnn30GoaRjyPNl44YNSrX4BwDZjm886JgN8dJLLwt7VhVL8M4D5FvnAMgJeADxFErkGyMDXn7A26oSKV1dBCoRNwDbVeM0ABtK3FcNL2FHKwkoIN+5Ujxb/8E/p4v3wC6RFEjk6Tv9TYU7oPID3lbABlhLOYB1OUjYtc+QuLoEbLO6e3ZjNM1nzXYo+WQiBelTI0cqKaR27dq513QmtaI/8kcffSRffP6F7SIP1S8eDjch5/Pw4cNDHg7/NfCe+OuvctHFFxuBolY90e2ud+8zAlwGWVmHUvk7yI0yESW17AAo3Nw8+NAD8Agalkc1YxqMZbcWo/09kjGVXiesI7pkySLUyYx8S+ZB0B23irvuuhO69TYqFwyDeJibZQ0iWz9FAeYPYAC14xt91pnnhwWDI5VWK/bgbZ0I374N4tkMyXXzBOiQ9/mBPA2Sa7BEbgreVmBLqgZgawhptDok0S4AtpMgYTeBhG0u9fnS90K34oJ6pZLx+vF5DgHAV4lny984oGbiYAKAU2UUSrViCt56XFSJlIEOrmwdcZcFYNftA9DuKO4qjY37Z/ogQfeYtm3hYpVl5ALoB/BDANmblcSjr4asHfjjjz/IwgULbRd5uL7p63+4oJD/GniTp9TdMizehfVpRwQhPjto8FDl66yJLmvjxn2DDI/rY5qbjIx0mTjpN+nUKbAk2dEE70j5rqdO/U35nMfH+10QIxF51w4uhuecc65KisXUtHQ3pNvjjOkzbPnGw+LwYY+8P/p9Oe+8vhG/VaLAOw+Qb/oH6pVp0CNDIgeI+9IB5IdRoQV/Eb1NEkr7jXPJBDa/JOqq3l3i6p0E4G5jt7aP/O714Jt7cCPYgu+vgTpkLRqNg3oFahUa/srXEVdSBXwrzrhN7/YlAPLZ4oPu35uyB0COsWnVijcdni2rAci4GVjIs2m2ZH2OJDzxGBcBu3QNfB/fLo+x1ToFqp5OhQLYwYMacG1/JNAZp3xrTUgBOHR7oSjYCJaFBU1KwAYyIUpTrBPIWnzB9F8Db46/J7xIFi9ebJu6VfOqsOfmuusGqHzZVsoveNO4R/LCEO5GcnKTA8r6Xa4Vu2IFVyOc/Sfqvg3WNg2/Jms6+BmOIz09De6aZ8mYsR/ZHhQlFrwDgBzGTs+2hQDyqeLbBxDdh/zCfd4GGAfmZvAdzpDMd6ACqdQIKpHK4qrZy6/rVUZHQwk7OxOAvVcdGN6UdX6pGQZJ364ZuAGgV1xHOBwovbtrwfBXuR4OB7RfvhZAF9J9XLwJ9oiSyGHs9EBH7ts+SbwH8c0D8NC4Zkpe8N48R7J+ulHclaCbB2i7a/fAzeEEfLuh0bcK6qG///pLTu/d21Y/GO33KIlUrVZVlUnbgQAOSkCRiM/HlYqTK6+4Up4NUXT1vwjerPI+YMCAQpmb2kgRm5aWKgdQ59JkbpKRTnbYsDuQKfDWqMDbg0K/qK+Qh+LiXEo/fxgxBF48AJkgD7lx4eCaCEUm4M3bS79rrkE+8WW2Y4x2fevnmcmxLZK1vfvuu0bRmv8K8M4D5BtnQkXQWdxVmwTwkYCY/TdAvdGpkLRpdDQE7Kx0JWF7D6wFgG4Q7254kGyegYNigV/3zjXhhtRrJQ9uADm/uaqgL7Ug/dZopbw63OVhKCxdRYG8CeWqVjbNlFLtLvNL8xby8fDCmOPqdylywA7uP3XYc2bPMpbw7MZPIK6CNLHMcFeqVLwMu+N2uKYlh92IfL4SgjL6nneeKtoaSmf4XwRvBtScjblZssRc+jaZm7oIfCEQ0/Xzqaeeing4cG6qw5XuMhirmbEvWAURSvLmO5rKlE6UGrXqKmNnYmKiKtbBnOTUIZct63f1O3jwAKrcI0c8EJy6Zpbi27Nnj+zeuU3S0hHDkEPWQ8YEvPkaDY3MoLgB6QbsDik73gXsX1U9yqsCjZ6FW+yJcF00oX8deJsM2uQZH3KWUP/sS4PaYh+8X3YtE+/6SfjvTf7XFWCXMWkKIJ7ml8pBrgrNcLDAzbAagBw3AFeZukrP7krOa303a7x4PbV8+XK58cYbZRX0o6VKRX+F1aPRUlaDhg1U1e+B0I1TH3jxRecr96lQ11dudIIJC6gGS3VWLv0XwZvj//PPP1Ve7M2QImMBHz03LVq2RHtDESJ/CSq5p6iUs4vgiRJcVcdf2s4PTtdffx0icQeEXLRffvGFXI9qOfTs4POk8hXKI3KygQqmadmiuXTufKI0atxYKiBnN/OvhNNBc63QwMpQ9BUrlsu8uXNl+YqVSv+8ZctmRIXuU+1zjR5MSbNVm+gOf/fdt/Lcc8+r9R1JmjfdlVyzPlSPOqZdewTj3G+bgtfargPemhvUXx9KgRF0G6TsLeLdsRRqmAXi2wGPkDT4mxOslb+5IWCHmz0COa9+AHNXGbgh1jgBUnl7gHkLC5BXjkpPbrpQiuo5Rsmx8s0S+Gm7XO6ogEJv9GyouI47oQuy2w1EDcILcrtOX+DrcP3nIaEBSL/TtFlTlR/8kksujTjUaMD7008/lbPPPtuWdYVRsiyaNseOHYvgj8gGLg7iyy+/QIWYl2X1qtVqTNGAOD0nqJKg9uHYTifI3Qj+oXeFprlz58iQwUOEGfasc8MAFqoDCE49e/YKy8sff/wRldKvVMErdevVV9V7unbtgmCaUxER2SasW6nt5OQ8wNsHy6jRLXDq1GmyGeXbKEUzgIhpZC+GR44JcX3TzXXeHDhPIE9PfoQUzcsE3CAY7/AwbokmKXiLE3hzDK5gP28TBhbYMwhvV1J1KnyuoSv30ptl1z8iGTAWErDjYgRru456cqTyBFwBa3aFaqU9VDrNcUZAf12lOSTyQBWJXXPF5XcmqhoxYoTKSbIH0o6VcNPNpWD9JKWQpkiO1BgS9wMPDZdWrVrlGdLMGTPkvvvvl5Vom8R3OsC3lgmseqHqix1pUKT6JRKlY7N/j7zOjMSzoyVLlqhIPZM2WRmIYfx2RP1q586djdr8HP7F9Ec2ISaSevXVUeoAPAAvIdO5cUHiaNaitfJcuRPATXANpvEA4MeQm4SgqOeGBXSZMKxTp8j5wTciWdnQoUOVNH355ZepSjim2Q1Nxm19hgWy6UXy8cefKI8QukY2aRKoZo3UJl3/nn/+OZWBcSUkewopJK5tqnKCjaZawNBt8gAkL7vhcBqM4DZ6pkRL1MPzUDNZc3Y+49ZvM3/4mDFjbdstWzbp6IK3L3WXZM8fK55Nv0LiPgDQhqueD/pqHaLPUbnMjIzRMl98/nDd3G+VQnrIBERxlq4Ao+MpEt8W+u1CcOuLup/5fIFXaVZf//nnX2Tv3r3qCst/0s9dsZVua6iVySsw9ZdMoM8wZRaapW9tJKL0zARGu3fvUnmcn3322ZBAH6oNXqf5jfR0zHMEYgARixLQD92OCAZMzGXS5qvIU80wdDsi//ohkRNLYdn1kwWfowEf8uCjj8ZCBfWHUiVwbvhnnZv4xNKqViX9lalnrl27JlRSAyANd43YH0rQz8FQnJqagmRQ9eFV8pLReNkoK/5wDYQKV7fjV35+53xRN57fQ2La1KnyOlJDcF2Tj3t374AH1eFcMD/SJy/Svyar7IBUATVp0hhz21+F5+eX2PerrrrKdn3QPhDN/mCt0Lfffkf5qEeik0468eiCt+6cb89a8exaCXXJPEjg8PBA1WY5BL13JsD8cI6hg2qTWIGcgK0t5vCecCXDAyUJwUDJZRHtCPVJrc4SVw0SdwkG7eAJ5yKjm9ratWsQgLNU6UdJcZBQSgO0CTq1atVWdRJNQE23T+ln/vx5kHi7GAGstV8E223bELUbgbjJqlcPdMuM9HxhtEleg//JCgAAIABJREFUUcIqyH5a22L7C5GLevWa1SqQxDo3VVApvnbtWtIAOufmmBuTQ0y3PRtG6w2IKGSgT1EBcX5BsCDe47pm5Ols5CxZt36Dss9oF0YKKUmJpXCjbIF6rSepuIZo1nmk/pmsD//Bay+AWL/DtUBjbyRiDMDRVZuE6J0vG256yAro3bUCYA4g3z0fIA6p/BCkRujFBe6CSv9tAuYarAnYkKxVAqtEuCnCY8RVsaW4qx8PKRuqEoSmu0oZer8UxGpz2nA44HCgUDhA4KZ+neoYEtPT8hZnF+BTKJ0p5EaLDryRHcyzaTpc9RBhmFQRAJo3k1iosfroKsi8JDsWwJ8cYfpMmJUOa/VhBOgcOhioYtEN5KhdXImItkyAARK6ayaAiquF/CjUazOQx9BVUGC8U8FAiCilyyEDcRxyOOBwoOA5QNBlMQeTfN8F//WS12KRgbcK0nmjscQ1uxwSbyt4eDQVKQ3DYBlEWNJ3GtGRJkQ3Qq8KCpov3p1TIJVDEs+CigURni62URqqkHiAdVISjJBnQrI+Ft+DN4mpOyAOGV9mGtpDzhN4vvj2b0Ug0GzxrPsJQTpT8wTpmPTZecbhgMOB8BygimA+6laug6E1CfuWKoGWcIWk8dGh8BwoWvBmJZ0E5CfI5n0G9rI65/jzfdSE33UyoyDhc00gj4/siWAdji91B4AcYe2bp4sLOcjdyIvirtESknbk3L4BLKF0DSnel4Zsg+mI3tyDYKBNfyIL4WSoa6B/Z0oFXMeSbs4bHu8srqLhAAM/qLunDl9v6tatW0dMHlQ0PXO+EisHWCeSro/btvvtIKx0w+LKLNzgUHECb6sE7AUwEsghMLsqdkBIPdUabfHvcIMqDTBHkilT9Uq0k+wDKKtkVvBwYSCQZydcFrf8Kb49f/uDepSroiVPSJjEVNF+13k+fxxg8i3mF9+yeaPEI9qTodqvIXe4iSth/r7ovFUUHGARiHbHHCO79+yWMqX9QttB5OdmTvjXXnu9KLpQYr9R9JJ3OPUFgTwngIaqD3edXhaVB5I9IaRdGRzzq3P2wgLNQKA0+JBnboNBFLlLUIDCp/Tom/0TSAnbHSaxkwPeR3WRMx0q3eSSEv3qtcxDHnnkkeFy5513HdV+OR+PjQObN29GCtfWASlzM+BtVrNmXVkMLxKHiqvkHWlmPABzHdbOZE91kGyK6pUKKGSAGo+uhPLwHLEJ4mEiqwykr+VfKiM3l8FoitSv234NLV1H6o8D3kd1H2nw1pVeoi08e1Q773w8LAcQJIiyaMdKGvzp45CV0KfSFWfIaT1Ply+/+trhXAQOFB/JO9I0afUKnnFVbgOpHPlJlNETuUqqo5wXA2ys5EFynB2Qqg/uAFgjV/c2uhzOtZeuHfAutpvFAe9iOzUxd+zZZ59BoYQPEQ28CwDuktp16qskUT1OPTXmtv/NDZQM8LbOgFW94oYR8Zr5eYJqfKnbUT0exg4v9CC5eVHM8lyHnWxH8j6q+8AB76PK/kL/+CeffCxjx3yAgJZ6ct3119tGkhZ6h0rAB0oeeFuZCrfBxKtnwP/6mABWM8gn89228O8uwGyBDngf1eXsgPdRZb/z8WLIgZIN3ii5lnT94jzFexV4vwfwRjBQgZED3gXGyvw05IB3frjmvPNv5oAD3qazW0zBm1FpWVn+ZFOMTotUNNU6VLpo6fwJTIDEMGITsr7HhFYmYcd8h38MWaa/tj+Jf7IKyDB5n/2yA2/msmByJyaS4riY2Ift8zvML2E6PhMe8BmOhd/hPxmSzTFxLIwO5HejLQcW6rscE+eX3+E3SBwHkx1xXAVJ/BbnSH/DOi87diDhE4yIzN7HLJIsvlClCgqaREFsf9u2rblh69Y26Lu/fj3y9ueU6iEPGyNvuOna4FzrkHiuLx2lSR4VxDzoOdAh9+yXnoNY29f7ifOr9wbb1vMcicUOeJsuwGII3lxU48ePlx07tqtRcEMw3Wk9FEWIRAR7VsfeuHGDeqxFi5bI9dzTdqFzk02ePDn3vTZt2ob1s+ZmZRUVuoIxudN6RM/t3btHMlFjMCk5SRo2bKQSBNVBGS8m7uFBEIkigTdBmwV6/0IpuPnz56uE/8xWRz4w4VbXrt1QEbyp+lasIM4MdttRDo4Z+LZs2SK7kSEwFWXIEhISkQGwnNSoUVONqwaq1jBbXn5AlhuamQf5HSYp2gIe8hukypWrqBSmHE+NGtXxjeq2IEfQ4VwQeElVqlTNDUHnb/wO/5jMisSkYHTLJK/4+3Dku2byLP3fHTt2kltvvdV2zqzzyTUwcuRI2bkTtW5BbOOee+5RQDtx4q9y57BhucBeFXwbizqSDRs2jLgmuB71XJBPnIss9JcCDHnPpGtM7lW9eo2o591fUGIn9tZOYeEFJlLj+lX7DLU069Stq9pnpkLOdTQh/dx/bHvXrt1qb3AfHjyYAiHskFpH3A9sk23z33lQkk/B5IB3CQZv5utmWku6WJFYC/bss89CutGPIwIxIxW7dOmS+54HxWOZxN9Omvrtt99U0QF+j+8QrDZv3pKHgzrxPtOTMnF+pKLpbVH1/sYbb5JTUFiAOarDSTKhwHskSn9dibScNHY98MCDEb/TvfspqlgEc3TbHRShlgTHRIDgmMZ8MFq2QRqNREyre9lll6s849FklaOUOwvZ8ZjOl5GH4YhzzUCWSy+9VDogxzdTx4ajBchcOHbsGEjP/kx1l19+uXTr1k0dcH///be89967Ad/i3DJHOg8/plpti7zVGZC8dWQrf//8c+Qw72OWw5zfZK7wjz76SM2RXjsrUF2Hc3Hrrbcob5OkBP86zszy2hZo4OH5xx9/yOjRozGGv8KO/SJUnmeRiY4dO6obmAkxIGzhwoXyBaoL6T6He4+lB5lelu2bpLblocyc9l9++aWw9FykvcE5HjxokJxz7rnCfRI8xw54m8wmnymGkjc3H09/VRIKgMprV0pqupJ2I23ml156UYYPfyQ3MII+09zAdlVw7kII8zvvvI1SWWWF71x66SUo2PpeAAdTUg6qHOKDBl4vHh/SzkLKJiDrK7H1YfY5Nc2f15vgSjBuiQIQoQA8GLwZhTd8+HCM3Y0CBI+p7+QUMg/ojz7Y+B3+PmrUKBWpGY1ETOD++eefZeiQQcLq5KzBnJhUWoFQMLkxGey/HhcrxDz00MNGaUgphbHSDueCVLZM6G/oDc++cEysX3kFALkicrKHIta55DzpQ/fkk7vJt99+BwD+XIEq2+O3NHFupyJXNgGJdNGFF8jU3yYjhbDfY4tr7JJLLsZa8PfTjsg/SpLlyqI4ONRLbJ8FH5i3mqT7Z/Xhj1RdhzeEJ554XIGf5hNvetY1Zp0H8ugRrJX+yPleGTVWI9HOnTvlYxwyjz72mOIL1xUp3NrS8zx40GAZijJ3kQo78GB+BfP7+hv+yFG7vcH9bJ3jq6++Cil+jxzSDnjbrTz9ezEEb3aNBWUnTPg5AIipSjn55JNDjoz6wXPPPUdmzvxTbSa9Ga+88gp5/fU3wnKDV73jj+sk27ZuUsDFDfjhBx/IBRdemPsON+mYMR+qArdMYaMBjouwfIWKuUVreSVlcMYhJc0dAbuGUDd8M+7bkNW7g8H7UGa6tGx9jNKFM6yaG5eV0SvgO9RJ8hsHDuyXDJULxf8NVRg3PRNS3gfqBmGqr/zhhx8g5V4lifFuNSYNFG7khGe+bKoT+L1DhzJVsAkBynpoUPr+8MMxESUzqnqGDBki06ZNywVSHg5UA/NGRD0oiSqVfXt2IY9PXO6BzQ3+wP0PKPAIdShZwZGH3hlnnIHKR/coVZkGVPJGAxQBiVJt+/bt1Te/+OJzFNC4MXeNaSGBYGRyCP7550x888yANfoFDo4z+/SJGrypJrnuugGqJqg+cBSf0P/k0mXApwTov2HPybkpaKGGPGI07p133hm2z8wJP2LEk6qCPIGV88i2PShgUqVqTWXLINEGwWcRURQwz5dccok8/fQzqrBJMFHFc99996kbkLXfVGWVKVs+d345DqoB2baql4I+6HX79NMjMfbrc1VADniXcPD+7LNP5aabBuZuDG7O+wCe9z/wQMiR8dpGab1c2WQsDL8ezYsaotS1LV+xKncRBb+sy4JROiJ4pWcgExz0y7ocF/8fq4Bcf/0NANNE1bZa+EAfPjPsjjvkOKh4eE3mtfTXX39VILodRqxSqEulpdVTTumhqszoiuS6H8HgrTYRAJwVUrKzPVITBSUGDbpZXeUJdtTxTpjwEyTt12QX9Kzx8cx94B9rSmqGKhFnUv6KFWmaozRc9uHMXODmhqtWvZacdVYf6dqlq9J/7oLEtnbdWlz3R0NPukOyAORWAGf1oJEjnw6pu2RS/xtvvEHZIawbu1z5CsqmwIotWv+7AuXT3n//Pfn7n1mwH6TnfoPzTn5ecMGRw1Tzzgre5NnxnU+SVDy/EAeflu5dLp+UK19JAQP/qB7S6h6qKFjrsRQCaLTqhIf3d999h3Jp9oE0999/n7zxxpvqoNBrgvzXagxTyZsH12233arUGVY+JSWXVgfjFVdcgbVWT+mov/76G6Wnzj6cFcAjqhTPhRoimAjITIbFKkTWthMSk+SYtm2g2rlNWPSZRPvN999/B1XTBNm/b2/APPN2et999+eZZ5b0o5pL3y7Ih3jsufp1a8l1N9wEA20TtQdSINT8hhJxkyZNlm1bNkqpeCTbUwDuX7fWQ9UB7xIO3qw92B7VQcoCjFmhgpuzecs2qsRWqJSaf/zxO/Ti5wTkkiALuBmtCyOYLW+//bZwYXLxsagtgW/e/AW5j1EiatOqOQAuWS1cSgsZmVkoLHuR0nuH8oJZtWqVXAjJ3QquBCGWFaOEYaVQ4M3f2ZdqMEh98803yELXLM9szkOqUUpE6ciXwepBJF77b7rpJmVAs0s7+tVXX6q+6E3H79VvUB/1Fz8N+T0a+EaNelWN2YNIX/834QlzME1lRQyuPclDj7y99957c29CHvCudOmykOJGQsUTujDvm2++AdXBk+BztvoG571UQpKsWL4SIByo/w4GRz5L4lzxcC1fvqJ0QVktfqs2jLpUcQTr6S+84HyZNnVKgOrE7rbGb/DG1qJ5M3Ur4brgOuOh99lnn+fOlSl401h+wQUXHAFA8Ck+PlF4OFBosBqjOQ/PIErzdSQv8yHNs+ZRLQQB/fX3P3mkb659FrvOBVfltRKvVDp33DEsJEpQABk8eHDA2uL4WEOWaW01cY7POedsmTljJvYBb7s+eEVloBbsfeqWGoq4N4YMvlnmoCoSK15xb3NvUMfO2p+qVmdRFSBW+byZErYgA2eK2s/7pjVIkIV84cWMWrduKXv37M2VLrmA6H1Ba3Uw/e9/jyhwpN7aSnyHekRKGMHExXfRRRfKlCm/KYDhszQyETxI/J1XwrfeeisXgNLhHdG+QyeZAiNnJKJh7Mwzz8wFOgJL+QqVZdHiJQEbLBR4E+TiIZlQAmIx2HD0Eaq7D4ZK4ojU44FOOiMsj6zt3HHH7cp4pvnllzi/VQV6I9Hj0MM/+yykOPDLCymLKpY3ACR9zz8/4DXeEBo1agRp78ihl3XYIy9hjq6CpBaJHnzwAVXMWI+Lm/tpSPc3w8hlpWBw1L/xIKoEHfDLL70svaFKiUTfjhsn/fr3D+Ah7/Vr1/pzcIcjGkupwrPqs4MLNpuANw+BXr16KUOiVvdxLriehw27M+z3KXDwcLR+/zMUjCYIaqLUTQNzcNssqv3ww8Mj8oX68cFDBueuDwoG1OdTBakFA6pMuBetAkClShVlGQ7aSMQbKg3sB/bvw/qBCgclIctXrCLz5s1XwpAD3hHZZ/mROu+bNyNFbXirvmlTBf3cQw89KK+88mrAAg1l8KG+m14dK5YvxoY7YqBif7jounXriuvgD3mkUV7r6WZn3QBWAOMio0RpBaBsj09J8lYJJNy4H3nEf6BY26cxqnfv3rmvhAJvbt4HHrhfXVMjEaUwutZRD6rVJ3yXuk16a0SiHqd0l8WL5kOf6j/s+B6v5Xb1NflNegKR55QIe/XqqTxigj0eCOiUwPThwEPvpC7d5Mfx4T1NdH+pAmvfvh1kMp+as0wcfBVw8C1dtjzAdS0UeCt/6FIJSgdLVZUd8Vs8IONLuQNUJ1SvdO/ePezrNKaOHPmUGh+/yXVhVZnwRRPwpoqO37ECIA2oa9eujdj1YB6lpKYp4P7kk09z35s5c6YSIKxt036ycuUqIxfDFs0aq3XBtcX5pmCwatVK5TZKohTdqVOngEOWRnOq2OzoFxjK77r7bsXz6tWqysCbB+E267+NOeBtxz39ezEG7ylTJsv55x+5TnKB0j0q2ABJv+RW8ObQi1QHBeghcgHSHS7Y5WnSpElKvaH03cz6lpWtAEwDUbBBi+2ccUZvuEP5vQHsiBIPXdd0v0L1Pxi82Y8s6LophfBgsSPqMx977PGAb5wPKZguapGoW9cusmzp4lx1AcdGfpxwwgl2n1QBQzQ+hesfjZynAJBWrlyae5hGo0tmBwYOvAluhZ8FHHw05llvIqHAm9/hoX/PPffajkM/cD6MvLxJWefpxhtvVDeMUMQDrAeEBT2+cOvCBLwfe+xR6KOfDxgnbyfMg2JHg26+WT7+5JMcnTvtNRnK4Kh9p4cOHaJcAsuV9ccasJ88cAYPHmLXtPr93XfekWEwhFqFj9Gj389VeVntRXyeh2zz5q1lItYRA+TsiPuWtqLgg98BbzvO6d+LMXhT8qW+NzGBhj9ayP2nPwNKrFFqX3/9lQwYcJ1aZARuerrRCKW9Lrhox+F6TC8EK911151KSuXipmR4bMfjZNLkKbmP0KA2fvyPAYv//ffek4uhazYhglx9+BQnJSWoDaX7z3Hpq2cweLMfnU/sIj/B08aE6DvNcQWrTqzfCNVOMDjyhkIpmi59FStWUhJufgN/6PJ2DAoR6D7REHooy6MCgEzbpOQ8ZMjQAOB48403lP+7pmBwPAy1TBw8cigBm0bksq1xsCvQ3c7KQ6pMaOgOFaSyHMZVHnJWUAv2UGK7duBNtdypp/aAgXxBgMqEa8KkEvz3MKzedvvtal2xLXruUC9NMOQB2qB+XfX/NZhzH3C9MMDLhIJVQwfx/g0wQD///Avqda4xRoyWTk5Q+5PEdcTbJo2nnAPOd6hAnEjfd8DbZHb4TDEGb3bvPLj/zZj+e4CEGGw4oaX+Q0ia5cqVUdLFNddcI9NhwGQUWTycl1NS0rDoblQW99wzC4ubvrFaJaLyaMOdaujQW9Qj3BB0jdK/64XJIATTxc93evU8DZJqSsAGIrhpt6tQQTpWvbvdNFLSaoSIPY5dE8dCz4FIvr/B3jx6fI0aNpCbcYVthUIC9AThxqMURRDTYfJ2rojffgs9MgI8NLjRe6Rl67bKIGVKnOPrBgzIHRfHRM8VDRzhwJHS5ogRT5l+Rj1HHrK2ZLDXSbibyKuvviIPPvhQrrBwGDclBuYEu9LZgbf2Ez+i1vDAhdKLaE3UmTUk3g4JogxU4oGpvWR4g6Q/u25bzS/2AT1xTIm+4b3odpmztjIz0jCP7eA08HuuYETf+qWLF+buT72OaIAlgFPtSFVcMlwU/eHxfqEgUooAB7xNZ6iYgzfd63jNs0o5Lzz/vAJjDbLNmjZWfsLa6k/r/ccff6R0b3wvlMROw+dxxx0X0O6MGTPUBiCFqoSiF2bIyIYw/C5dOilA8gi22tvlNrGbRqX3btII3g+HlWsiid+YPn26tIO3TjjirYC/p6enQd97JESZQAsBNpfqIAz7VKQmaIlUA43hikmQY6AUpapwBj1ezQmgVuDQ4GE3HuvvVt5R6ut8Yme4Yk7MfSQUONKLpnfvyEbKUH0YMOBa5YaXqzoB0A29ZWiu8Vq/w5tdTxzIVGtpI/fpp/dS7waTHXjrSGLr2j4FtogffvgxGjaFfPbHH3+AivGqgDngPkhHPEA0ZJ0DvY+ob9f++d9++y1UXAMDDr7cfWL5UPfuJ6v1RltR8+YtVJQr1xD/giVzB7xNZ6iYg3fwFfUgNhUX+Hfffa9Of+sVXftp081wCgD8akjg1o0xZ86cXDe4d9+FPg/WfL+qxQeDk0dJ6pqC9dVHNi8j3vJGIIZjd7DLHvXeDMenoYcUK3izDUr38+bNVm54GrytkYTh+sZDjn7aBGz2k0E/wURpywrmDHjp3ft0+GhfrbwtKG0Gj5GeLO+9934AcHBuQkVuRlqm1nYzM9NwE2gic+bOiwjewXpx023wIwKWqJIJVj/Ra8aq6gm2r/CgHA2vnYtyjG3W79mBN4WFPgjosa7Ra6/tr4z0sVKwJ5Juj7ED0VCo9Rsc6cw4hHEIQovLWT+h1hHXvZWqVqmMQLiL1AFDQLemdnDA23SGijl4cxh0R6LnASVLffrT/5rXebo0DYJPKjcAfZ6bNWup/F25wJg3wep+9eILL8j1ACuC7wXw7506dRq8BfyqFv43owU1MU8DA0mCpcfD2YwQQ29CxRUb8JxSBoNAKPUXFHgznJ+h+1YQMAFvfp9GYapJKIn7EDBh3ayMhAtWkSjpDVF9JHr4UI3B4Cjrc8H6dPIqO/swGmNAEQu65o9qVK8mCxYujgjeOndJtF+g6oTqMN5CNPhwXUyZMiV3rtjmmA8/VBGf+tA/hBvPUtSkDOWlkx/wvuGG65Uvfaw06tVX5YEHH8xzgNIrJr9zwCVPiZvjDbYp3HvvPQgy+lLllbHe5DiOUGCu15EK8UfNVgbk6TYd8Dad/RIA3vfdd6/yMLGCE6P2GJ7dv38/lc9CgzD9kG+77XY1+nbHtFEZzgj6lNgJxrzm0eBp9UHmJg02RDIIhuBkBW9KLQNh4ecC1mlnTdmsn2OgyCDki9BUEJI3A4YmQp1QHgcYieNhODqjB02ILpO8iZDHNHRRFaPShHqzVICMJsrlVpCmDrVKlUqIipytMvZpuvnmgcplTfOOh2rnzl3kBPj26vSjJv0KfoaeR3RT1BQKHE0jTEN9n1LvN9+My+0318ywYbcDXB5Vj/MQospk7py5ufaVHj1OUW6ooSj4BqLWGaR07RIXSvK+/vrrYPB7KT/sCXjn9ddeg6vm/blj4dplANp58KzJ7xzwvRM7nygXwh0wFNEY+g48VHjg0X9dr6VS8OWmP7cmtyVrlVbl3Hb7bSpXDm85DnibTn8JAO9JkybCpe+iAPAmoDOKy2pU5OaYOHGiCgAgWXWvWmJniDeztZ13Xt+ATUqJrS7CwTXpDIXB12i6yNkZ7ExZz+dCgbf1ALJri4BCfeLypYuQkvaISxj9h+kJEA1xc9L9a/HiRcgQN09FwW3ctFltQkrODKVn5J91/AQ4JnN66623c3WX9OJhcibrYcvAm3BRd9H00fpsQYM3IwsJrNY5501kw8bNamzMREieWscVyfvoFujMeZsLeN4C3lTxMB+L9XfykiqnWOlTuBBS0LC2HU43H+u3gt/nLYYGZ/qEUwhiEBzXKdcXQV0nnLOuI+5dnbvIAW/TGSkB4E3JkJ4PyXC544RTD9sOUY4vv/yKSgHLBar13dSBM6kS6Z9//lHRa8ES+2+/TVH5OPj/KZGUhavgqtWBQRGhDJZcYNSnm6bgNJmCUOBNyfWZZ541eV0Zanllt3rFEFDZf80Ho4bCPETeM2CEh9lHcN9buAgVnsSvOtJEvnCTUn1CeuqpEfgbGcD3aMZk2t+CBm+OlTeypERIfznj49iYT701vG++/vpruKQOsKy3TBx2y1XYfSiyA2+mK2aSrCNeOX5vDgaBmZDKzocoR3/yLZ/yCNIJtSZMmIDkbpcFtF2/QeMAm4HJNwriGQI2AX3RooUqVS8zQVJNl4gsb5rPXLN0m6Tu3AFvU66XAPDmUM4771ylo9YLnZM9BOG7r732ulKZZOBqftzxJ8rPv/yaO3IuGuay0JtRv0NQXwADHyVVbs7bcWVjoEswURUQvJH5Lj0uoiFKrpTczFLC+hcxVUEmFHzI8DAqgzSoq9esM3ldbfpobhKUTumKyYhEK8BRx8owc1JwyLnemKZj0h3XhuFweVoKGrz53WuuuVoZw60HPtOu3olw9CuuuFylLNDrre0xHWTqtN/D8tkOvLk+ac8pnXzkNsP1GBzHEO4DNJ4yIInAmIIUAjTkU/VAfvEmSbWiVe3Htq1BPCYLxJ9p0l/FJxJFs444bqqU6DqqbVJsWwtHDnibzAyfKSHg/dabb8rdqFBiXYwEBW4kPfHPPJ03/wVTnlInaZVu4qHHtQYuhHMvu+qqK5XblnUjv4FAEQbvmBLdqriR1HW7QgUlGVkDP4Ilb6t6xyQtKRNXXWsJMOEGsJNyuRkpsfNQoY8wXf+iuU2Eyptu1dVSolSFFIJ8z7WR2YR37BsNYyRKtvRG4J/1oCkM8KYthQm/rOulUeNmMhlXf0aUWuMCmEO9X79++QZvvngGPHfmzP47IE2Bqb3i4YcfUrdPzRMCKEPWyS99W01AaLvVhVTfIkzmgOuEc6mjaekgwD+9dwjC/KORkjYgfle7EJq037pVCxwm+wP6RztA0YL3y7Vhhs1JiKRuk3ldrkwGk/tMoSemgolXG/0Pp0vS4HXFMreJlWfcyJQkrIBg/Z2gFSp7IPMr0yc82GuE7/pVLZkIiV8TMqCFObwZtGOV9o8//jjl2WFSh5ALmmk3d+QEXdBb4lkECvXteySJU7jcJqEiQoPXEDcXD6fxyBdiPcSC86cEv0fV0qOP/k8WLpiv1EXM8Uzdtmn0I/WZLEtnPdSYie/NN9/K/RR9z9OQP9sKHNbQarv9oFMXaGA67bRTUV3mg4BDpjDAO1hFx35SSGAyJ4bLk89cN8yfTjfWcCoTvmcnefOZ4INQf4sSdCTi4dYB+V92bN+ibpC8cTGTIgNrNAULLrptBhiZ3La0WkfDIKDPAAAKM0lEQVQ/e+yxHZRtQwepjR0zBnnqv1E6bRKD3BgVa0o33XSjysJoXUc8uIoMvNnRzI/PEd/uuUAD+FC6YaV3W+sW5gPICwW8LS5aXvhcelGY14WrfJ1ektj3LXHFF2zhV9MJNH2OJzyDcazBKPpdLtwsZJJjnuPgcGbtMkiJKXjBEvC7IscHiz6EIkqKdDe0qk6Y4e6rr75WIemR0q5Sgn7rrTeR1vOBAGANjhIMBd7cZNyYv8CDJFJmu2BfdPIhG7kBeJ2OVHtQ66QT411q43NM1EMyz4vd9Zh8GocN27//kXBy8jE4KvTll19SmeusEmyNmnVk1uw5toUOeCs4rlPHXGDyu5UdQqGNmUr3rKkwwJtt8xbB/DXhbnlU0XU6rrOan0hkAt4USlhXswyCubg+9c2LcxjOZsHDY/LkSapykjUr5P3wLuGfpl9/9d8i9DO6bX7TapwPNQbuN3rfaMFAvzsGgM3cOSTml6cRknuLxNQVdtWu9LfYHo2zk5GOwip40NBepODNDvkyU8SzcqJkr/hGfFsnqYoRfiC3pig1BPICA28rYKPQqweAzXy5tXtJqbZXS1yjrpC4/ca9kkChgj/Yb4IH3eXCZTPrCIlh44a1uVdTPVa+9zRyX9NPPBzRf5UJ960eCGnpTB4/XVojGVapENXps7Gg/4JhhnU39cbRBlXeDqzJlfIkpsrRQRPAmRzpiSeeUEBsPSgocVOqPxnZEtevW6MqrWg+MNHR7bffEXE6eXVmtjl9oHEjcUwTJ07yFydAfpBQkhnHwO/yqj9/wcKATcfSYww40US9LSU0uolp6Ztjot6YrnC8Xgcffrp9SrljxozNbZ9g2aZte5mGXO5WKizw/uWXn1XpvFC3Nc3nV155GeA2ICKfTcCbDfQ58wyZgQpQ1hse+USVCOfeOhece0rXbVs3VwU7eNjqtcUbUbCHUeNGDVUFeuscUDD4HkFJLAwSfFhrrxCWrGNWSw2soQQD+qTTt9vab+b3piDAfocTBLjeGDBH7xe9P6wCWJGDt3UWfWm7xLNxtmQv/kh8W3KAPC7bHMhjAu9gwIahIUfCLtUCklWT7uIqU/xyd5scHj//PAGpTo9Y0K0gHGkz8TqnvUus3yF4M08D9bPhKBeEYKArlWO00VII6/axXBqlYwKRP4rQI8zrTL9VljHTm4vARZ905qm2khW89XVcS2GUiOkt87//PaoiQ3VwEPWatyCHxzxIKbmLH9/1IACD2RNNvEwI/AsWLspzKD2CGqCXwkuBxlplZKVggj+Oizcb6llZPs363SxkY2QuleDvMpEUfY2ttx6Oia6cDO7hmPQGJygxcVVw++QJi18wGjR4ngoLvKk6YWKoRHid6Dk/Mmc+VfmF88YQ70hkCt6UNqmGshouyaf+MABTxUF7hC53R6+fAZCIN6IuqFXq7tfvGlVdKZjojshiDMFt14R++g2oueitpQog5JTTow3ktddGqQRlVsGDaiLanbg2NNGWw3S22guM/5/9bt6sqTz9zHNKzemP3EX7+M2bsz/YJ0rvVg8pq63mqIJ3AJBnHhTP2uniWfaVeDfCmZ8SeSmqV6wSb5BEHjV4WwE7BUZIAjYYVud0KdXyIolrfnqx12mbgLcOrgnWewe7qgW3FZzXmL8TjAgK9PuOpGLgszw0GA7ODaBJAzj/m54wdJPjVfcnZCHk9THYyl8WJdSWr1yTp4CyFbz9N4iLYWD9XhKQUEvnauE3WrdqKXUBFpuxaZnXmmT9BtUKzEHNDWNCBHmCqP6Ofod9IJ2IPCJsqxIyDO5D0nxuuL/++jvPdznWp0aMyFMoQbfH6jLWuqL8//obvBGdgsApEoFA5y2xjovt33PP3Ur9FEyFBd78zuDBg5BO9eM80jdvAcd2PB5pTyfbstkUvNkQx0jf+GDvC/7GdAQE8NU4tOcipwrrqOo87FyHLHLBXD3hEpHxQCSwa/UG2+Q4cOaqakA9UPKtcuUqmIPFuQFH1jlgpkDeIkMlFnvxxReUp1aottnGKT1OxU2zLQA+SVbC75tpK7Zu2x4A3HoMPJhUNHVRVdKxnUHLA74cIM9ePPaIRB4KyI3AOxiwEcGkJey210hc427/CsAO5i/zUC9ftjhg8fJkX7tuQ1gQZlFgZjcj+Fq9TFhFh0YwE6I0zao1Lt/hAPWLFcTZjlWa4H9z4dMQSJAOVQEoGLx50FDyO+eccwK+pTebdeOyfX7/EHYhI+ouQ6X1aIiAzMxvNH5ZQcMKsNb2rBua3808dFipQeiuGY6oOz0XY/kH0XfWDW4FEP1uqPapfw6XV7swwTvSLY/6fKYgtqNowJttsYD29OkzAvhkXV/Bc881Ie4EuNBOVbaZSESVIwOGaL+xqjP0utLvBq9fHp4sZsLEW+GEHB4OjM6l37a17eC9EWp/8EbK/cHbnBY8iiV4W5mrgdyz9EtI5N/7JfJ4ALIbFW1MwNt7EIUOVfIJSNi9IWFfLHEtev8rAdvKt9fgnsUixFYLNV36qJeORCzhRB9d63u8Bl6B4g6mRGC9+qorIIkelFJub25EY/D72sDGQ+X88/vCowBX0KD6i/odShtM8ET1AJ/n7YLEoJc+Z/YCMPsriFtvG34ddWbulZQLn9ff/BBVIcOGDVNFgvkd6wEXqj0GSGV7/VdhFoIwATG2Q39kbnC7b1jb51xfjuK74agwwZuHDoOfgvlBsOGc2alM2OdowduUT5pHlSqWh+56vC1wa/7R2+euu+72V6TPyTEfirfW9ctoWVZKsqOffvpJ+f+z7eD1Gm5/UFXTqmULGYsbjg7w4rPFHrzzAPmaP6BaAZBvQHAGNnLS9QvFVal+wLh9+zZK5ntI84lBuxv0lbhm50hcU+qwq9vx9l/zO/MU66ROelAff/yx0utFoq9RfoxJqazEUHCTSuvWd7ip2RYNOsxwFypBFRcldZA0aJnkF3kfVdPpAUAPDp2Slt/U3xqLtLh//vlXQN9Z0acvQvyZzc5O7WMy+TwsmEZXh2aHGxfVN8wER1Clt0E0xLljgWF+I1z7DVEE+YYbbjRq/8knnwiQynWWyXAHZTR95bP+Yh3vBbx2wgnHB6SljdSmyjMPaVePlf17D8U/QmUgtLbD29jrr7+m3OiC+cQ2yKNbbr0VbqLXRD33zJJIEB+FnORUX4VqX4/9mmv65SksHWm8XK8/QOX3JdLy/oJguXBzzDYo1LBUX58+R2pu6rZLFHjnBfLfJa7hCXlA2Ze2Uzyrp0HCPuNfL2FHWiTM+EfjFom5TehqZUIMAGCEGV3R6AlhBUqT94OfoTqGPtP8J4lBNQQO1pUsDOJ3aBwtCLCO1D9K4/yjl4ImjotGvIICRgI57Q0HDuxH8FJFxTu2H+2BwLWgiQdxtIex3TxZ2+ezVE+Y8p9AyRwjGagxSqJOmoBo+j7BkOkYOO+cC/KoIMfItpmvhW1zHmrWrKUM1VQxxkrBfdf7w6T9/wNVrHLDTBZQOQAAAABJRU5ErkJggg==;" vertex="1" parent="1">
          <mxGeometry x="557" y="-75" width="159.57" height="60" as="geometry" />
        </mxCell>
        <mxCell id="hZKEGMEajTzcgUapLtRP-24" value="" style="rounded=1;whiteSpace=wrap;html=1;fillColor=none;" vertex="1" parent="1">
          <mxGeometry x="400.82" y="30" width="471.93" height="210" as="geometry" />
        </mxCell>
        <mxCell id="hZKEGMEajTzcgUapLtRP-20" value="EC2 Instance" style="verticalLabelPosition=bottom;html=1;verticalAlign=top;strokeWidth=1;align=center;outlineConnect=0;dashed=0;outlineConnect=0;shape=mxgraph.aws3d.application_server;fillColor=#ECECEC;strokeColor=#5E5E5E;aspect=fixed;" vertex="1" parent="1">
          <mxGeometry x="474.62" y="100" width="69.44" height="70" as="geometry" />
        </mxCell>
        <mxCell id="hZKEGMEajTzcgUapLtRP-21" value="EC2 Instance" style="verticalLabelPosition=bottom;html=1;verticalAlign=top;strokeWidth=1;align=center;outlineConnect=0;dashed=0;outlineConnect=0;shape=mxgraph.aws3d.application_server;fillColor=#ECECEC;strokeColor=#5E5E5E;aspect=fixed;" vertex="1" parent="1">
          <mxGeometry x="729.51" y="100" width="69.44" height="70" as="geometry" />
        </mxCell>
        <mxCell id="hZKEGMEajTzcgUapLtRP-25" value="" style="shape=image;verticalLabelPosition=bottom;labelBackgroundColor=default;verticalAlign=top;aspect=fixed;imageAspect=0;image=data:image/png,iVBORw0KGgoAAAANSUhEUgAAATIAAABjCAYAAAAYY4wjAAAeqUlEQVR4Xu1deXwVRbY+QAgJYQ2yiSKiovwARxRHB9RBEDf0KfAUFJ/P5wKCgoooIsM+gCKgI2646xsd1AcuqLigg7IMCoo7CspDFIFAWBKSQBJg6muo0LdvVXf1cm/uNad/xj+41dVVX1V/ferUOV9VKygo2E98MQKMACOQxghUYyJL49HjpjMCjICFABMZTwRGgBFIewSYyNJ+CLkDjAAjwETGc4ARYATSHgEmsrQfQu4AI8AIMJHxHGAEGIG0R4CJLO2HkDvACDACaUtkG7eVU05WdapXuzqPIiPACFRxBNKKyHbs2kdPvlVAzy0upqLy/VS+j6hNbg268dw69J9n16niQ8ndZwSqLgJpQWTrN5cJAiukZz8poSbZ1SizRjUS/1nXXpGXUFh6IDnh7kvqUs/OOWylVd35zD2vogikNJH98EspPSEIbO6Xuym3VjXKzjjIXorBshPaoG45dGWPutSgDi87q+i85m5XMQRSkshW/VxKD766k979oVRYYNWppg8+AqGViv9t27OfBnfNof496lDz3IwqNqzcXUagaiGQUkS24vvd9PAbhfTR//snMNWwlQg/GgjtqlOz6fqedall05pVa3S5t4xAFUEgJYjsX9+U0D2vFNDXeeW+LTCTcQKh5ZXsp8s7ZtENgtCOPzLT5DYuwwgwAmmCQKUS2fvLi+neuQW0dsdeaibCKKQDP1HYlYldzrySfXTe8Zk0tFd9ansUE1qisOZ6GYFkIlApRPbqx7vo4fm7kkZgTkAlof356Ey66T/qUqcTspKJOT+LEWAEIkYgaURWXl5Orywsob+9vYuKyvZTA7ELWdmXJLQOTTLo5ovqUo9Ta1d2k/j5jAAjEACBhBNZQfE+eumDXfTge7us5kVFYDuEE79WDXINyTDFAzudm0Q7WzeoQSN612NCMwWOyzECKYJAwohMRuE/srCIckT8V93MQ0GsYfteq2Y1i3DWbSq3CDIqcpSxaGjrMGGhXXpmFmVkcOhG2PHi+xmBRCMQOZEhB/LZtwvpiSXFnkGsQTq3oWgfzb+7ccXO4z8WFNLk1wsjIzPZJmnxDexeh/qKP87pDDJafA8jkBwEIiMymUb09+UlCSEwCQdCKZZNa1JhKSH27PK/5VOLHB9Rsz6wBaHhQrbAVefVZULzgR0XZQSShUBoIpNpRC+v3E2HCzLxE4UfpJOwyD6/r3lF+hFi0AbM2h65RWZvmzNb4Pqe9Tj9Kcjg8T2MQIIQCExkILB7/rGTPvipNCkEJvufrKWlDm8ZXHvNadk0vF8DttASNDG5WkbADwKBiAxWUN+Z25JKYHbf1YyrG1TsLE75+3aas6Ikkt1LP8CB0JDEPm9cU7bO/ADHZRmBBCDgm8iwG3nyHRsT5pPy6iN8VmPFjqXUHxvz9DZ675s9CV/SqtqFOLRWjWrQ7FFNvJrNvzMCjEACEfBNZI8IVYqnPypKugVkt8jsRDb8sXxavLq0UogMbcJS9627GnO6UwInKVfNCHgh4JvILhm7mbYIqyzReZEqZ/uevWQpw353fyPKyjqQVoRdy25T8+monGqUI+LLEr3Z4AQUFuJQoVB7w8X1vLDm3xkBRiBBCPgiMkTpn3R7cpaVWLYhlQnE9ccjalKnYzPpmOYZdKRIJ7LnRiL1afn3ZVZw7Kr1ZbR0TamVw+klxBgVnmhnx5YZ9OitjaOqkuthBBgBnwj4IjK/MVt4yauLlEo/1pvUEINCRe8uOXRauyzfO4PYUf34i930vFgCY+nnV1kDbcBll9R2wxXPWPtoC5/Qc3FGgBGICgFfRPbEvAKaJfIm3SSn0TDEXdUWaT7d29WiL38uo2+FteSVRiQTuKMWQYRU0ENvFtLabXs906RkziWUZesLWSH01YTMQGQLxzVh4caoZiXXwwj4RMAXkf3P1C20SpCSmx8KZIDrnYlNKywphEggZUkXfQ8/U7tmGTT1+oYJIwNIB90u4t500tmSxOyOe1MLFO2fcFk96nUWn+Tkc/5xcUYgEgR8EVnrQRs8wy5ACMc3zaBn7oz1GSFM4lUR/e+0zH4u3Ef3ChK44py6kXTIrRL4+G55KJ9W/FIW0w5JYi/f0ijO/9ZmyGbPPsOaPLd9LZpwbW7C+8APYAQYgXgEjIkMfqcLJm/xfKnxCPiY5o5sHGddgcyQiwnLTCpNvDz8MM/QBTz78x/20Mff7Kaz2mfFkd6gB7ZQy8PEJsDxtejUtlmeAaoIIZkmVDPgO9sniBeqsS/clEt/ap8dg5DpUho3QZFjwZRmPMcYAUagEhAwJjIszcYIXX0vX5fsA8hsSv9DEfjy36FW8cg7u7RkJ8tJIcbZi4pppVjO1hc+N+xgTr+iftwSDkteWFm4UAYbBded7678inaMmlNAUIm9s2+s7DUst2mzd1SQrsm4OHNATe7xUwZ4pIukUDq11c8YcNnURcCYyIJE0OPlBlGM/+8GcdYZyEInjQPSnCS0/BE3Ztcx0/minEGxWOr9Jp7d/Rj1s+VwqNrwf//cRePFs/2KNqJtjw9sGGfVBRn6goIC+uSTT2jt2rX02Wef0bfffktff/01/frrr1SvXmrFq23evJmWL19OGzZssNq6YsUK+vHHHykvL68i1i8IBnwPI+AHAWMiO3P4Rj/1VpSVpDKjX/2KtCJdRdKHhePgVBsDIAt7nqWsZ9pLO2j2v4rjdlPls018cLt376bbHiu0ztL0G64hl9P9/lSbhvdtEAgn+00vvvgi3XjjjXH1pCKRzZo1i+644464tjKRhZ4GXIEPBIyIDGKJp43cTEfVDa759eW2fbR8/CFBRGcb4QfrP30rZYjAM92uKCw8p0Me9XilTeE+LDdn3txQuzzDzuqLn5QYL52d7YfPr2VuNHmXc+fOpWuuuSYtiOzZZ5+loUOHMpH5eOm4aPQIGBEZYrGGPb8j8EsuLZauJ9SiaTc2UvYCwox3PrndNebMKeEjK/JyymNnFLI7Y66upyQymbEQxBKzdwYW45J7m/kO4HUCwkQW/USvyjXCZ7lu3TratGmT5bK45ZZb0sbfajpuRkSmW7qZPgTlTINGQUoTRQDrEXXiz7nU1aGTu5ZpTia+K1h1j35YFIqsdRajH5xQlonML2JcXoXAm2++SXfddRetX78+5udt27ZVTSLrNymP1ovIeD+pRnbksIPZp1M2jbyqodGMW/VzKQ2YmW/tbNqzCEAUSyY1pea5sQeCqCxGuZy8d0AjIwsJX63Th+d5Zi24dQAW2d2X1A0dE8dEZjRNuJAHArplf5UksigSxXUEBN+bk5Tk2IBYJjxfYIVAyCWfLsTBLnctU50m9XEPslXtWIY9yCSqBHImMuaoKBBgIrOhaJqmowMeL/cZbTLjfGMgkva3bSSv3UxpbSE+DDuZi6Y1j3sULLjTxm+hw2oR4bDdmYNzXVOdEK6By+mvk20Kuqkhg3y/nnl4qHnIRBYKPr75IAJMZLapENZKgRWli5rHmZQ7S/fTaHGGpJueF1Rp5y8roi4dsrQEBcLbKcpJ5VjVbIaVd8OM7VbwLIhRlegdVqjR1Bfo9rb9HogMsXC4EGe2c+dOQnhL06ZNrb+wF+rEH56BuLqw9UpneHFxsdU0aN01ayY2bQxi9nBvfn6+1R77Vbt2bTr22GPDdtWqN2hfdUQmxyZo49BnxDgixAYXcGrTpk3guEHMjdWrV1vjKevDGLRs2dK4Tk9nP9J/Vq53TxR3AwR+o5X3Hzq+TZa1x6Xh5YfqRSJzFWFt/de9W2jDzr2WHwz+N1XcV9gd2igSyP0QGQa/a9eulJ0dm16FAFrEo1100UUW5JjU06ZNo/r168cM10cffRTn+EVA68knnxzzIuLfFi9eTCeeeGLM/bqXBbFlTz31FMEf47yGDBlihWz4ITW8PKhvypQpyjpzc3Np3LhxyrAV5/OB2ccff2z9zZs3zwrm1V3nnHOOhZ0kNbxwS5cutf4WLVrkei/qvPrqq62+4kX3c2HsJk+eHOeol3WMHTuWbrrpJtcXXTc2IIi9e0W0ue0qKSmh/v3706RJk7TNxBx44IEH6Pnnn1eW6datGw0fPpzOOOMMo65iPmFOfvjhh9ryHTp0oPPPP9/aaXX7sHgSWWchpBjUya/zGamWqyCAM46pmRCBQoR29Ju61cqrlDFq8oi3FQ/ELgPDnkkQRQK5HyID4WCCOS9M9Ntvv73in3WBqyrHryQyZ51+iMxkJuNF6927t2dRPPfCCy/0LCcLfP7551pr6P3336c+ffoY14WCdgvm0ksvdX3xdBU7x0NXToe9rrxqTGRZHZHp6kIQ9tSpU5U/T5w4ke677z4j3Pr160ePP/64a9mbb75ZS4iqG72sSFciAwF0HZdnlCiuejisHpzU7Vw26gJYUb5F/Rr0vyMaG+00mqAK/9nl07Yqtch0evvnjNxEe4Q6bZhL5cszrc+UyPAFhUXhvGAFPPTQQzH/nIpEhgbarUYVPkGIB/WsWbNGafH5rQ9WxmuvvVbRNB3mJmP74IMPulqMsPY6depkUlVMGR2ZRUVkfkkHjYMli3msuqZPn07jx4837qdzDFQ3uhJZFMssVQyXm64ZLBpYTVEcs4bdzP4Pb3PVQVOFS4T1kyEA96vphw4RNh6xgwVNiEz3hdRNoFQlMnRZl3oF39Bxxx3nFz6rPPxTsMycl18iwxJ59OjRkRCZW1/hJ2rSJPhpXCrLOgoi81uHHW8VccOyOuKII3yNqYk160pkYc+M1Fk8HYb85qrWimVmr45ZWp8ZiObX/L1UIjYKrumeoxU0bDlwg2talS6+zSvlyWsUwiaQexGZjpR0Ly/am2wig88KvjDpU1u2bJl2aeIkC4kvlp0LFiyIgxtLoOuvv95yyCNifcyYMcrl3ttvvx3nr9ERGdrarl07aty4MRUWFlqJ+rAWsZySfkY0RGWRwY8DfxXuxQVHuCr/FL899thjdOWVV8b1Sfdhuvjii2nEiBHUqlUrKzIfPqXZs2fH3a+qV0dC6KvzKisro5NOOimmbW4fEjyve/fuVjVLlizRWprOJaEOf+A1YMCACl8v+goL9Y033rD8jF5+N1ciC5ooLkGCZfLJlNgAVjjdu4zYpIygl36r1QX7adaV6jgwu5aY9YUTO5Xv3q0+jg0bFW+tKhWqsNWUktWw/toKZVqnCKRfySLnpABBXvvnHBrcK9ax7kWA8ncdkeGr+8477yhfhBYtWtDKlSu1zt9kE5kf3xv67ZzwOl+R7uus8l2pfDW6F8k0SFRFZKqlvK79IKYXXnghZirorBRVvbhRtdQDmYJQ7FfYXUvdElDlg9SR3pw5c6hHjx4VzdLNbS8fmNe7oyWysE5vPBhE9s39zWP8Xc56ZRoRwjA6t6xJ3U/MorNOyqLjj8yMazvubTl0I/0h91Dyuo6M5M3YWPh01R56VxxGInXNcGwcDkXBpUr0DktkYRPIdYMNC0H1NYf189VXX7nu6iSbyHTqF7p2OP08unK6CY/+q77aphaBqbKIish0zm0VueKDs2rVqpi5jVQi1bjq/Hw60nD2IWwcmWqXUGc9o0OjRo2imTNnxvTNWV73IfHyHwYmMi//klfF+B1Lyy+Er8iuOybJCMGriNjvfFwmnXdKtpGyK+p0OuL9WD/IJFgmVGaXfLeHFn6/RyjD7qeOwiJ7fXxsbFNYIpN9Xz2zaaCcNh2RqTA3ITHclypEprNUnDuYCClx+rgkYcCf5LwQq6bypznJQPciJYLIdBaN0/pTEYAkPFVf0fcTTjghLgzF+TEIQ2Q6ssRy/fTTTyeEw9gviH5iGehUbXFaoG7LVViVI0eOtMIt/IqIai2ysH4i+TI7cyMBwOPziujsk7M9Ja5VLy78Y3O/3G058GGNfbdDLC2HxctUexEt2vHFj+W05teyuNzIqIgs6AnkfojM9AVMFSLTObXhixo4cGDFsJkEo3qNMX6H0KM9hiuZRGYqcRQ0pMPZf6dPMAyR+Q150Y2Fym9r0l/pMzONNdQSGXYWf9hcHjiGDB2DBtmHd8Ye6GEy+dzKgID+ubKURosTkXAw7lDhh2p7VPwyNMxzoPbxyMKiwGEneHaYBHI/RKbzozj7nypEhnZ5LVkwxrA0o7icVkoyiUwnkOlcdnfp0sVSAA57Of1RYYjM7+6uru0YR2zI2C8/O5cmO5aoW0tkXjt+9obBMioX0aaQpsaF9J+te4ieuyZeXz/sYCXjfrxIdz25kx7/dLeVv5kjMgFwQf7a5JxLlA2TQO6HyPAst0BGiVeqE5l9wjKRBZvlqUhk2Mn96aef4joEyxxZALosAfsNgePIEETa8x6zE5NkRH4HYRU1FAqyh4mA1iNE4naLxhmBg1rhR9uYf2ANHsTaklYb2tG8UYbnqUq6aYMd1m/X7qFdwpe2VaQ2bRAhH4uEf02mOZlMtyCBsToiw/JLt63vXJo52+ZHkjqKyH6ds1/nIzFZWsKH0rFjRyotLTWBnoqKimjGjBkxgbGpaJGp/IFII8K/++krPgb2ZXQYi0y3tITPq2FDMzkuDBKWhvY4POfAYT4gC8Ara8BrM0BpkZkmius09I1mmSgEogBhrRenJMFX9bUg0DWb99LaHQdMu6BWnQy7yDi4udm6QQ06rmkNOqZ5TfpD68zQRGsaMBs0gdwt/ELlUJV4q+Km5G+6OlU7Y4kkMl07nNaEyo/iFi1uOudSkchUzn7Vksy0j7JcmLMfTMMp/LZJVx7GB+b2sGHDlLm0qvASe11KIjN9URFesX5WC21fYFk1EEqvqgs+uA9+KhUa/QeWbli2OfX6QZRDz41PcfICTyUEaV/+yqXvmPNylIeFoN0FRXu1Sht2/TO3tgQleq+AWLcUD92Wve4L6yQQ9CeRRIbATlUiuXPTwjRMw2suOH9PRSLThV94pW959V3XV7f8THudKl+mKnzEqx1+f0dgrCro1y3WTElkpoGwKmlnxG29v6KE5og/hDcgGFV1vqXJzqBOkNELGJO6QcKLJzRRHiL8rDiEBBfaDmXbS8/MiVnimmY8+FXG9bKe7C+7LudP9+XSfWGxhMHOHmRT5KUr6ydp3Dnp8MUdPHiwcoKqLC235GmvFxwR4dWrV1cmjqcikbk5v72WVMAJ8kNOVRKMpS53U2fZYtztu4S6bAPMsWeeeUar6AH/F5RBzjzzzLgAbcwDZHm4RerriN03kflx9MuXFelCS9eUWsvC3FqHIundnN5uhOl2nwzhaCKWjCr9Mfze8bY8bRoU2qw6CAX3tRmyuWK3UmYabBOWIQQbTxcxb+u3ltPin8qMtP2DOvy9LDJMUrfcPN1Oj04pA/Vh9xOTGOk5n376qTJP0Q+Ryfqgy4UXBCktuktnIehSlGQ92OSQLx5eZmQ2yJQmHQapSGToj2p5accLeB599NHWP6Gv33//fYVggG7n2mvTBPjVrFnT2lWE+ADmx8KFCz0/aLIAQit69epFGGO0CXMH+Es1FlUGgP0DhbjAU045hVq3bl2RmoTzBVRHIeKZvoms062/Ge/O4QF4YXG5HeOmEjF0C7p1O8gDFtETS4rFTinRS0PUMWS6A1OkiuuiKc3ilr3ycF7Vaeq4DzJAbv10vqggzAtFpoJfnTUTIsOz3GJ9VJNI96XTMozjBz9EZlon8v50GlhhksZ10fapSmRhksadBGTH3osgnePkJAudn81kfFVui6Bz0GtnPpSPzKQzkujObV9L+ULjBPO3v9odc+gHSKN2ZjVaIMjGeUFa6IwxeVYyuFc5lQQRCHL6FeqwkDDaayos8KxZ1zakHqfWNoXKKmdKZCirm6i6yR1GhiZqIjPRrdKlHpkAqvqCpyqRoT9+tcjsGOhyRf0SpMrH6ld2R7ZLtZPuR9fM3j+d71eWURIZyKL9yLyYnEaTieNWRncmJe65ZKyQ8xU+K2nRuQWTOhVrUXZs73rKJabT6Y+yV4rzLVWnOeEYOkhvq6yxIH2HldpUkK0z/cmkLj9E5rZ80AkXBtGXkhag0xejc8p79dPL92O/H5ZZ3759lctdt+eoXu6wRKZa7uoI2TQg1t4HkO+gQYOUOnNufXV70YFf586dacuWLV7DQrqd7yABsqoE+bZt23qq6job6SaU6Upk+BEO89tF9DxSgaK4YD01FjuYqhcbYRi9J+bRLkE0IDNVjibagI2E3vfnx0jzyKWi6mBc6KkNfHq71QeQ2Hnt1AcEIwezy6hDvrGw/UWbNok+qY6uM6kblg+2ouG/kBdkViZMmKBUt4DV8vrrryur1sXwwBH80ksv0QcffKAkCDh0scN41llnWT4MEJguXQR1YcMA0jf4++KLL5Q7k5jYPXv2tFRh7ZsLJpigDPqJNqOvzrMa8Ts2LvDC4g/OZJVmvsQKfh15wb+D+DyTNoG48WxZFhYPcjxVJ8NjHOfPnx9TL8pjTLyeJcfn1VdfVSoAI9AUOY8Yn7PPPttIShtk9Morr1hjbic1WO/ILrjgggusOt3yHLE0xNxU7SoCTwSvQg4JMXAqZz9IFc+HL+69995TzhPUg4/DZZddFqOc4TZPPPXIXhQ7eFFZKSCTQd3U8jYgswH3b6Wl68usU8FVfiVYbltEaIRTelunv4+Onz5sI/0mlni6Oi3QxLmd60Swq87HZ/qiyXLYEdX57vzWlc7lYS2CJEAafpOAvfotD/1AOZxXEFVuptdzK+N3e1/x/EaNGkWOZ5B+gZSRrI8LZ0F4kbPqGc6+Ba3HU7M/2S85fGZXCHlsZ0S/3bpSAaIL1UDyOzIOrjinrnKssHEQJVmjHSMvdD8VKsik4XsYAUZAj4AnkcFS6nb3plAncNsfL5dd84UYokpzTNdUL0e87vxMt8FHBsOoOQWRLZ9hGZ7aKjEHqPAkZgQYgRBEhlt/+KWUevx1i6tstF+QdTLYqnpgVd01bxe1qVfNiv6XooiyLMIikLS+Ol+obYw6jDqdcCi4U9cukNiIVwoi6xOItI6In3tn4mEpYfb7HQ8uzwikMwKeFpnsHJz/t7ywM7IXH/XqDu91AiqTt1eKgFvkY/62/WDg2sGCxzXPoONb1KSOImC1fasDB6y6XVHI9DitzEIREPze+CbUPDcjnecDt50RSEsEjIkMvYvanySXmYO7qnMeo0YUOZS3PZJvnTQe1QYG2sjO/ahHiutjBPwh4IvIULXbUW7+Hn2oNHYzm4rQjLmjmwSW/vF6tpQmapJdPbLdSWlVsnPfC33+nRFILAK+iQzLvHP/stnyUwU9gdzZJbdYsKi6rzrdPGzdupzNsPXy/YwAI+APAd9Ehurh/L9gspnwoklzVKlGIB74xM77Y7ZWTkdXN9o3b2kx3dqnToXjPeoNizCR+yaYcBlGgBEwRyAQkaF6r7gu8yYccPrbcxJl3dApg3YYIvNPOzbTcui3Eqce1RHyOg3qCgEzce0o3GspuK4T4ow/bCijxatLhXzQvgqNswV/PZQcbqqzZtJ2LIfZuW+CFJdhBBKPQGAiQ9Ow+/fc4uJQjnNYNq0a1aDZow4dFw95H1hp9qWr6lwAtMGup68SZrRnEkSVigTn/tzboj1UJfFDzU9gBH6/CIQiMsAS1vnvPI3cz3kBJsMCAlw2o3lF0bA5pLAeJ/VRn4Ju0h4uwwgwAtEjEJrIkG/V4y/b4ywok6bCWT5QpCPdcHG9iuI6HTGT+lRlVLpmKilsk/rZuW+CEpdhBJKPQGgiQ5Mh+wPtL5wc7mcnU5Uf6TxJPCwkqoRyEyls53PZuR92JPh+RiBxCERCZGgeHPTXPbndV+S/01pyU4wNCoGUq/5wcrOKGLUgVh+c+ypV2aDt4vsYAUYgOgQiIzI0Kajzf0zf+mLncR/d93qhL4vOFAa5oXCdOJHpy7Wlvjco2LlvijSXYwQqB4FIiQxdgILr8nVlvtQyYO3gijJtyAmnDLrFsXPZB08ON4GcnfsmKHEZRqByEYicyCCUdv7orVQskqj9+MsqFwb100GwvTr6PzwkFfvCbWIEfs8IRE5kACuo8z+VgGbnfiqNBreFEXBHICFEhkfCcd935jZfzv9UGizsdtqzAlKpbdwWRoARiEUgYUSGx0AQcZo4mSiqA0ySNXhw7r8rFGydctvJej4/hxFgBPwhkFAiQ1OCOP/9dSHa0nDuT728vvJ4uWifxLUxAoxAVAgknMjSyfnPzv2ophXXwwgkF4GEExm6E1WydiKhYed+ItHluhmBxCKQFCJDF+ThuocLSZ6ozo+MAhoZX5Zohdoo2sp1MAKMgBqBpBGZtMymv7yTXl6522pNRjSHmAce23KhjFE/s5p1aPCAi3P49KPASPKNjEDlIpBUIpNdhd9sS0Hldlw+nU89So1x4FYwAmEQqBQiC9NgvpcRYAQYAScCTGQ8JxgBRiDtEWAiS/sh5A4wAowAExnPAUaAEUh7BJjI0n4IuQOMACPARMZzgBFgBNIeASaytB9C7gAjwAgwkfEcYAQYgbRH4N/YLGLgUgP6BwAAAABJRU5ErkJggg==;" vertex="1" parent="1">
          <mxGeometry x="536.28" y="34" width="185.45" height="60" as="geometry" />
        </mxCell>
        <mxCell id="hZKEGMEajTzcgUapLtRP-26" value="" style="curved=1;endArrow=classic;html=1;rounded=0;" edge="1" parent="1" source="hZKEGMEajTzcgUapLtRP-5" target="hZKEGMEajTzcgUapLtRP-12">
          <mxGeometry width="50" height="50" relative="1" as="geometry">
            <mxPoint x="500" y="310" as="sourcePoint" />
            <mxPoint x="550" y="260" as="targetPoint" />
            <Array as="points">
              <mxPoint x="310" y="240" />
              <mxPoint x="320" y="-10" />
            </Array>
          </mxGeometry>
        </mxCell>
        <mxCell id="hZKEGMEajTzcgUapLtRP-27" value="" style="curved=1;endArrow=classic;html=1;rounded=0;" edge="1" parent="1" source="hZKEGMEajTzcgUapLtRP-12" target="hZKEGMEajTzcgUapLtRP-20">
          <mxGeometry width="50" height="50" relative="1" as="geometry">
            <mxPoint x="500" y="310" as="sourcePoint" />
            <mxPoint x="550" y="260" as="targetPoint" />
            <Array as="points">
              <mxPoint x="480" y="10" />
              <mxPoint x="460" y="70" />
            </Array>
          </mxGeometry>
        </mxCell>
        <mxCell id="hZKEGMEajTzcgUapLtRP-28" value="" style="curved=1;endArrow=classic;html=1;rounded=0;" edge="1" parent="1" source="hZKEGMEajTzcgUapLtRP-12" target="hZKEGMEajTzcgUapLtRP-21">
          <mxGeometry width="50" height="50" relative="1" as="geometry">
            <mxPoint x="578.3924999999999" as="sourcePoint" />
            <mxPoint x="514.3107692307692" y="110" as="targetPoint" />
            <Array as="points">
              <mxPoint x="920" />
            </Array>
          </mxGeometry>
        </mxCell>
        <mxCell id="hZKEGMEajTzcgUapLtRP-30" value="" style="curved=1;endArrow=classic;html=1;rounded=0;" edge="1" parent="1" source="hZKEGMEajTzcgUapLtRP-6" target="hZKEGMEajTzcgUapLtRP-21">
          <mxGeometry width="50" height="50" relative="1" as="geometry">
            <mxPoint x="490.0000000000002" y="382.66550276034536" as="sourcePoint" />
            <mxPoint x="527.9648484848485" y="180" as="targetPoint" />
            <Array as="points">
              <mxPoint x="610" y="350" />
            </Array>
          </mxGeometry>
        </mxCell>
        <mxCell id="hZKEGMEajTzcgUapLtRP-29" value="" style="curved=1;endArrow=classic;html=1;rounded=0;" edge="1" parent="1" source="hZKEGMEajTzcgUapLtRP-6" target="hZKEGMEajTzcgUapLtRP-20">
          <mxGeometry width="50" height="50" relative="1" as="geometry">
            <mxPoint x="500" y="220" as="sourcePoint" />
            <mxPoint x="550" y="170" as="targetPoint" />
            <Array as="points">
              <mxPoint x="550" y="300" />
            </Array>
          </mxGeometry>
        </mxCell>
        <mxCell id="hZKEGMEajTzcgUapLtRP-31" value="EC2 Instance" style="verticalLabelPosition=bottom;html=1;verticalAlign=top;strokeWidth=1;align=center;outlineConnect=0;dashed=0;outlineConnect=0;shape=mxgraph.aws3d.application_server;fillColor=#ECECEC;strokeColor=#5E5E5E;aspect=fixed;" vertex="1" parent="1">
          <mxGeometry x="602.0699999999999" y="100" width="69.44" height="70" as="geometry" />
        </mxCell>
        <mxCell id="hZKEGMEajTzcgUapLtRP-32" value="" style="curved=1;endArrow=classic;html=1;rounded=0;" edge="1" parent="1" source="hZKEGMEajTzcgUapLtRP-6" target="hZKEGMEajTzcgUapLtRP-31">
          <mxGeometry width="50" height="50" relative="1" as="geometry">
            <mxPoint x="469.0000000000002" y="408.45826759019064" as="sourcePoint" />
            <mxPoint x="749.1227906976744" y="180" as="targetPoint" />
            <Array as="points">
              <mxPoint x="610" y="340" />
            </Array>
          </mxGeometry>
        </mxCell>
        <mxCell id="hZKEGMEajTzcgUapLtRP-33" value="" style="curved=1;endArrow=classic;html=1;rounded=0;" edge="1" parent="1" source="hZKEGMEajTzcgUapLtRP-12" target="hZKEGMEajTzcgUapLtRP-31">
          <mxGeometry width="50" height="50" relative="1" as="geometry">
            <mxPoint x="726.5699999999999" y="-22.322970181664004" as="sourcePoint" />
            <mxPoint x="808.95" y="114.90948192848441" as="targetPoint" />
            <Array as="points">
              <mxPoint x="880" y="40" />
            </Array>
          </mxGeometry>
        </mxCell>
        <mxCell id="hZKEGMEajTzcgUapLtRP-35" value="" style="sketch=0;html=1;dashed=0;whitespace=wrap;fillColor=#2875E2;strokeColor=#ffffff;points=[[0.005,0.63,0],[0.1,0.2,0],[0.9,0.2,0],[0.5,0,0],[0.995,0.63,0],[0.72,0.99,0],[0.5,1,0],[0.28,0.99,0]];shape=mxgraph.kubernetes.icon;prIcon=node" vertex="1" parent="1">
          <mxGeometry x="459" y="110" width="41" height="30" as="geometry" />
        </mxCell>
        <mxCell id="hZKEGMEajTzcgUapLtRP-36" value="" style="sketch=0;html=1;dashed=0;whitespace=wrap;fillColor=#2875E2;strokeColor=#ffffff;points=[[0.005,0.63,0],[0.1,0.2,0],[0.9,0.2,0],[0.5,0,0],[0.995,0.63,0],[0.72,0.99,0],[0.5,1,0],[0.28,0.99,0]];shape=mxgraph.kubernetes.icon;prIcon=node" vertex="1" parent="1">
          <mxGeometry x="590" y="110" width="41" height="30" as="geometry" />
        </mxCell>
        <mxCell id="hZKEGMEajTzcgUapLtRP-37" value="" style="sketch=0;html=1;dashed=0;whitespace=wrap;fillColor=#2875E2;strokeColor=#ffffff;points=[[0.005,0.63,0],[0.1,0.2,0],[0.9,0.2,0],[0.5,0,0],[0.995,0.63,0],[0.72,0.99,0],[0.5,1,0],[0.28,0.99,0]];shape=mxgraph.kubernetes.icon;prIcon=node" vertex="1" parent="1">
          <mxGeometry x="710" y="110" width="41" height="30" as="geometry" />
        </mxCell>
      </root>
    </mxGraphModel>
  </diagram>
</mxfile>
